<?xml version="1.0" encoding="UTF-8"?>
<svg version="1.1" viewBox="0 0 2048 1443" width="210" height="148" xmlns="http://www.w3.org/2000/svg">
<path transform="translate(556,2)" d="m0 0h49l45 2 61 5 60 5 68 7 50 7 47 8 38 8 37 10 30 10 23 10 20 10 13 9 10 10 8 14 1 3v12l-7 14-11 12-15 11-18 11-2 2 1 1 95 1h518l30 1 11 1 8 7 7 10 2 9 1 39v587l11-3 13-2h9l29 4 29 6 33 10 23 10 20 11 28 19 11 9 14 12 14 14 11 14 10 13 13 21 10 18 11 26 7 21 6 27 6 39 1 4-10 2-9-1-64 1-17 1v2h2l1 7-1 27-3 28-5 24-2 8v5l14 4 27 6 27 9h2l8-16 8-26 6-28 6-33 4-7h2l1-4 3-1-3 18-3 23-7 31-11 32-10 21-12 20-9 13-10 13-11 13-9 10-13 13-13 10-18 13-15 10-18 10-16 8-16 6-24 6-25 5-19 2h-10l-2 2-12 1-4-4-2-3-2 5h-5l2-6-1-3h-2l2 5-6 2-1-3-3 2 3 1v2l-10-2-15-2-30-7-24-8-21-9-20-11-12-8-21-16-15-13-15-15-9-11-11-14-12-18-15-25-10-26-7-23-3-14-621-1h-244l-191 1h-91l-11-1-6-3-8-8-5-9-2-11-1-21v-60l-10-2-27-5-47-7-46-8-37-8-37-10-23-7-21-8-19-9-15-10-14-13-7-10-3-8 1-9 6-11 11-12 7-7 13-9 17-10 8-5h2v-2l-5-1-16-7-16-10-12-11-8-9-8-14-1-6 4-10 8-11 13-13 13-10 13-8 16-8-26-12-14-9-10-9-5-5-7-8-5-11 1-8 7-12 18-18 14-10 21-12 5-3-16-7-13-7-11-8-13-12-8-10-4-10v-7l6-12 9-10 7-8 14-11 13-8 14-7-9-6-18-10-14-11-8-8-5-4-7-10-3-7 1-8 6-11 14-15 10-8 13-8 22-11-4-3-16-8-12-7-13-10-10-9-7-10-3-7v-8l7-14 10-11 4-5 8-7 13-10 18-10 5-2v-2l-12-3-16-8-13-10-14-13-7-10-3-10 1-8 7-11 12-13 15-11 16-9 12-6h2v-2l-6-2-16-9-12-8-10-8-16-16-5-10-1-7 7-14 12-14 12-11 14-9 19-10 24-9 34-10 54-12 44-8 39-6 72-8 62-5 81-5 45-2zm89 5 1 2zm2 0 1 3zm5 0 4 1zm-35 1m33 0m-13-1-16 1v1h-14l-34-1h-26l-54 2-60 3-78 6-87 9-39 6-54 10-39 9-30 9-26 9-23 10-16 10-11 9-10 11-7 14v10l6 9 10 10 14 10 21 12 14 6h8l54-15 34-8 57-10 49-7 44-5 59-5 38-4 41-2h183l40 2 58 5 63 6 60 7 55 8 42 8 47 11 27 7 9 1 16-7 13-7 11-8 10-8 9-10 6-12-1-8-5-10-11-12-14-10-16-8-15-7-29-11-30-9-42-10-49-9-40-6-66-8-57-5-63-4-27-1-6-1 4-1v-2zm-172 124-30 1-50 4-85 8-64 9-67 12-44 11-25 8-5 1v2l13 6 19 5 42 9 41 8 59 10 24 3h15l3-2 2-17 4-11 9-10 5-2 16-1 77-1h586l7-1v-2l-16-6-36-8-35-7-49-8-64-8-53-5-73-6-38-2zm-387 60-10 3-23 12-11 8-10 9-7 10-4 9v8l5 10 11 12 14 9 25 13 7 3h12l49-14 54-11 66-11 21-3 28-3 6-2v-18l-1-1-43-5-65-11-51-10-38-9-19-6-13-2zm232 68-19 2-30 4-75 13-41 9-30 7-23 5-2 2 16 6 24 7 36 9 50 10 67 11 11 2v2l7 1 3-1h6l1-89zm-228 46 4 2 4-1zm9 2m-27 2m-2 1m9 0-16 8-14 9-12 11-10 12-5 10-1 9 5 10 12 13 14 9 23 12 10 5h8l21-7 50-12 41-8 50-9 29-3 28-2 6-1v-20l-6-2-31-6-64-10-44-8-34-8-35-9-13-3zm-11 1m-2 1m-2 1m-1 1m64 1m3 1 4 2 37 9 16 3h7v-1l-37-8-22-5zm64 14v1h5v-1zm5 1v1h6v-1zm7 1 4 1zm7 1m82 13m21 3m0 31-16 2-45 5-72 13-48 11-18 5-12 3-8 1 2 2 17 7 50 12 35 7 38 7 26 4 50 5h3v-84zm-229 46-13 5-19 10-11 8-10 9-9 11-4 8-1 9 7 11 12 12 13 9 18 10 12 6h15l25-8 40-10 57-11 92-14 7-2v-21l-21-2-36-3-32-5-44-8-40-9-30-8-20-6zm230 67-26 5-44 7-28 5-59 12-26 6-31 9-1 2 20 8 42 10 60 12 62 11 14 3 18 1v-91zm-233 52-12 5-17 9-11 8-9 8-9 12-4 8-1 10 6 10 11 12 15 10 22 12 8 4h12l27-9 44-10 46-9 41-7 20-4 15-2 30-2 1-16-1-6-18-1-48-7-43-7-56-12-44-12-16-4zm-11 1m241 69-35 3-95 18-37 8-38 10-10 2 4 3 18 7 58 14 53 10 56 8 25 5h5v-88zm-228 47-23 11-16 10-13 11-9 12-4 8v10l6 9 11 12 10 7 28 15 8 4h9l17-5 15-5 38-9 42-8 41-7 60-7 12-2v-19l-5-2-27-5-52-7-50-9-44-10-49-14zm231 70-23 4-48 6-54 9-46 10-29 8-16 5v2l13 4 42 11 43 10 56 10 43 5 20 2 1-62v-24zm-229 47-21 9-18 11-14 12-9 11-5 10v8l6 10 8 10 10 9 25 14 9 4 4 1h12l17-4 24-7 38-9 35-7 79-13 28-4 2-1v-24l-2 1h-16l-37-3-39-6-38-7-35-8-58-16zm1693 59m2 1m9 2 4 5 11 8 24 16 14 10 15 13 31 31 10-2 44-11 2-2-13-11-18-13-15-9-21-11-20-8-27-9-19-5-15-2zm-10 1 1 6 7 16 12 21 16 35 6 14 4 2 44-7 12-3-6-8-16-16-8-7-12-10-12-9-18-13-14-10-11-8zm9 2m-47 1v22l1 9h2l5-10 9-6-3-7 1-3 6-1 2-1-1-3zm48 0m-20 2-3 9v17l1 10 1 54 1 1h11l34-2-5-15-13-30-21-39-4-5zm-1455 0-13 3-82 15-64 13-44 11-15 3-2 2 11 4 16 5 23 6 39 9 57 10 49 8 21 4h5v-93zm1445 6-1 4h2l1-3zm0 8-10 9-6 11-2 10-1 30v15l1 1 19 1 3-1v-48l-2-26zm-1680 39-20 9-15 10-13 11-9 12-4 10v7l4 8 9 11 10 8 16 9 17 8 27 10 47 13 35 8 56 10 46 7 26 5h4l1-81v-28l-1-2-27-5-64-10-49-9-52-12-22-6-17-3zm1867 12-16 7-37 9 4 7 11 16 14 24 9 20 6 15 9-1 36-8 27-7-1-6-16-27-14-19-11-13-10-11-7-5zm-64 19-55 10-1 3 14 40 10 38 1 2h9l65-9 7-2-4-11-8-16-12-23-13-21-6-8-2-2zm-67 9-47 3v36l1 48h35l39-1 1-3-9-36-8-24-8-20zm-74 3v83l8 1h14v-84zm269 53v2l-11 3-21 6-37 8-2 1 2 9 5 15 3 25 3 44 1 1h87l1-2-3-24-7-37-6-22-8-21-5-8zm-86 24-42 6-25 4-3 1 3 30 2 47 1 3h84v-19l-2-31-3-20-6-20-1-1zm-183 13-1 80 1 1h13l9-1v-80zm87-1-59 1-1 1v46l1 33h30l52-1 2-1v-24l-1-25-3-24-3-5-2-1zm218 76 1 2zm-189 6 1 2 2 6-2 29-5 48 12 3 36 6 22 3h9l6-21 4-26 2-18 1-15v-15l2 1 1 6h2v-7l-1-2zm-116 4-2 29-3 12-6 8-4 4-7 2-34 2-1 3 3 22h38l37-1 1-37v-44zm108-2-23 2h-57l-1 1 1 80h77l3-14 3-31 1-16v-19h-2l1-3zm-350 59 1 4 14 40 6 14 5 1 34-10 31-7 3-1-1-10-4-18-2-13zm101 0-9 1 4 18 4 17 1 1 14-1 63-9 3-1v-9l-1-10 2-3v-3l-3-1zm122 30-35 1 6 15 12 39 7 21 4 9 4 1 39-1 3-1v-84zm130 0-2 5-7 28-16 47-1 5 50 9 10 1 8-9 11-18 13-23 12-24 3-7-6-2-39-6-33-6zm-51 0-32 1-1 9v75h49l5-8 12-36 7-25 3-15-12-1zm-127 2-28 4-44 7-2 2 10 19 8 16 13 24 8 12 5 7 5 3 12-2 20-4 21-3 7-2-2-9-5-12-12-39-7-22-1-1zm-81 11m1 1-8 3-30 7-21 6-11 3 4 10 10 17 10 14 11 14 12 13 9 10 11 8 11 10 21 14 29 15 24 11 30 10 12 3 4 3h17l8 1 2-2-15-8-20-14-19-13-13-10-10-9-8-7-9-10-8-9-6-3-2 1-1-3-1 4-10 3-15 4-21 5 1-3 10-5 25-6 10-3-1-6-10-16-12-22-12-25-6-14zm344 2-5 10-5 12-11 22-16 27-6 8 3 3 20 6 15 4 11 5-2 4-6-1-9-3-21-6-17-6-7 6-7 8-11 12-13 12-11 9-17 13-16 10-20 15v2l6-1 4-2 39-8 27-9 25-12 18-11 22-15 12-9 11-9 10-9 10-11 9-11 12-15 14-22 4-9-1-3-10-1-27-8zm-202 74-18 1 9 19 13 28 11 20 9 11 3 3-1-82zm79-3-1 3h-46l-1 66v20l4 2 7-10 14-26 8-16 12-26 4-11zm8 3-4 8-7 17-10 20-12 22-12 21-2 5 5-2 4-3 9-4 18-13 19-14 13-11 14-12 15-14 7-8 2-4h-9l-47-8zm-113 0-1 1-25 3-32 6 6 9 12 12 8 7 13 11 19 14 22 14 10 7 13 8 1-2h-2l1-5-7-14-9-15-8-16-16-33-4-7zm-74 64m2 1m2 1m2 1m2 1m2 1m2 1m2 1 2 2 3-1zm5 2m2 1m2 1m2 1m3 1m3 1m2 1m6 2m6 2m74 3m1 1m0 5m54 1m-2 1m-81 1 4 1zm5 1m3 1m40 0v3h2v-3z" fill="#FCFCFC"/>
<path transform="translate(556,2)" d="m0 0h49l45 2 61 5 60 5 68 7 50 7 47 8 38 8 37 10 30 10 23 10 20 10 13 9 10 10 8 14 1 3v12l-7 14-11 12-15 11-18 11-2 2 1 1 95 1h518l30 1 11 1 8 7 7 10 2 9 1 39v587l11-3 13-2h9l29 4 29 6 33 10 23 10 20 11 28 19 11 9 14 12 14 14 11 14 10 13 13 21 10 18 11 26 7 21 6 27 6 39 1 4-10 2-9-1-64 1-17 1v2h2l1 7-1 27-3 28-5 24-2 8v5l14 4 27 6 27 9h2l8-16 8-26 6-28 6-33 4-7h2l1-4 3-1-3 18-3 23-7 31-11 32-10 21-12 20-9 13-10 13-11 13-9 10-13 13-13 10-18 13-15 10-18 10-16 8-16 6-24 6-25 5-19 2h-10l-2 2-12 1-4-4-2-3-2 5h-5l2-6-1-3h-2l2 5-6 2-1-3-3 2 3 1v2l-10-2-15-2-30-7-24-8-21-9-20-11-12-8-21-16-15-13-15-15-9-11-11-14-12-18-15-25-10-26-7-23-3-14-621-1h-244l-191 1h-91l-11-1-5-2v-1h1317l74 1-4 2-34 2 2 19v5l38-1h37v-37l1-44h-22v15l-2 20h-1l-1-206v-34l1-174v-378l1-2-5 1h-1040l-162 2h-123l-57-1-29-1-4-1v772l1 19 1 8-3-4-2-11-1-21v-60l-10-2-27-5-47-7-46-8-37-8-37-10-23-7-21-8-19-9-15-10-14-13-7-10-3-8 1-9 6-11 11-12 7-7 13-9 17-10 8-5h2v-2l-5-1-16-7-16-10-12-11-8-9-8-14-1-6 4-10 8-11 13-13 13-10 13-8 16-8-26-12-14-9-10-9-5-5-7-8-5-11 1-8 7-12 18-18 14-10 21-12 5-3-16-7-13-7-11-8-13-12-8-10-4-10v-7l6-12 9-10 7-8 14-11 13-8 14-7-9-6-18-10-14-11-8-8-5-4-7-10-3-7 1-8 6-11 14-15 10-8 13-8 22-11-4-3-16-8-12-7-13-10-10-9-7-10-3-7v-8l7-14 10-11 4-5 8-7 13-10 18-10 5-2v-2l-12-3-16-8-13-10-14-13-7-10-3-10 1-8 7-11 12-13 15-11 16-9 12-6h2v-2l-6-2-16-9-12-8-10-8-16-16-5-10-1-7 7-14 12-14 12-11 14-9 19-10 24-9 34-10 54-12 44-8 39-6 72-8 62-5 81-5 45-2zm89 5 1 2zm2 0 1 3zm5 0 4 1zm-35 1m33 0m-13-1-16 1v1h-14l-34-1h-26l-54 2-60 3-78 6-87 9-39 6-54 10-39 9-30 9-26 9-23 10-16 10-11 9-10 11-7 14v10l6 9 10 10 14 10 21 12 14 6h8l54-15 34-8 57-10 49-7 44-5 59-5 38-4 41-2h183l40 2 58 5 63 6 60 7 55 8 42 8 47 11 27 7 9 1 16-7 13-7 11-8 10-8 9-10 6-12-1-8-5-10-11-12-14-10-16-8-15-7-29-11-30-9-42-10-49-9-40-6-66-8-57-5-63-4-27-1-6-1 4-1v-2zm-172 124-30 1-50 4-85 8-64 9-67 12-44 11-25 8-5 1v2l13 6 19 5 42 9 41 8 59 10 24 3h15l3-2 2-17 4-11 9-10 5-2 16-1 77-1h586l7-1v-2l-16-6-36-8-35-7-49-8-64-8-53-5-73-6-38-2zm-387 60-10 3-23 12-11 8-10 9-7 10-4 9v8l5 10 11 12 14 9 25 13 7 3h12l49-14 54-11 66-11 21-3 28-3 6-2v-18l-1-1-43-5-65-11-51-10-38-9-19-6-13-2zm232 68-19 2-30 4-75 13-41 9-30 7-23 5-2 2 16 6 24 7 36 9 50 10 67 11 11 2v2l7 1 3-1h6l1-89zm-228 46 4 2 4-1zm9 2m-27 2m-2 1m9 0-16 8-14 9-12 11-10 12-5 10-1 9 5 10 12 13 14 9 23 12 10 5h8l21-7 50-12 41-8 50-9 29-3 28-2 6-1v-20l-6-2-31-6-64-10-44-8-34-8-35-9-13-3zm-11 1m-2 1m-2 1m-1 1m64 1m3 1 4 2 37 9 16 3h7v-1l-37-8-22-5zm64 14v1h5v-1zm5 1v1h6v-1zm7 1 4 1zm7 1m82 13m21 3m0 31-16 2-45 5-72 13-48 11-18 5-12 3-8 1 2 2 17 7 50 12 35 7 38 7 26 4 50 5h3v-84zm-229 46-13 5-19 10-11 8-10 9-9 11-4 8-1 9 7 11 12 12 13 9 18 10 12 6h15l25-8 40-10 57-11 92-14 7-2v-21l-21-2-36-3-32-5-44-8-40-9-30-8-20-6zm230 67-26 5-44 7-28 5-59 12-26 6-31 9-1 2 20 8 42 10 60 12 62 11 14 3 18 1v-91zm-233 52-12 5-17 9-11 8-9 8-9 12-4 8-1 10 6 10 11 12 15 10 22 12 8 4h12l27-9 44-10 46-9 41-7 20-4 15-2 30-2 1-16-1-6-18-1-48-7-43-7-56-12-44-12-16-4zm-11 1m241 69-35 3-95 18-37 8-38 10-10 2 4 3 18 7 58 14 53 10 56 8 25 5h5v-88zm-228 47-23 11-16 10-13 11-9 12-4 8v10l6 9 11 12 10 7 28 15 8 4h9l17-5 15-5 38-9 42-8 41-7 60-7 12-2v-19l-5-2-27-5-52-7-50-9-44-10-49-14zm231 70-23 4-48 6-54 9-46 10-29 8-16 5v2l13 4 42 11 43 10 56 10 43 5 20 2 1-62v-24zm-229 47-21 9-18 11-14 12-9 11-5 10v8l6 10 8 10 10 9 25 14 9 4 4 1h12l17-4 24-7 38-9 35-7 79-13 28-4 2-1v-24l-2 1h-16l-37-3-39-6-38-7-35-8-58-16zm1693 59m2 1m9 2 4 5 11 8 24 16 14 10 15 13 31 31 10-2 44-11 2-2-13-11-18-13-15-9-21-11-20-8-27-9-19-5-15-2zm-10 1 1 6 7 16 12 21 16 35 6 14 4 2 44-7 12-3-6-8-16-16-8-7-12-10-12-9-18-13-14-10-11-8zm9 2m-47 1v22l1 9h2l5-10 9-6-3-7 1-3 6-1 2-1-1-3zm48 0m-20 2-3 9v17l1 10 1 54 1 1h11l34-2-5-15-13-30-21-39-4-5zm-1455 0-13 3-82 15-64 13-44 11-15 3-2 2 11 4 16 5 23 6 39 9 57 10 49 8 21 4h5v-93zm1445 6-1 4h2l1-3zm0 8-10 9-6 11-2 10-1 30v15l1 1 19 1 3-1v-48l-2-26zm-1680 39-20 9-15 10-13 11-9 12-4 10v7l4 8 9 11 10 8 16 9 17 8 27 10 47 13 35 8 56 10 46 7 26 5h4l1-81v-28l-1-2-27-5-64-10-49-9-52-12-22-6-17-3zm1867 12-16 7-37 9 4 7 11 16 14 24 9 20 6 15 9-1 36-8 27-7-1-6-16-27-14-19-11-13-10-11-7-5zm-64 19-55 10-1 3 14 40 10 38 1 2h9l65-9 7-2-4-11-8-16-12-23-13-21-6-8-2-2zm-67 9-47 3v36l1 48h35l39-1 1-3-9-36-8-24-8-20zm-74 3v83l8 1h14v-84zm269 53v2l-11 3-21 6-37 8-2 1 2 9 5 15 3 25 3 44 1 1h87l1-2-3-24-7-37-6-22-8-21-5-8zm-86 24-42 6-25 4-3 1 3 30 2 47 1 3h84v-19l-2-31-3-20-6-20-1-1zm-183 13-1 80 1 1h13l9-1v-80zm87-1-59 1-1 1v46l1 33h30l52-1 2-1v-24l-1-25-3-24-3-5-2-1zm218 76 1 2zm-189 6 1 2 2 6-2 29-5 48 12 3 36 6 22 3h9l6-21 4-26 2-18 1-15v-15l2 1 1 6h2v-7l-1-2zm-8 2-23 2h-57l-1 1 1 80h77l3-14 3-31 1-16v-19h-2l1-3zm-350 59 1 4 14 40 6 14 5 1 34-10 31-7 3-1-1-10-4-18-2-13zm101 0-9 1 4 18 4 17 1 1 14-1 63-9 3-1v-9l-1-10 2-3v-3l-3-1zm122 30-35 1 6 15 12 39 7 21 4 9 4 1 39-1 3-1v-84zm130 0-2 5-7 28-16 47-1 5 50 9 10 1 8-9 11-18 13-23 12-24 3-7-6-2-39-6-33-6zm-51 0-32 1-1 9v75h49l5-8 12-36 7-25 3-15-12-1zm-127 2-28 4-44 7-2 2 10 19 8 16 13 24 8 12 5 7 5 3 12-2 20-4 21-3 7-2-2-9-5-12-12-39-7-22-1-1zm-81 11m1 1-8 3-30 7-21 6-11 3 4 10 10 17 10 14 11 14 12 13 9 10 11 8 11 10 21 14 29 15 24 11 30 10 12 3 4 3h17l8 1 2-2-15-8-20-14-19-13-13-10-10-9-8-7-9-10-8-9-6-3-2 1-1-3-1 4-10 3-15 4-21 5 1-3 10-5 25-6 10-3-1-6-10-16-12-22-12-25-6-14zm344 2-5 10-5 12-11 22-16 27-6 8 3 3 20 6 15 4 11 5-2 4-6-1-9-3-21-6-17-6-7 6-7 8-11 12-13 12-11 9-17 13-16 10-20 15v2l6-1 4-2 39-8 27-9 25-12 18-11 22-15 12-9 11-9 10-9 10-11 9-11 12-15 14-22 4-9-1-3-10-1-27-8zm-202 74-18 1 9 19 13 28 11 20 9 11 3 3-1-82zm79-3-1 3h-46l-1 66v20l4 2 7-10 14-26 8-16 12-26 4-11zm8 3-4 8-7 17-10 20-12 22-12 21-2 5 5-2 4-3 9-4 18-13 19-14 13-11 14-12 15-14 7-8 2-4h-9l-47-8zm-113 0-1 1-25 3-32 6 6 9 12 12 8 7 13 11 19 14 22 14 10 7 13 8 1-2h-2l1-5-7-14-9-15-8-16-16-33-4-7zm-74 64m2 1m2 1m2 1m2 1m2 1m2 1m2 1 2 2 3-1zm5 2m2 1m2 1m2 1m3 1m3 1m2 1m6 2m6 2m74 3m1 1m0 5m54 1m-2 1m-81 1 4 1zm5 1m3 1m40 0v3h2v-3z" fill="#FCFCFC"/>
<path transform="translate(654,447)" d="m0 0 5 1 3 7 12 41 14 54 4 21 9-7 4-6h2l2-5h2l2-4 3-4h2l2-4 6-7 7-6 7-8 5-6 22-22 3-1 2-4 4-7h2v-2l4-1-1 6-12 45-14 56-6 18h3l41-13 41-12 26-7 8-2h7l-2 4-9 8-8 7-60 60-9 7-5 7 17 4 55 13 49 14 3 2-1 3-5 1-15 1-18 6-14 4-20 4-33 7-11 4-2 2 2 2 31 6 44 12 51 13 62 17 46 12 36 10 2 4-7 8-18 13-14 11-15 12-18 13-17 13-18 13-16 11-7 6 5 6 11 9 9 9 7 8 25 25 7 8 9 9 8 7 14 15 1 4-4 6-27 27-7 8-8 8-5 4-7 9-7-6-11-10-8-7-66-66-10-7-4 2-14 19-10 13-28 38-12 16-28 38-4 3h-2l-7-29-10-36-13-49-10-37-12-42-16-64-5-15-1-2-6 24-10 37-7 24-5 27-3 3-6 1-3-2-2-21-6-23-8-32-7-32-2-16-5 5-11 14-14 15-38 38-8 7-9 12-9 7-3-1 7-15 10-39 12-45 9-28-10 2-21 7-30 9-21 5-26 7-14 5h-2l2-5 4-5h2l1-3 8-7 4-2 2-4 3-1 2-4 8-7 16-16 8-7 11-10 7-8 7-6 5-7-11-4-44-10-9-2-28-7-15-4-18-2-1-3 18-5 52-14 52-13 2-2-7-9-14-14-7-8-8-7-40-40-10-8-2-6 3-1 14 4 15 4 31 10 32 9 28 8 2 1-5-12-11-38-4-14-3-12-3-9-4-23-4-10-4-7 3-1 6 3 6 7 7 8 51 51 7 8 10 13 3 4 3-8 10-43 10-35 7-22v-10l-1-4z" fill="#222022"/>
<path transform="translate(556,2)" d="m0 0h49l45 2 61 5 60 5 68 7 50 7 47 8 38 8 37 10 30 10 23 10 20 10 13 9 10 10 8 14 1 3v12l-7 14-11 12-15 11-18 11-2 2 1 1 73 1v1l-66 2-48 1-381 2h-159l-131 1-25 1-5 3-3 7h-3l-2 61v85l1 3h313l1105 2-1-132-1-16-1-3h-2l-3-9 5 5 4 8 1 6 1 39v587l11-3 13-2h9l29 4 29 6 33 10 23 10 20 11 28 19 11 9 14 12 14 14 11 14 10 13 13 21 10 18 11 26 7 21 6 27 6 39 1 4-10 2-9-1-64 1-17 1v2h2l1 7-1 27-3 28-5 24-2 8v5l14 4 27 6 27 9h2l8-16 8-26 6-28 6-33 4-7h2l1-4 3-1-3 18-3 23-7 31-11 32-10 21-12 20-9 13-10 13-11 13-9 10-13 13-13 10-18 13-15 10-18 10-16 8-16 6-24 6-25 5-19 2h-10l-2 2-12 1-4-4-2-3-2 5h-5l2-6-1-3h-2l2 5-6 2-1-3-3 2 3 1v2l-10-2-15-2-30-7-24-8-21-9-20-11-12-8-21-16-15-13-15-15-9-11-11-14-12-18-15-25-10-26-7-23-3-14-621-1h-244l-191 1h-91l-11-1-5-2v-1h1317l74 1-4 2-34 2 2 19v5l38-1h37v-37l1-44h-22v15l-2 20h-1l-1-206v-34l1-174v-378l1-2-5 1h-1040l-162 2h-123l-57-1-29-1-4-1v772l1 19 1 8-3-4-2-11-1-21v-60l-10-2-27-5-47-7-46-8-37-8-37-10-23-7-21-8-19-9-15-10-14-13-7-10-3-8 1-9 6-11 11-12 7-7 13-9 17-10 8-5h2v-2l-5-1-16-7-16-10-12-11-8-9-8-14-1-6 4-10 8-11 13-13 13-10 13-8 16-8-26-12-14-9-10-9-5-5-7-8-5-11 1-8 7-12 18-18 14-10 21-12 5-3-16-7-13-7-11-8-13-12-8-10-4-10v-7l6-12 9-10 7-8 14-11 13-8 14-7-9-6-18-10-14-11-8-8-5-4-7-10-3-7 1-8 6-11 14-15 10-8 13-8 22-11-4-3-16-8-12-7-13-10-10-9-7-10-3-7v-8l7-14 10-11 4-5 8-7 13-10 18-10 5-2v-2l-12-3-16-8-13-10-14-13-7-10-3-10 1-8 7-11 12-13 15-11 16-9 12-6h2v-2l-6-2-16-9-12-8-10-8-16-16-5-10-1-7 7-14 12-14 12-11 14-9 19-10 24-9 34-10 54-12 44-8 39-6 72-8 62-5 81-5 45-2zm89 5 1 2zm2 0 1 3zm5 0 4 1zm-35 1m33 0m-13-1-16 1v1h-14l-34-1h-26l-54 2-60 3-78 6-87 9-39 6-54 10-39 9-30 9-26 9-23 10-16 10-11 9-10 11-7 14v10l6 9 10 10 14 10 21 12 14 6h8l54-15 34-8 57-10 49-7 44-5 59-5 38-4 41-2h183l40 2 58 5 63 6 60 7 55 8 42 8 47 11 27 7 9 1 16-7 13-7 11-8 10-8 9-10 6-12-1-8-5-10-11-12-14-10-16-8-15-7-29-11-30-9-42-10-49-9-40-6-66-8-57-5-63-4-27-1-6-1 4-1v-2zm-172 124-30 1-50 4-85 8-64 9-67 12-44 11-25 8-5 1v2l13 6 19 5 42 9 41 8 59 10 24 3h15l3-2 2-17 4-11 9-10 5-2 16-1 77-1h586l7-1v-2l-16-6-36-8-35-7-49-8-64-8-53-5-73-6-38-2zm-387 60-10 3-23 12-11 8-10 9-7 10-4 9v8l5 10 11 12 14 9 25 13 7 3h12l49-14 54-11 66-11 21-3 28-3 6-2v-18l-1-1-43-5-65-11-51-10-38-9-19-6-13-2zm232 68-19 2-30 4-75 13-41 9-30 7-23 5-2 2 16 6 24 7 36 9 50 10 67 11 11 2v2l7 1 3-1h6l1-89zm-228 46 4 2 4-1zm9 2m-27 2m-2 1m9 0-16 8-14 9-12 11-10 12-5 10-1 9 5 10 12 13 14 9 23 12 10 5h8l21-7 50-12 41-8 50-9 29-3 28-2 6-1v-20l-6-2-31-6-64-10-44-8-34-8-35-9-13-3zm-11 1m-2 1m-2 1m-1 1m64 1m3 1 4 2 37 9 16 3h7v-1l-37-8-22-5zm64 14v1h5v-1zm5 1v1h6v-1zm7 1 4 1zm7 1m82 13m21 3m0 31-16 2-45 5-72 13-48 11-18 5-12 3-8 1 2 2 17 7 50 12 35 7 38 7 26 4 50 5h3v-84zm-229 46-13 5-19 10-11 8-10 9-9 11-4 8-1 9 7 11 12 12 13 9 18 10 12 6h15l25-8 40-10 57-11 92-14 7-2v-21l-21-2-36-3-32-5-44-8-40-9-30-8-20-6zm230 67-26 5-44 7-28 5-59 12-26 6-31 9-1 2 20 8 42 10 60 12 62 11 14 3 18 1v-91zm-233 52-12 5-17 9-11 8-9 8-9 12-4 8-1 10 6 10 11 12 15 10 22 12 8 4h12l27-9 44-10 46-9 41-7 20-4 15-2 30-2 1-16-1-6-18-1-48-7-43-7-56-12-44-12-16-4zm-11 1m241 69-35 3-95 18-37 8-38 10-10 2 4 3 18 7 58 14 53 10 56 8 25 5h5v-88zm-228 47-23 11-16 10-13 11-9 12-4 8v10l6 9 11 12 10 7 28 15 8 4h9l17-5 15-5 38-9 42-8 41-7 60-7 12-2v-19l-5-2-27-5-52-7-50-9-44-10-49-14zm231 70-23 4-48 6-54 9-46 10-29 8-16 5v2l13 4 42 11 43 10 56 10 43 5 20 2 1-62v-24zm-229 47-21 9-18 11-14 12-9 11-5 10v8l6 10 8 10 10 9 25 14 9 4 4 1h12l17-4 24-7 38-9 35-7 79-13 28-4 2-1v-24l-2 1h-16l-37-3-39-6-38-7-35-8-58-16zm1693 59m2 1m9 2 4 5 11 8 24 16 14 10 15 13 31 31 10-2 44-11 2-2-13-11-18-13-15-9-21-11-20-8-27-9-19-5-15-2zm-10 1 1 6 7 16 12 21 16 35 6 14 4 2 44-7 12-3-6-8-16-16-8-7-12-10-12-9-18-13-14-10-11-8zm9 2m-47 1v22l1 9h2l5-10 9-6-3-7 1-3 6-1 2-1-1-3zm48 0m-20 2-3 9v17l1 10 1 54 1 1h11l34-2-5-15-13-30-21-39-4-5zm-1455 0-13 3-82 15-64 13-44 11-15 3-2 2 11 4 16 5 23 6 39 9 57 10 49 8 21 4h5v-93zm1445 6-1 4h2l1-3zm0 8-10 9-6 11-2 10-1 30v15l1 1 19 1 3-1v-48l-2-26zm-1680 39-20 9-15 10-13 11-9 12-4 10v7l4 8 9 11 10 8 16 9 17 8 27 10 47 13 35 8 56 10 46 7 26 5h4l1-81v-28l-1-2-27-5-64-10-49-9-52-12-22-6-17-3zm1867 12-16 7-37 9 4 7 11 16 14 24 9 20 6 15 9-1 36-8 27-7-1-6-16-27-14-19-11-13-10-11-7-5zm-64 19-55 10-1 3 14 40 10 38 1 2h9l65-9 7-2-4-11-8-16-12-23-13-21-6-8-2-2zm-67 9-47 3v36l1 48h35l39-1 1-3-9-36-8-24-8-20zm-74 3v83l8 1h14v-84zm269 53v2l-11 3-21 6-37 8-2 1 2 9 5 15 3 25 3 44 1 1h87l1-2-3-24-7-37-6-22-8-21-5-8zm-86 24-42 6-25 4-3 1 3 30 2 47 1 3h84v-19l-2-31-3-20-6-20-1-1zm-183 13-1 80 1 1h13l9-1v-80zm87-1-59 1-1 1v46l1 33h30l52-1 2-1v-24l-1-25-3-24-3-5-2-1zm218 76 1 2zm-189 6 1 2 2 6-2 29-5 48 12 3 36 6 22 3h9l6-21 4-26 2-18 1-15v-15l2 1 1 6h2v-7l-1-2zm-8 2-23 2h-57l-1 1 1 80h77l3-14 3-31 1-16v-19h-2l1-3zm-350 59 1 4 14 40 6 14 5 1 34-10 31-7 3-1-1-10-4-18-2-13zm101 0-9 1 4 18 4 17 1 1 14-1 63-9 3-1v-9l-1-10 2-3v-3l-3-1zm122 30-35 1 6 15 12 39 7 21 4 9 4 1 39-1 3-1v-84zm130 0-2 5-7 28-16 47-1 5 50 9 10 1 8-9 11-18 13-23 12-24 3-7-6-2-39-6-33-6zm-51 0-32 1-1 9v75h49l5-8 12-36 7-25 3-15-12-1zm-127 2-28 4-44 7-2 2 10 19 8 16 13 24 8 12 5 7 5 3 12-2 20-4 21-3 7-2-2-9-5-12-12-39-7-22-1-1zm-81 11m1 1-8 3-30 7-21 6-11 3 4 10 10 17 10 14 11 14 12 13 9 10 11 8 11 10 21 14 29 15 24 11 30 10 12 3 4 3h17l8 1 2-2-15-8-20-14-19-13-13-10-10-9-8-7-9-10-8-9-6-3-2 1-1-3-1 4-10 3-15 4-21 5 1-3 10-5 25-6 10-3-1-6-10-16-12-22-12-25-6-14zm344 2-5 10-5 12-11 22-16 27-6 8 3 3 20 6 15 4 11 5-2 4-6-1-9-3-21-6-17-6-7 6-7 8-11 12-13 12-11 9-17 13-16 10-20 15v2l6-1 4-2 39-8 27-9 25-12 18-11 22-15 12-9 11-9 10-9 10-11 9-11 12-15 14-22 4-9-1-3-10-1-27-8zm-202 74-18 1 9 19 13 28 11 20 9 11 3 3-1-82zm79-3-1 3h-46l-1 66v20l4 2 7-10 14-26 8-16 12-26 4-11zm8 3-4 8-7 17-10 20-12 22-12 21-2 5 5-2 4-3 9-4 18-13 19-14 13-11 14-12 15-14 7-8 2-4h-9l-47-8zm-113 0-1 1-25 3-32 6 6 9 12 12 8 7 13 11 19 14 22 14 10 7 13 8 1-2h-2l1-5-7-14-9-15-8-16-16-33-4-7zm-74 64m2 1m2 1m2 1m2 1m2 1m2 1m2 1 2 2 3-1zm5 2m2 1m2 1m2 1m3 1m3 1m2 1m6 2m6 2m74 3m1 1m0 5m54 1m-2 1m-81 1 4 1zm5 1m3 1m40 0v3h2v-3z" fill="#292729"/>
<path transform="translate(658,466)" d="m0 0 2 3 7 26 7 25 8 37 6 21v2l5-3 18-18 9-11 9-9 7-8 14-15 9-10 7-8 5-3-1 8-8 32-10 35-10 36-2 4 42-12 18-5 13-4 17-5 15-6 12-1-3 5-8 7-10 10-8 7-32 32-8 7-15 16-2 3 4 2 18 3 69 17 19 7 2 2-9 3-12 3-25 5-44 11-13 5h-2v2l4 2 15 16 7 7 8 7 10 10 8 7 35 35 7 8-4 1-18-8h-8l-21-7-38-10-17-5-13-5-4-3 9 36 8 28 7 26 7 31 2 9-4-2-7-7-6-8-12-11-12-14-11-12-7-8-11-11-7-8-10-7-3-4v-5h3l8 8 8 7 18 18v2h2v2l4 2 1 3h2l3 3v2h2l7 8 11 14 6 7 2 1-2-16-5-19-5-21-7-23-8-31 2-5 4 1 4 3 19 5 31 8 24 6 9 5v2l12 1 3 1-2-6-9-11-8-7-15-14-8-7-28-28-6-8-11-4-38-10-10-2-3-3-1-10-1-38-3-14-1-2-3-1-22-1h-61l-11 1-3 17v75l2 7 4 3 12 2 48 1 3 7 7 31 7 21 2 5-1 2-6-1-2 15-7 31-8 31-4 12-4 9v9l-2 2-1-9-6-18-15-66-5-18v-2l-7 1-8 8-7 8-9 10-15 16-13 13-7 8-11 12-5 3h-2l1-10 13-50 11-37 5-15-15 5-38 10-40 12-16 5-3-1 10-13 7-7 8-7 46-46 9-7-2-2-18-6-52-12-31-6-11-3 4-3 16-6 44-11 9-2 20-5 18-5h2l-1-4-4-2-11-12-7-8-21-21-7-8-31-31v-1l8 1 56 18 40 11 11 1-6-16-10-35-8-26-6-19-1-13 4 2 6 5 7 8 6 5 19 19 7 8 16 17 7 8 4 5 3 4 3 1 3-9 6-22 9-39 7-25z" fill="#FCFCFC"/>
<path transform="translate(1725,193)" d="m0 0 5 5 4 8 1 6 1 39v587l11-3 13-2h9l29 4 29 6 33 10 23 10 20 11 28 19 11 9 14 12 14 14 11 14 10 13 13 21 10 18 11 26 7 21 6 27 6 39 1 4-10 2-9-1-64 1-17 1v2h2l1 7-1 27-3 28-5 24-2 8v5l14 4 27 6 27 9h2l8-16 8-26 6-28 6-33 4-7h2l1-4 3-1-3 18-3 23-7 31-11 32-10 21-12 20-9 13-10 13-11 13-9 10-13 13-13 10-18 13-15 10-18 10-16 8-16 6-24 6-25 5-19 2h-10l-2 2-12 1-4-4-2-3-2 5h-5l2-6-1-3h-2l2 5-6 2-1-3-3 2 3 1v2l-10-2-15-2-30-7-24-8-21-9-20-11-12-8-21-16-15-13-15-15-9-11-11-14-12-18-15-25-10-26-7-23-3-14-621-1h-244l-191 1h-91l-11-1-5-2v-1h1317l74 1-4 2-34 2 2 19v5l38-1h37v-37l1-44h-22v15l-2 20h-1l-1-206v-34l1-174v-378l1-2-5 1h-622l-316-1-94-1-8-1v-1l7-1 24-1v-1h1013l-1-132-1-16-1-3h-2zm48 645m2 1m9 2 4 5 11 8 24 16 14 10 15 13 31 31 10-2 44-11 2-2-13-11-18-13-15-9-21-11-20-8-27-9-19-5-15-2zm-10 1 1 6 7 16 12 21 16 35 6 14 4 2 44-7 12-3-6-8-16-16-8-7-12-10-12-9-18-13-14-10-11-8zm9 2m-47 1v22l1 9h2l5-10 9-6-3-7 1-3 6-1 2-1-1-3zm48 0m-20 2-3 9v17l1 10 1 54 1 1h11l34-2-5-15-13-30-21-39-4-5zm-10 6-1 4h2l1-3zm0 8-10 9-6 11-2 10-1 30v15l1 1 19 1 3-1v-48l-2-26zm187 51-16 7-37 9 4 7 11 16 14 24 9 20 6 15 9-1 36-8 27-7-1-6-16-27-14-19-11-13-10-11-7-5zm-64 19-55 10-1 3 14 40 10 38 1 2h9l65-9 7-2-4-11-8-16-12-23-13-21-6-8-2-2zm-67 9-47 3v36l1 48h35l39-1 1-3-9-36-8-24-8-20zm-74 3v83l8 1h14v-84zm269 53v2l-11 3-21 6-37 8-2 1 2 9 5 15 3 25 3 44 1 1h87l1-2-3-24-7-37-6-22-8-21-5-8zm-86 24-42 6-25 4-3 1 3 30 2 47 1 3h84v-19l-2-31-3-20-6-20-1-1zm-183 13-1 80 1 1h13l9-1v-80zm87-1-59 1-1 1v46l1 33h30l52-1 2-1v-24l-1-25-3-24-3-5-2-1zm218 76 1 2zm-189 6 1 2 2 6-2 29-5 48 12 3 36 6 22 3h9l6-21 4-26 2-18 1-15v-15l2 1 1 6h2v-7l-1-2zm-8 2-23 2h-57l-1 1 1 80h77l3-14 3-31 1-16v-19h-2l1-3zm-350 59 1 4 14 40 6 14 5 1 34-10 31-7 3-1-1-10-4-18-2-13zm101 0-9 1 4 18 4 17 1 1 14-1 63-9 3-1v-9l-1-10 2-3v-3l-3-1zm122 30-35 1 6 15 12 39 7 21 4 9 4 1 39-1 3-1v-84zm130 0-2 5-7 28-16 47-1 5 50 9 10 1 8-9 11-18 13-23 12-24 3-7-6-2-39-6-33-6zm-51 0-32 1-1 9v75h49l5-8 12-36 7-25 3-15-12-1zm-127 2-28 4-44 7-2 2 10 19 8 16 13 24 8 12 5 7 5 3 12-2 20-4 21-3 7-2-2-9-5-12-12-39-7-22-1-1zm-81 11m1 1-8 3-30 7-21 6-11 3 4 10 10 17 10 14 11 14 12 13 9 10 11 8 11 10 21 14 29 15 24 11 30 10 12 3 4 3h17l8 1 2-2-15-8-20-14-19-13-13-10-10-9-8-7-9-10-8-9-6-3-2 1-1-3-1 4-10 3-15 4-21 5 1-3 10-5 25-6 10-3-1-6-10-16-12-22-12-25-6-14zm344 2-5 10-5 12-11 22-16 27-6 8 3 3 20 6 15 4 11 5-2 4-6-1-9-3-21-6-17-6-7 6-7 8-11 12-13 12-11 9-17 13-16 10-20 15v2l6-1 4-2 39-8 27-9 25-12 18-11 22-15 12-9 11-9 10-9 10-11 9-11 12-15 14-22 4-9-1-3-10-1-27-8zm-202 74-18 1 9 19 13 28 11 20 9 11 3 3-1-82zm79-3-1 3h-46l-1 66v20l4 2 7-10 14-26 8-16 12-26 4-11zm8 3-4 8-7 17-10 20-12 22-12 21-2 5 5-2 4-3 9-4 18-13 19-14 13-11 14-12 15-14 7-8 2-4h-9l-47-8zm-113 0-1 1-25 3-32 6 6 9 12 12 8 7 13 11 19 14 22 14 10 7 13 8 1-2h-2l1-5-7-14-9-15-8-16-16-33-4-7zm-74 64m2 1m2 1m2 1m2 1m2 1m2 1m2 1 2 2 3-1zm5 2m2 1m2 1m2 1m3 1m3 1m2 1m6 2m6 2m74 3m1 1m0 5m54 1m-2 1m-81 1 4 1zm5 1m3 1m40 0v3h2v-3z" fill="#2A282A"/>
<path transform="translate(620,639)" d="m0 0h61l22 1 4 2 3 9 1 7 1 38 1 10 2 2 30 7 25 7 6 4 8 10 30 30 8 7 10 9 11 10 7 10 1 5-16-3v-2l-4-1-8-4-37-9-25-7-9-2-5-4h-3l-1 4 11 42 6 19 6 25 3 12v12l-4-2-11-13-6-8-5-5v-2h-2v-2l-3-1v-2h-2l-5-5v-2h-2l-7-8-17-17-8-7-4-3 1 7 5 4 3 3h-6l-3-4-2 1-6 24-10 37-7 24-5 27-3 3-6 1-3-2-2-21-6-23-8-32-7-32-1-13 1-9h2l5 16 14 61 4 16 4 11 1 7v-9l6-14 10-38 7-31 3-15 6 1-1-6-3-8-6-17-7-31-1-4h-48l-12-2-6-5-1-6v-75l3-17 1-1z" fill="#242224"/>
<path transform="translate(556,2)" d="m0 0h49l45 2 61 5 60 5 68 7 50 7 47 8 38 8 37 10 30 10 23 10 20 10 13 9 10 10 8 14 1 3v12l-7 14-11 12-15 11-18 11-2 2 1 1 73 1v1l-66 2-48 1-381 2h-159l-131 1-25 1-5 3-3 7h-3l-2 61-1 65h-1v-78h-1l-1-15-43-5-65-11-51-10-38-9-19-6-13-2-11 2-25 13-11 8-10 9-8 13-2 5v8l5 10 10 11 14 9 25 13 7 3h12l49-14 54-11 66-11 21-3h6l1 1 20 1v2l-30 3-77 13-48 10-34 8-23 5 10 5 28 8 36 9 50 10 67 11 15 3-1 2 7-1 6 1v-81h1v84h-2v2h-2v2l-12-2-35-6-62-10-33-6-34-8-35-9-13-3h-12l-16 8-14 9-12 11-9 11-5 10-2 9-2 2 1 5-5-4h-2l-1-3v-8l7-14 10-11 4-5 8-7 13-10 18-10 5-2v-2l-12-3-16-8-13-10-14-13-7-10-3-10 1-8 7-11 12-13 15-11 16-9 12-6h2v-2l-6-2-16-9-12-8-10-8-16-16-5-10-1-7 7-14 12-14 12-11 14-9 19-10 24-9 34-10 54-12 44-8 39-6 72-8 62-5 81-5 45-2zm89 5 1 2zm2 0 1 3zm5 0 4 1zm-35 1m33 0m-13-1-16 1v1h-14l-34-1h-26l-54 2-60 3-78 6-87 9-39 6-54 10-39 9-30 9-26 9-23 10-16 10-11 9-10 11-7 14v10l6 9 10 10 14 10 21 12 14 6h8l54-15 34-8 57-10 49-7 44-5 59-5 38-4 41-2h183l40 2 58 5 63 6 60 7 55 8 42 8 47 11 27 7 9 1 16-7 13-7 11-8 10-8 9-10 6-12-1-8-5-10-11-12-14-10-16-8-15-7-29-11-30-9-42-10-49-9-40-6-66-8-57-5-63-4-27-1-6-1 4-1v-2zm-172 124-30 1-50 4-85 8-64 9-67 12-44 11-25 8-5 1v2l13 6 19 5 42 9 41 8 59 10 24 3h15l3-2 2-17 4-11 9-10 5-2 16-1 77-1h586l7-1v-2l-16-6-36-8-35-7-49-8-64-8-53-5-73-6-38-2zm-383 174 4 2 4-1zm9 2m-27 2m-2 1m-2 1m-2 1m-2 1m-1 1m64 1m3 1 4 2 37 9 16 3h7v-1l-37-8-22-5zm64 14v1h5v-1zm5 1v1h6v-1zm7 1 4 1z" fill="#2D2B2D"/>
<path transform="translate(313,348)" d="m0 0 2 3h313l495 1v1l-394 1v1l-33 1 1 1 94 1 316 1v1h-418l-162 2h-123l-57-1-29-1-4-1v772l1 19 1 8-3-4-2-11-1-21v-60l-10-2-27-5-47-7-46-8-37-8-37-10-23-7-21-8-19-9-15-10-14-13-7-10-3-8 1-9 6-11 11-12 7-7 13-9 17-10 8-5h2v-2l-5-1-16-7-16-10-12-11-8-9-6-10 1-3 2-2 2-7h1l1 7 7 11 8 10 12 10 26 14 9 3h12l17-4 24-7 38-9 35-7 79-13 30-4-1-23-1 1h-16l-37-3-39-6-38-7-35-8-58-16-5-2 3-2 7-1 1-2h2v2l8 1 12 4 40 10 38 9 56 10 43 5 19 2 1-61v-22h2v-356zm-4 499-13 3-82 15-64 13-44 11-15 3-2 2 11 4 16 5 23 6 39 9 57 10 49 8 21 4h5v-93zm-235 53-20 9-15 10-13 11-9 12-4 10v7l4 8 9 11 10 8 16 9 17 8 27 10 47 13 35 8 56 10 46 7 26 5h4l1-81v-28l-1-2-27-5-64-10-49-9-52-12-22-6-17-3z" fill="#2A292B"/>
<path transform="translate(1363,643)" d="m0 0h65l8 2 3 6 2 20v43l-2 20-2 4-5 3-14 3h-60l-12-3-6-5-3-8-1-11v-42l3-28 5-2z" fill="#FDFDFD"/>
<path transform="translate(1e3 643)" d="m0 0h56l12 3 4 5 2 13v67l-2 5-6 5-6 2-8 1h-54l-18-2-6-3-2-6-2-24v-39l1-19 1-4 6-2z" fill="#FDFDFD"/>
<path transform="translate(620,639)" d="m0 0h61l22 1 4 2 3 9 1 7 1 38 1 13-1 2h-2l-5-5-14-4-28-6h-2v6l6 17 3 13v7l-4 6h-51l-6-3-3-3-1-6v-75l3-17 1-1z" fill="#232123"/>
<path transform="translate(654,447)" d="m0 0 5 1 3 7 12 41 14 54 4 21 9-7 4-6h2l2-5 1 2 5-4 3 1-15 16-12 12h-3l-5-16-7-29-5-22-8-29-4-15-2 3-10 35-9 38-6 24-5 12-4-1-3-4v-2l-3-1-2-5-3-1-7-8-15-16-12-13-10-9-18-18-5-4 3 17 13 41 10 35 5 13v3h-11l-43-12-56-18h-4l37 37 7 8 21 21 7 8 6 7 3 3v2l-8 3-32 8-15 4-30 7-20 6-6 3v1l25 5 28 6 39 9 18 6 3 3-14 12-48 48-8 7-10 13 12-3 32-10 44-12 15-4 8-2-1 7-8 24-15 55-6 26 9-6 14-15 7-8 16-16 7-8 14-15 7-8 5-4h3v10h-2v-3l-5 5-11 14-14 15-38 38-8 7-9 12-9 7-3-1 7-15 10-39 12-45 9-28-10 2-21 7-30 9-21 5-26 7-14 5h-2l2-5 4-5h2l1-3 8-7 4-2 2-4 3-1 2-4 8-7 16-16 8-7 11-10 7-8 7-6 5-7-11-4-44-10-9-2-28-7-15-4-18-2-1-3 18-5 52-14 52-13 2-2-7-9-14-14-7-8-8-7-40-40-10-8-2-6 3-1 14 4 15 4 31 10 32 9 28 8 2 1-5-12-11-38-4-14-3-12-3-9-4-23-4-10-4-7 3-1 6 3 6 7 7 8 51 51 7 8 10 13 3 4 3-8 10-43 10-35 7-22v-10l-1-4z" fill="#363537"/>
<path transform="translate(1317,30)" d="m0 0h362l40 2 16 2 23 7 27 13 22 14 13 11 19 19 11 14 9 13 12 22 8 19 6 21 3 19 2 23 1 23 1 47v233l-1 116-2-4-1-4v26l5 2 5 4 2 4v9l-5 4-5 1h-11l-5-3-1-3v-8l3-5 6-4v-409l-2-40-3-27-4-17-8-22-11-21-8-12-11-14-15-16-11-9-9-7-15-10-14-8-16-7-16-5-24-4-31-2h-421l-5-1 1-4 10-1zm571 606 1 2z" fill="#8C8B8C"/>
<path transform="translate(1725,193)" d="m0 0 5 5 4 8 1 6v167h-1v-20l-5 1h-622l-316-1-94-1-8-1v-1l7-1 24-1v-1h1013l-1-132-1-16-1-3h-2z" fill="#0C0B0D"/>
<path transform="translate(171,1198)" d="m0 0 6 2 8 13 10 17 12 17 11 12 14 14 14 11 16 10 21 11 24 9 16 4 14 1 31 1h927l7 1 4 2-1 1-29 3h-281l-650-1-21-1-20-4-18-6-16-8-16-9-16-11-15-13-18-18-13-18-15-24-7-13z" fill="#0B0A0C"/>
<path transform="translate(1017,181)" d="m0 0 44 1 3 1 73 1v1l-66 2-48 1-381 2h-159l-131 1-25 1-5 3-3 7h-3l-2 61-1 65h-1v-78h-1l-1-15-43-5-65-11-51-10-35-8-1-4v-1l3-1 46 10 46 9 59 10 24 3h15l2-1 2-17 4-11 9-10 6-3 16-1 77-1h593z" fill="#4F4E4F"/>
<path transform="translate(556,2)" d="m0 0h49l45 2 61 5 60 5 68 7 50 7 47 8 38 8 37 10 30 10 23 10 20 10 13 9 10 10 8 14 1 3v12l-7 14-11 12-11 8-14 2 4-4 12-8 11-10 7-10 3-7-1-8-5-10-10-11-14-10-16-8-15-7-29-11-30-9-42-10-49-9-40-6-66-8-57-5-63-4-48-2v-1l18-1 1-2-7 1-13 1v1h-17l-34-1h-26l-54 2-60 3-78 6-60 6h-8v-1l10-2-32 2h-11v-1l70-8 57-5 78-5 63-3zm89 5 1 2zm2 0 1 3zm5 0 4 1z" fill="#2D2C2E"/>
<path transform="translate(313,348)" d="m0 0 2 3h313l495 1v1l-394 1v1l-33 1 1 1 94 1 316 1v1h-418l-162 2h-123l-57-1-29-1-4-1-1 557h-1v-181l-2-1h2v-356z" fill="#46474A"/>
<path transform="translate(58,644)" d="m0 0 17 8 13 1v2l25 10 58 14 53 10 56 8 25 5-4 1v2h3v2l-9-1-25-4-49-7-45-8-44-10-49-14-8 1-20 10-16 10-13 11-8 11-4 8v10l6 9 11 12 14 9 31 16h9l17-5 15-5 38-9 42-8 41-7 60-7 12-1v-16h1l1 22-1-2-12 3-30 4-31 4-54 9-46 10-29 8-13 4h-5l-1 3-10 1v2l-21 9-18 11-14 12-8 10-5 10-1 7h-1l-1-6-1 9h-5l-2-8 4-10 8-11 13-13 13-10 13-8 16-8-26-12-14-9-10-9-5-5-7-8-5-11 1-8 7-12 18-18 14-10 21-12 5-3-2-1v-2l-5-2-5-7z" fill="#29282A"/>
<path transform="translate(277,257)" d="m0 0h6l1 1 20 1v2l-30 3-77 13-48 10-34 8-23 5 10 5 28 8 36 9 50 10 67 11 15 3-1 2 7-1 6 1v-81h1v84h-2v2h-2v2l-12-2-35-6-62-10-33-6-34-8-35-9-13-3h-12l-16 8-14 9-12 11-9 11-5 10-2 9-2 2 1 5-5-4h-2l-1-3v-8l7-14 10-11 4-5 8-7 13-10 18-10 5-2v-2l-12-3-16-8-7-5 3-3 13 6 5 1 10 5 8 2 2 1h12l49-14 54-11 66-11zm-195 48 4 2 4-1zm9 2m-27 2m-2 1m-2 1m-2 1m-2 1m-1 1m64 1m3 1 4 2 37 9 16 3h7v-1l-37-8-22-5zm64 14v1h5v-1zm5 1v1h6v-1zm7 1 4 1z" fill="#2D2C2E"/>
<path transform="translate(780,477)" d="m0 0h2l-1 6-12 45-14 56-6 18h3l41-13 41-12 26-7 8-2h7l-2 4-9 8-8 7-60 60-9 7-5 7 17 4 55 13 49 14 3 2-1 3-5 1h-11l-4-1h-6l3-2-8-4-20-6-65-16-17-3-2-2 7-8 14-15 13-12 30-30 8-7 14-14-11 1-21 8-24 7-56 16h-4l3-11 17-61 6-23 4-15v-4l-9 8-8 10-11 11-7 8-14 15-3 3-5 3-3 1 2-5 4-5h2l2-4 6-7 7-6 7-8 5-6 22-22 3-1 2-4 4-7h2v-2z" fill="#343335"/>
<path transform="translate(500,760)" d="m0 0 2 2-3 4-3 1v3h-2v2l-2 1-1 4-8 8-8 7-10 13 12-3 32-10 44-12 15-4 8-2-1 7-8 24-15 55-6 26 9-6 14-15 7-8 16-16 7-8 14-15 7-8 5-4h3v10h-2v-3l-5 5-11 14-14 15-38 38-8 7-9 12-9 7-3-1 7-15 10-39 12-45 9-28-10 2-21 7-30 9-21 5-26 7-14 5h-2l2-5 4-5h2l1-3 8-7 4-2 2-4 3-1 2-4 8-7 16-16z" fill="#333234"/>
<path transform="translate(2044,1119)" d="m0 0 1 2-2 8-4 31-7 31-11 32-10 21-12 20-9 13-10 13-11 13-9 10-13 13-13 10-18 13-15 10-18 10-16 8-16 6-24 6-19 4h-10l2-2 10-2 8-1-4-2 1-2 19-4 24-8 25-12 18-11 22-15 12-9 11-9 10-9 9-10 9-11 12-15 14-22 4-9 1-5 4-4 7-16 8-27 5-24 6-33 4-7h2l1-4z" fill="#282628"/>
<path transform="translate(556,2)" d="m0 0h49l45 2 61 5 11 1v1l-8 1 8 2v1h-16l-33-2-48-2v-1l18-1 1-2-7 1-13 1v1h-17l-34-1h-26l-54 2-60 3-78 6-60 6h-8v-1l10-2-32 2h-11v-1l70-8 57-5 78-5 63-3zm89 5 1 2zm2 0 1 3zm5 0 4 1z" fill="#4A4B4D"/>
<path transform="translate(1200,1218)" d="m0 0 6 1 5 6 11 20 11 16 9 11 13 13 18 13 19 10 11 4 8 4 5 2 1 1h30l10 1 3 2-1 5-26 4-26 5-18 7-16 9-13 10-18 18-11 14-7 10-9 15-9 16-4 6-1-3 5-16 10-19 10-14 11-14 19-19 15-11 24-15 14-7-20-8-9-6-14-8-16-12-17-17-11-15-8-13-11-19zm115 102m-3 1m-11 12-8 3 4 1 6-3z" fill="#272527"/>
<path transform="translate(1377,637)" d="m0 0h44l15 2 6 3 4 15 2 21v41l-2 12-4 9-5 4-11 4-22 2h-28l-26-2-9-3-5-5-4-8-2-11-1-19v-19l2-23 3-14 3-5 10-2zm-14 6-19 2-5 2-3 28v42l2 15 4 6 6 4 10 2h60l16-4 4-4 2-8 1-14v-43l-2-20-3-6-8-2z" fill="#373637"/>
<path transform="translate(1009,637)" d="m0 0h50l12 3 5 5 4 10 2 19v41l-2 15-3 9-4 5-7 4-7 1-19 1h-21l-23-1-17-2-7-3-3-4-3-16v-56l2-21 2-5 12-3zm-8 6-22 2-6 2-1 4-1 19v39l2 24 3 7 5 2 18 2h54l12-2 6-4 3-3 1-4v-67l-2-13-4-5-12-3z" fill="#383639"/>
<path transform="translate(1317,30)" d="m0 0h362l40 2 16 2 23 7 27 13 22 14 13 11h-3l-10-8-19-12-16-8-5-3-16-6-16-4-10-2-19-2-22-1h-123v1h27l3-1v2h2v-2h26l6 1 55 1v1l-417 1-5-1 1-4 10-1z" fill="#8C8B8C"/>
<path transform="translate(11,832)" d="m0 0h1l1 7 7 11 8 10 12 10 26 14 9 3h12l17-4 24-7 38-9 35-7 79-13 30-4-1 5-13 3-82 15-64 13-44 11-15 3-3 2h-15l-4-1v-2l-5-1-16-7-16-10-12-11-8-9-6-10 1-3 2-2z" fill="#282628"/>
<path transform="translate(1735,251)" d="m0 0h1v587l11-3 6-1h9v2l9 1 2 2 6 16 8 16 9 16 6 13-1 3-1-4h-2l-5-9-3-3-5-9-4-6v-2l-3-1-9-17-4-5-5-1-24-1 2 40-1 6-1 30v16h-2l-1-389v-187h1z" fill="#262426"/>
<path transform="translate(643,129)" d="m0 0h35l10 1 55 2 63 6 60 7 55 8 42 8 47 11 27 7 9 1 16-7 10-5 14-2-5 4-17 11-1 1h-45l-21-7-42-9-36-7-45-7-57-7-53-5-73-6-38-2v-1l-10-1z" fill="#19181A"/>
<path transform="translate(1779,839)" d="m0 0 6 3 10 8 14 10 20 13 14 11 13 12 27 27 10-2 40-10 6 2-4 3-13 5-33 8 15 22 14 24 9 20 3 7v5l-3-4-10-21 6 16-3 1-14-29-10-17-11-17-3-3-5-1-44 8-4-1-1-4-3-1 39-6 11-3-14-15-7-7-8-7-12-10-12-9-18-13-14-10-9-6v-3l2-1-4-3z" fill="#2A282A"/>
<path transform="translate(290,1311)" d="m0 0 5 1 22 7 16 2 50 2 779 1 3 2-16 1h-154l-650-1-21-1 4-2-20-4-17-6z" fill="#C2C2C2"/>
<path transform="translate(614,352)" d="m0 0h509v1l-394 1v1l-33 1 1 1 94 1 316 1v1h-418l-162 2h-123v-1l28-1 199-2-21-1-10-3v-1z" fill="#5C5B5C"/>
<path transform="translate(10,130)" d="m0 0h2l5 10 9 10 11 9 13 8 16 9 15 6 10 1 3 3 17 7 6 3-1 2-1 1 3 1-8-1-20-6-12-1-10 3-23 12-11 8-10 9-8 13-2 5v8l5 10 10 11 14 9 25 13-3 1-13-6-6-2-9-4-4 1-14-12-9-10-4-8-2-7 1-8 7-11 12-13 15-11 16-9 12-6h2v-2l-6-2-16-9-12-8-10-8-16-16-4-7 1-4 3 1z" fill="#282628"/>
<path transform="translate(628,807)" d="m0 0h2l5 16 14 61 4 16 4 11 1 7v-9l6-14 10-38 7-31 3-15 6 1 2-4 1 4 1 7 5 4 3 3h-6l-3-4-2 1-6 24-10 37-7 24-5 27-3 3-6 1-3-2-2-21-6-23-8-32-7-32-1-13z" fill="#525255"/>
<path transform="translate(661,695)" d="m0 0 16 3 26 6 6 4 1 1v27l-4 6-8 2-25 1-4-13-5-19-4-11v-6z" fill="#FDFDFD"/>
<path transform="translate(654,447)" d="m0 0 5 1 3 7 12 41 14 54 4 21 9-7 4-6h2l2-5 1 2 5-4 3 1-15 16-12 12h-3l-5-16-7-29-5-22-8-29-4-15-2 3-10 35-9 38-6 24-3 8-1-2-5-2 5-19 10-41 9-31 6-19v-10l-1-4z" fill="#333133"/>
<path transform="translate(411,247)" d="m0 0h9l9 3 7 6 2 5v15l-4 9-6 7-7 4h-7l-9-5-10-9-3-8v-11l5-9 7-5z" fill="#FDFDFD"/>
<path transform="translate(594,247)" d="m0 0h12l9 4 5 6 3 9v8l-3 9-9 10-6 3h-8l-10-7-8-8-2-5v-13l4-8 8-6z" fill="#FDFDFD"/>
<path transform="translate(310,267)" d="m0 0h1v84h-2v2h-2v2l-12-2-35-6-62-10-33-6-34-8-29-8-1-2-13-3-3-2-11-2 2-1v-2l3-1h8l13 2 26 8 40 10 50 10 67 11 15 3-1 2 7-1 6 1zm-228 38 4 2 4-1zm9 2m28 8m3 1 4 2 37 9 16 3h7v-1l-37-8-22-5zm64 14v1h5v-1zm5 1v1h6v-1zm7 1 4 1z" fill="#4E4E51"/>
<path transform="translate(506,246)" d="m0 0 9 1 9 6 5 8v16l-3 7-5 7-9 6-7-1-8-6-5-5-5-6-2-5v-12l4-6 8-7z" fill="#FDFDFD"/>
<path transform="translate(531,654)" d="m0 0 4 3v2l2 1-1 1 7 1v2l-8 3-32 8-15 4-30 7-20 6-6 3v1l25 5 28 6 39 9 18 6 3 3-14 12-38 38h-2l1-3h2v-2h2v-3l5-5 1-4 12-11 7-8 7-6 5-7-11-4-44-10-9-2-28-7-15-4-18-2-1-3 18-5 52-14 52-13 2-2-1-5z" fill="#1F1E20"/>
<path transform="translate(67,894)" d="m0 0h26l9 4v2l-13-1-1 2h-14l-20 9-15 10-13 11-9 13-3 8v7l4 8 9 11 9 7 16 9 17 8 16 6 4 3 14 5 12 5 10 3 1 2-9-1-28-8-27-10-19-9-15-10-14-13-7-10-3-8 1-9 6-11 11-12 7-7 13-9 17-10z" fill="#292729"/>
<path transform="translate(327,1171)" d="m0 0 972 1v1l-212 1h-462l-191 1h-91l-11-1-5-2z" fill="#454446"/>
<path transform="translate(1601,1171)" d="m0 0h43l74 1-4 2-34 2v10l-3 1-2-8 1-3h-90l1 6-4 2-2-4v-5h-87l5 12 4 13-2 2-6-12-2-1-3-14-403-1v-1l212-1z" fill="#0E0D0F"/>
<path transform="translate(1556,32)" d="m0 0h128l22 1 24 3 18 4 15 6 7 3 17 8 10 7 14 9 7 6 5 3 16 16 11 14 9 13 12 22 8 19 6 21 2 11v34h-2l-1-6-2-26-3-17-9-27-5-11v-2h-2v-4h-2l-2-4v-3h-2l-9-15-3-4v-2h-2l-7-9v-2l-3-1v-2h-2l-4-6-12-11-18-13-23-13-20-8-16-5-20-3-12-1-26-1-59-1-2-1h-19l-3-1-1 2v-2h-3v2h-2v-2l-2 2h-181v-1l15-1h133z" fill="#323133"/>
<path transform="translate(310,595)" d="m0 0h1v103h-1v-83l-4 1-35 3-95 18-37 8-38 10-11 2-4-3 1-2 27-9 44-10 46-9 41-7 20-4 15-2 30-1z" fill="#2A282A"/>
<path transform="translate(91,774)" d="m0 0h2v2l8 1 12 4 40 10 38 9 56 10 43 5 19 2v3l-1 1h-16l-37-3-39-6-38-7-35-8-58-16-5-2 3-2 7-1z" fill="#2C2B2D"/>
<path transform="translate(326,187)" d="m0 0 2 1-1 1 25 1v1l-25 1-5 3-3 7h-3l-2 61-1 65h-1v-78h-1l-1-15-43-5-65-11-51-10-35-8-1-4v-1l3-1 46 10 46 9 59 10 24 3h15l2-1 2-17 4-11 9-10z" fill="#4A4B4E"/>
<path transform="translate(310,494)" d="m0 0h1v100h-1l-1-5-17-1-48-7-43-7-56-12-11-3-2-2-7-4-3-3 4-1 39 9 51 10 62 11 14 3 18 2z" fill="#444548"/>
<path transform="translate(625,806)" d="m0 0h3v10h-2v-3l-5 5-11 14-14 15-38 38-8 7-9 12-9 7-3-1 7-15 10-39 11-41 3-1v5l3-1-4 16-11 42-2 10 9-6 14-15 7-8 16-16 7-8 14-15 7-8z" fill="#343234"/>
<path transform="translate(310,975)" d="m0 0h1l1 88-1 59h-1v-60l-10-2-27-5-47-7-46-8-37-8-19-5 1-2-21-7-18-8 2-1 18 6 41 11 31 7 56 10 46 7 30 6z" fill="#39383B"/>
<path transform="translate(304,376)" d="m0 0h5l-4 2-12 3-1 2-45 5-72 13-48 11-18 5-12 3-10 1-5-2 3-2 21-7 50-12 41-8 50-9 29-3z" fill="#2A292B"/>
<path transform="translate(556,2)" d="m0 0h49l45 2 61 5 11 1v1l-8 1 8 2v1h-16l-33-2-48-2v-1l18-1 1-2-7 1-13 1v1h-17l-34-1h-26l-54 2h-20v-2l39-2 14-1 1-2h-5v-1zm89 5 1 2zm2 0 1 3zm5 0 4 1z" fill="#8C8B8C"/>
<path transform="translate(37,281)" d="m0 0 13 6 5 1 10 5 8 2 2 1h12l7-1 3 2-6 1-1 3 5 1v2l-16-1h-3v2l13 3 2 2 10 2v3l-18-4h-12l-16 8-14 9-12 11-9 11-5 10-2 9-2 2 1 5-5-4h-2l-1-3v-8l7-14 10-11 4-5 8-7 13-10 18-10 5-2v-2l-12-3-16-8-7-5z" fill="#2B292B"/>
<path transform="translate(462,125)" d="m0 0h183l40 2 49 4v1h-22l-24-1-18-1v1h-181v-1h48v-2h-87l-13-1v-1z" fill="#1B1A1D"/>
<path transform="translate(171,1198)" d="m0 0 6 2 8 13 10 17 12 17 11 12 14 14 14 11 16 10 5 3 3 3 17 9 3 1 1 2 21 7 16 3 10 1v1h-21l-20-5-15-6-16-8-15-9-14-10-14-12-18-18-13-18-15-24-7-13z" fill="#2E2D2F"/>
<path transform="translate(500,240)" d="m0 0h14l10 4 7 6 5 10 1 3v14l-3 9-8 9-11 7h-12l-9-5-5-5-7-9-3-8-1-10 3-9 7-9 5-4zm6 6-9 3-10 9-2 4v12l4 8 5 6 11 8 7 1 6-4 5-5 5-7 1-4v-16l-6-9-8-5z" fill="#4E4E51"/>
<path transform="translate(412,240)" d="m0 0 13 1 10 5 7 9 3 8v14l-4 10-8 9-10 5h-13l-12-6-8-9-4-8-1-5v-7l3-10 4-6 7-6 7-3zm-1 7-9 3-5 4-5 9v11l4 9 9 8 9 5h7l9-6 6-8 2-6v-15l-3-6-6-5-9-3z" fill="#505153"/>
<path transform="translate(1519,1243)" d="m0 0 3 1 10 18 12 17 11 14 12 13 8 9 11 8 11 10 21 14 29 15 24 11 3 1v2l-11-1-2-1v-2l-9-3-9-4-6 2-17-9-12-8-21-16-15-13-15-15-9-11-11-14-3-5 1-2 3 3v2h3v-2h-2l-9-13-2-1v-4l-3-1-6-11z" fill="#2D2B2D"/>
<path transform="translate(531,477)" d="m0 0 7 2 14 16 51 51 7 8 10 13 4 6 4 2-1 6-4-1-3-4v-2l-3-1-2-5-3-1-7-8-15-16-12-13-10-9-18-18-5-4 3 17 2 6 2 12 2 16 1 2h-3l-5-16-2-9-3-9-4-23-4-10-4-7z" fill="#353436"/>
<path transform="translate(1929,1017)" d="m0 0h3l2 9 4 14 2 16 1 16 3 20 1 13 1-9h1l1 13h87l-3-25-6-32 1-8h2l4 15 3 17 3 4h1l4 27 1 4-10 2-9-1-64 1-17 1-1 2v-2h-46v-1l28-1 13-1-3-50-3-20-6-20-3-2zm112 91 1 2z" fill="#47484A"/>
<path transform="translate(594,240)" d="m0 0h12l9 3 8 6 5 8 2 7v11l-4 10-9 10-10 6h-11l-12-6-7-7-5-9-1-3v-15l5-10 8-7zm0 7-10 5-6 8-1 3v13l3 6 9 9 8 5h8l8-5 7-8 3-9v-8l-3-9-5-6-9-4z" fill="#4E4E51"/>
<path transform="translate(308,843)" d="m0 0h2l-1 5-13 3-71 13h-11l-14 3-16 2-12 2-1 1-19 3-28 7-12 2-14 3h-5l4-2 31-9 38-9 35-7 79-13z" fill="#47484A"/>
<path transform="translate(1282,1320)" d="m0 0h13l7 1 4 2-1 1-29 3h-127v-1l10-1-26-1v-1l-201-1v-1z" fill="#444548"/>
<path transform="translate(1200,1218)" d="m0 0 6 1 5 6 11 20 11 16 9 11 13 13 18 13 19 10 11 4 8 4 5 2 1 1h30l10 1 3 2v2l-15-1-38-1-18-7-9-6-14-8-16-12-17-17-11-15-8-13-11-19z" fill="#222123"/>
<path transform="translate(1023,59)" d="m0 0 7 1 28 11 26 13 13 9 10 10 8 14 1 3v12l-7 14-11 12-11 8-14 2 4-4 12-8 11-10 7-10 3-7-1-8-5-10-10-11-14-10-16-8-15-7-26-10 3-1 11 3 3-1-17-6z" fill="#535456"/>
<path transform="translate(311,735)" d="m0 0h1l2 396 1 19 1 8-3-4-2-11v-88l-1-110-10-1-1-3h-8v-3l14 1 5 1v-199z" fill="#29292C"/>
<path transform="translate(267,1298)" d="m0 0 6 2 17 8 27 9 20 2 31 1 564 1v1h-497v2h-52l-50-2-16-2-30-10-20-11z" fill="#282729"/>
<path transform="translate(444,567)" d="m0 0 16 4v2l5 1 4 3-7 1 37 37 7 8 21 21 7 8 6 7 2 1v2h-7v-3l-4-4-2 2-9-10-10-10-7-8-8-7-40-40-10-8-2-6z" fill="#313032"/>
<path transform="translate(780,477)" d="m0 0h2l-1 6-12 45-11 44-4 1 1-11 1-10 8-28 6-24v-4l-9 8-8 10-11 11-7 8-14 15-3 3-5 3-3 1 2-5 4-5h2l2-4 6-7 7-6 7-8 5-6 22-22 3-1 2-4 4-7h2v-2z" fill="#151416"/>
<path transform="translate(691,808)" d="m0 0 2 4 1 7 5 4 3 3h-6l-3-4-2 1-6 24-10 37-7 24-2 10-1-4h-4l-1 7 2 3v5h-2l1 3h-3l-2-8v-13h1l1 7v-9l6-14 10-38 7-31 3-15 6 1z" fill="#8A898A"/>
<path transform="translate(61,191)" d="m0 0 3 1-14 10 1 2-12 7-11 9-7 8-7 14v8l5 10 10 11 14 9 25 13-3 1-13-6-6-2-9-4-4 1-14-12-9-10-4-8-2-7 1-8 7-11 12-13 15-11 16-9z" fill="#292729"/>
<path transform="translate(1735,251)" d="m0 0h1v583h-1l-1-286h-1v-187h1z" fill="#5C5B5D"/>
<path transform="translate(83,65)" d="m0 0 7 1v2l-31 13-15 9-13 10-10 11-7 14-1 8-1-3h-2l-1 4-5-1-1-7 7-14 12-14 12-11 14-9 19-10 7 1 1-2z" fill="#2A282A"/>
<path transform="translate(1940,1116)" d="m0 0 3 1v6h2v-7h2l1 7-1 27-3 28-5 24-2 8-2-2-4 4-4-2 4-16 4-22 3-26z" fill="#48494C"/>
<path transform="translate(1494,1189)" d="m0 0 3 3 4 8 3 1 9 26 3 6 7-1 35-10 14-3 6 1h10l-3 2-34 8-21 6-10 3 1 4h-2l3 7 4 8 2 1v4l3 1 8 11v2h2v2h-3l-8-8-14-23-7-12-10-27-5-16z" fill="#302F31"/>
<path transform="translate(866,28)" d="m0 0 20 1 23 4 37 7 15 1 28 7 25 7 9 3v2l8 2 10 4-1 2-11-2-15-4-36-10-40-9-57-10-4-2-11-2z" fill="#2B2A2C"/>
<path transform="translate(531,654)" d="m0 0 4 3v2l2 1-1 1 7 1v2l-8 3-32 8-15 4-30 7-20 6-6 3-8 2h-16l-1-3 18-5 52-14 52-13 2-2-1-5z" fill="#171618"/>
<path transform="translate(1017,181)" d="m0 0 44 1 3 1 73 1v1l-66 2-48 1h-137v-1l83-1-101-1v-1l149-1z" fill="#555557"/>
<path transform="translate(1601,1171)" d="m0 0h43l30 1v1l-35 1h-552v-1l212-1z" fill="#212022"/>
<path transform="translate(1440,642)" d="m0 0h2l4 15 2 21v41l-2 12-4 9-5 4-11 4-12 1 4-2 7-1v-1l-7-1v-1l16-4 3-1 2-10 1-14v-43l-1-20h2z" fill="#505053"/>
<path transform="translate(421,127)" d="m0 0h29l87 1v2l-48 1-54 2-39 3h-31l-11-1v-1l57-6z" fill="#1F1E20"/>
<path transform="translate(1332,704)" d="m0 0h2l2 4 2 20 3 8 5 4 12 3 67 1v3l-21 3h-28l-26-2-9-3-5-5-3-5-1-8z" fill="#424042"/>
<path transform="translate(1734,459)" d="m0 0h1l1 379 4 1-3 1v27l1 18-1 6-1 30v16h-2z" fill="#161416"/>
<path transform="translate(73,303)" d="m0 0 3 2 13 3 2 2 10 2v3l-18-4h-12l-16 8-14 9-12 11-9 11-5 10-2 9-2 2 1 5-5-4h-2l-1-3v-8l2-5 5-5 11-12h2l2-4 12-12 9-6 13-5 6-2v-2l5-1v-2h2z" fill="#454548"/>
<path transform="translate(91,774)" d="m0 0h2v2l8 1 12 4 40 10 25 6v1l-15-1-2 2 4 2-9-1-21-5-42-12-13-4 3-2 7-1z" fill="#48484B"/>
<path transform="translate(1639,1365)" d="m0 0 6 1 18 8 7 1h4l9 2 18 6 12 3 4 3h17l8 1 2-3 3 1h-2l2 5-6 2-1-3-3 2 3 1v2l-10-2-15-2-30-7-24-8-21-9-2-3zm37 13m46 12 4 1z" fill="#313032"/>
<path transform="translate(462,125)" d="m0 0h183v1l-11 1-1 1h-183l-13-1v-1z" fill="#8D8C8D"/>
<path transform="translate(646,485)" d="m0 0 2 2-1 7 1-2h2l-1 7-10 41-6 26-4 11-1-2-5-2 5-19 10-41z" fill="#4D4D50"/>
<path transform="translate(11,368)" d="m0 0 3 1 5 10 11 12 14 9 23 12 7 4-2 1-3-1-2 1 1 4-18-8-13-8-13-10-10-9-7-10-1-6 1 2 3 1v-3z" fill="#282628"/>
<path transform="translate(404,351)" d="m0 0h39l50 1v1l-36 1v2l3 1-4 1h-34l-27-1-26-2-3-1-43-1v-1z" fill="#838283"/>
<path transform="translate(1079,655)" d="m0 0h1l2 19v41l-2 15-3 9-5 5-2-3-5 1 5-4 3-3 1-4v-73l2 2z" fill="#545557"/>
<path transform="translate(1556,32)" d="m0 0h128l1 2 14 1v1h-19l-59-1-2-1h-19l-3-1-1 2v-2h-3v2h-2v-2l-2 2h-181v-1l15-1h133z" fill="#424346"/>
<path transform="translate(754,559)" d="m0 0 2 3-1 9 2 1-1 8-7 23 44-14 7-2 4 1-1 2-10 2v2l-4 1 4 1-49 14h-4l3-11z" fill="#1A191B"/>
<path transform="translate(1238,21)" d="m0 0h13l5 3 1 4v9l-3 5-5 3h-9l-5-3-3-5-1-8 3-5z" fill="#080709"/>
<path transform="translate(1882,667)" d="m0 0h10l6 5 2 4v9l-5 4-5 1h-11l-5-3-1-3v-8l3-5z" fill="#252325"/>
<path transform="translate(214,863)" d="m0 0h7l-1 2-70 14-44 11-15 3-3 2h-15l-4-1v-2h14l6-1-7-2v-1l22-3 11-3 14-2 23-6 19-3 7-2 12-2 21-3z" fill="#2C2B2D"/>
<path transform="translate(312,242)" d="m0 0h1v136l-1 110h-1l-1-23v-84l-7 1h-15v-1l15-3 6-2v-20l-2-1v-2h2v-2h2l-1-91-26-1-1-2 28-4z" fill="#0A090B"/>
<path transform="translate(594,240)" d="m0 0h12l9 3 8 6 5 8 2 7v11l-3 8-4 1h-3l2-10v-8l-3-9-4-5-9-4-16-1h-3l-5 3-4 3 1-5 5-4z" fill="#333234"/>
<path transform="translate(86,1009)" d="m0 0 10 3 29 8 1 3 23 6 32 7 54 9 49 7v1h-8l-56-8h-12l-33-6-35-8-16-4 1-2-21-7-18-8z" fill="#646465"/>
<path transform="translate(76,304)" d="m0 0h13l28 9 4 2 8 3 43 10 19 3h8l3 1h3v2l-7 1-5-1-1 2-36-7-29-7-25-7-1-2-13-3-3-2-11-2zm6 1 4 2 4-1z" fill="#565659"/>
<path transform="translate(310,267)" d="m0 0h1v84h-2v2h-2v2l-12-2-35-6-62-10-5-1v-2h12l13 2 32 5 18 4 18 2 5 1h8v-1l11 1z" fill="#434346"/>
<path transform="translate(1023,59)" d="m0 0 7 1 28 11 26 13 13 9 10 10 2 5-5-3-6-3-11-9-10-6-13-5-15-7-26-10 3-1 11 3 3-1-17-6z" fill="#929192"/>
<path transform="translate(525,359)" d="m0 0h164v1l-162 2h-123v-1l28-1z" fill="#8D8C8D"/>
<path transform="translate(1261,1290)" d="m0 0 11 7 14 8 9 4 10 4 6 3 5 2 1 1h30l10 1 3 2v2l-15-1-38-1-18-7-9-6-12-7-8-10z" fill="#302F31"/>
<path transform="translate(550,526)" d="m0 0 2 3 8 24 9 32 6 18 1 5h-11l-3-3 7-1-5-10-12-42 2-1-1-3-3-17z" fill="#323032"/>
<path transform="translate(628,807)" d="m0 0h2l5 16 8 35v9l1 2 2 13-3-1-2-9-3 1-9-39-2-11z" fill="#4F4F52"/>
<path transform="translate(500,240)" d="m0 0h14l10 4 7 6 5 10v15h-1l-1-7-2-1-1 10-2 3-1-19-6-9-11-6-12 1v-2l-6 3h-2l-2 4-5 8-2 4-3 1 1-7 7-10 6-5z" fill="#302E30"/>
<path transform="translate(1760,833)" d="m0 0h9l29 4 29 6 16 5-1 2 2 2 2 3-9-2-20-6-11-3-24-3h-2l3 2v2h-2l-1 2-5-4h-2l-2-5-9-2v-2z" fill="#2B2A2C"/>
<path transform="translate(1312,1322)" d="m0 0h33l15 2-1 3-26 4-11 2h-7l-3-1v-2l-7 2-7-1v-3z" fill="#111012"/>
<path transform="translate(267,1298)" d="m0 0 6 2 17 8 27 9 20 2 31 1 89 1v1h-22v2h-52l-50-2-16-2-30-10-20-11z" fill="#19181A"/>
<path transform="translate(831,673)" d="m0 0 19 4 43 12 12 4v4l-5 1h-11l-4-1h-6l3-2-8-4-20-6-12-3 3-2-2-1v-2l-8-1-4-2z" fill="#343335"/>
<path transform="translate(1684,36)" d="m0 0h22l21 2 18 4 20 7 16 8 19 11 17 13 13 12 1 4h2l9 11 1 3h2l3 9-5-5-9-11-14-15-11-9-9-7-15-10-14-8-16-7-16-5-24-4-31-2z" fill="#818081"/>
<path transform="translate(1889,1300)" d="m0 0 16 6 23 6 12 5-3 5-4 1-6-3-23-6-19-7v-3z" fill="#2C2A2C"/>
<path transform="translate(1734,937)" d="m0 0 4 1-1 5-1 83h2v6h-2v82h-2z" fill="#302F31"/>
<path transform="translate(1337,653)" d="m0 0h1v10l-1 12-1 33-2-4h-2l1 28-2-4-1-7-1-19v-19l2-23 1-6 2 4z" fill="#545457"/>
<path transform="translate(310,381)" d="m0 0h1v84l-1 3-21-1-36-3-8-1v-1h16l-15-3-2-2 13 1 50 5 3 1z" fill="#424244"/>
<path transform="translate(885,696)" d="m0 0h14v1l-14 2-18 6-14 4-20 4-11 2h-8v-2l8-1-1-2 8-3 26-6 15-3z" fill="#181719"/>
<path transform="translate(2027,1044)" d="m0 0h2l4 15 3 17 3 4h1l3 21v6l-2-1-3 5h-3l-2-21-7-38z" fill="#444548"/>
<path transform="translate(1632,30)" d="m0 0h47l40 2 16 2 23 7 27 13 22 14 13 11h-3l-10-8-19-12-16-8-5-3-16-6-16-4-10-2-19-2-22-1-7-1-45-1z" fill="#D6D5D6"/>
<path transform="translate(531,477)" d="m0 0 7 2 5 5v9l2 4v15h2l3 10 2 12 2 16 1 2h-3l-5-16-2-9-3-9-4-23-4-10-4-7z" fill="#161517"/>
<path transform="translate(1674,33)" d="m0 0h32l24 3 18 4 15 6 7 3 17 8 10 7 13 8v3l-5-2-10-7-21-12-20-8-16-5-20-3-44-4z" fill="#242224"/>
<path transform="translate(311,946)" d="m0 0h1l2 185 1 19 1 8-3-4-2-11z" fill="#0C0B0D"/>
<path transform="translate(115,195)" d="m0 0 12 2 42 9 18 4-1 2-8-1-11-1v1h-7l-44-10-1-4v-1z" fill="#434447"/>
<path transform="translate(936,766)" d="m0 0 8 1 86 23 7 2v1h-9l-1-1-9-1-15-5-4-2-23-1-8-3-12-6-9-2-4-1v-2h-5z" fill="#4E4E51"/>
<path transform="translate(326,187)" d="m0 0 2 1-1 1 25 1v1l-25 1-5 3-3 7h-3l-2 61-1 65h-1v-78h-1l-1-15-9-1v-1l10-1v-4l-3-1 2-1 2-17 4-11 9-10z" fill="#777678"/>
<path transform="translate(1572,1219)" d="m0 0 6 1h10l-3 2-34 8-21 6-11 2-2-4 37-11z" fill="#4D4E50"/>
<path transform="translate(1932,1017)" d="m0 0h2l7 20 3 17 2 25v27l-2-1-1-13-3-20-2-24-3-16-3-9z" fill="#282628"/>
<path transform="translate(536,723)" d="m0 0h8v3l-13 11-38 38h-2l1-3h2v-2h2v-3l5-5 1-4 12-11 7-8 7-6z" fill="#0D0C0E"/>
<path transform="translate(866,28)" d="m0 0 20 1 23 4 37 7 15 1 4 2h-14l1 2-9-1-62-11-4-2-11-2z" fill="#222123"/>
<path transform="translate(412,240)" d="m0 0 13 1 10 5 7 9 3 8v14l-2 4-2-2-2-4-1-15-5-10-5-3-5-2-1 2-4-3-13 1-10 6h-2l2-4 8-5z" fill="#302E30"/>
<path transform="translate(123,1021)" d="m0 0 9 1 28 7 29 6 45 8 26 4v1h-10l-46-7-33-6-35-8-10-3z" fill="#272628"/>
<path transform="translate(625,806)" d="m0 0h3v10h-2v-3l-5 5-11 14-14 15-1-4v-3l-2-1 12-12 7-8 9-10z" fill="#4E4F51"/>
<path transform="translate(311,494)" d="m0 0h1v233h-1l-1-15-1-3-5-2v-2h-3v-2h9v-92z" fill="#030204"/>
<path transform="translate(1765,1289)" d="m0 0h16l30 1-2 5-2 1h-33l-10-1v-5z" fill="#2F2E30"/>
<path transform="translate(1632,1302)" d="m0 0 1 2-1 4-16 6-27 6-4 1 1-4 6-4 16-5 22-5z" fill="#2E2C2F"/>
<path transform="translate(1070,740)" d="m0 0 2 1-1 4-6 2-9 1h-58l-11-1 2-3h61l11-2 8-1z" fill="#09080A"/>
<path transform="translate(714,11)" d="m0 0h22l45 4v1l-15 1 13 2v1l-18-1-39-3v-2l-9-1z" fill="#515154"/>
<path transform="translate(1201,1220)" d="m0 0h2l12 19 8 12 10 13 10 11 7 8 3 4-1 3-7-6-12-12-11-15-8-13-11-19z" fill="#4A4B4E"/>
<path transform="translate(26,101)" d="m0 0 3 1-8 9-7 14-1 8-1-3h-2l-1 4-5-1-1-7 7-14 2-3 11-6z" fill="#46474A"/>
<path transform="translate(574,774)" d="m0 0h2l-1 7-8 24-4 13-3 1-2-4 1-7 7-21 3-6h-3l2-5z" fill="#2F2E30"/>
<path transform="translate(237,1278)" d="m0 0 5 3 10 7 15 9 3 3 17 9 3 1 1 2 21 7 16 3 10 1v1h-21l-20-5-11-4 3-2v-2l-5-1-16-8-14-9-14-11-3-2z" fill="#2B2A2C"/>
<path transform="translate(1238,21)" d="m0 0h13l5 3 1 4v7l-8-1-16-4-2 3 1-7z" fill="#252325"/>
<path transform="translate(634,126)" d="m0 0h37l63 5v1h-22l-24-1-10-1-58-1v-1l13-1z" fill="#4C4D4F"/>
<path transform="translate(841,576)" d="m0 0h10l-1 2-13 4-13 5-24 7-11 2-3-1 7-1v-2l6-2h4l1-4 24-7 7 1 1-2z" fill="#171618"/>
<path transform="translate(1114,132)" d="m0 0 1 3-6 11-11 12-11 8-14 2 4-4 12-8 2-2 7-3 7-8 8-9z" fill="#2B2A2C"/>
<path transform="translate(71,543)" d="m0 0h25l18 5-2 4-11-2-16-4h-9l-12 5-7 3-2-1-5 3-8 4-3-1 10-6 19-9z" fill="#454649"/>
<path transform="translate(689,816)" d="m0 0 4 1 4 5 5 3-2 1h-4l-3-4-2 1-6 24-10 37-3 8h-1l1-11 2-9 3-8 5-19 4-22z" fill="#505053"/>
<path transform="translate(800,587)" d="m0 0 4 1-1 2-10 2v2l-4 1 4 1-35 10-6-1v-3l41-13z" fill="#363537"/>
<path transform="translate(1084,1324)" d="m0 0h78l3 2-16 1h-72v-1h7z" fill="#8D8C8D"/>
<path transform="translate(139,51)" d="m0 0h6v1l-23 6-32 10v-2l-3 1v-2l-16 4-1-2 21-8 9-2 2 3 6-1 10-2 12-4z" fill="#454648"/>
<path transform="translate(1411,744)" d="m0 0h14v3l-11 2h-31l-23-1 3-1v-2z" fill="#0C0B0D"/>
<path transform="translate(800,667)" d="m0 0h7l21 5 11 4 4 1v2l3 1-1 1h-7l-36-9v-2l-3-1z" fill="#1E1D1F"/>
<path transform="translate(37,281)" d="m0 0 13 6 5 1 10 5 8 2-2 2 3 2v2l-5 1v-2l-12-3-16-8-7-5z" fill="#494A4D"/>
<path transform="translate(171,1198)" d="m0 0 6 2 8 13 10 17 5 7-1 2-8-9-7-11-2 3-9-15-3-6z" fill="#58595B"/>
<path transform="translate(1929,1017)" d="m0 0h3l2 9 4 14 2 16v10h-1l-1 10h-1l-2-24-3-15-5-16-3-2z" fill="#4B4C4E"/>
<path transform="translate(1725,193)" d="m0 0 5 5 4 8 1 6-1 140h-1l-1-131-1-16-1-3h-2z" fill="#646364"/>
<path transform="translate(1083,166)" d="m0 0 3 1-21 13-2 2h-18l1-2 16-7 10-5z" fill="#100F11"/>
<path transform="translate(310,595)" d="m0 0h1v103h-1v-83l-4 1h-15l3-3-14-1v-1l30-1z" fill="#3E3E41"/>
<path transform="translate(1282,1320)" d="m0 0h13l2 1-1 3-16 1h-14l-18-2-31-1v-1z" fill="#1E1C1E"/>
<path transform="translate(2044,1119)" d="m0 0 1 2-2 8-3 25h-4l-1 4h-1v-9l1-7-1-6 3-9 2-3h2l1-4z" fill="#494A4C"/>
<path transform="translate(1312,1322)" d="m0 0h33l15 2-1 3h-25v-1l4-1-14 1-4 1h-14l1-3z" fill="#060507"/>
<path transform="translate(310,494)" d="m0 0h1v100h-1l-1-5-17-1 3-2-8-3v-1l16 1 7 1z" fill="#515254"/>
<path transform="translate(254,223)" d="m0 0h8l31 4h19v5l-1 1h-10l-24-4-23-5z" fill="#111012"/>
<path transform="translate(1601,1171)" d="m0 0h43l30 1v1l-35 1h-31l-45-1v-1z" fill="#424143"/>
<path transform="translate(1736,1026)" d="m0 0h2v6h-2v82h-2v-87z" fill="#222224"/>
<path transform="translate(267,1298)" d="m0 0 6 2 17 8 27 9 20 2 31 1v1l-21 1h-14l-16-2-30-10-20-11z" fill="#29292B"/>
<path transform="translate(631,821)" d="m0 0 2 4 4 15 2 10 2-1 2 12v6l1 2 2 13-3-1-3-10-1-7-3-11-5-21-1-9z" fill="#8B8A8B"/>
<path transform="translate(75,777)" d="m0 0h2v4l-20 9-17 11-8 6 2-4 4-2 1-3 5-2-1-3 3-3h3v-2l11-5 13-5z" fill="#444548"/>
<path transform="translate(393,14)" d="m0 0h25v1l-73 6-16 1v-1l15-3 14-2z" fill="#8D8C8D"/>
<path transform="translate(207,333)" d="m0 0 9 1 63 10 7 1 3 1 5-1 4 2-1 2-11-1-18-2-24-5-39-6z" fill="#8D8C8D"/>
<path transform="translate(1883,1111)" d="m0 0h49v1l-6 1-53 2h-12l-5-2v-1z" fill="#292729"/>
<path transform="translate(1684,36)" d="m0 0h22l21 2 18 4 20 7 16 8 5 3v2l-4-1-15-8-17-7-21-5-26-3-19-1z" fill="#A8A8A8"/>
<path transform="translate(1674,1172)" d="m0 0h44l-4 2-34 2v10l-3 1-2-8 1-3-6-1v-2z" fill="#181719"/>
<path transform="translate(205,331)" d="m0 0 11 1 67 11 9 2v1l-13-1-63-10-11-2z" fill="#4A4B4E"/>
<path transform="translate(1847,1114)" d="m0 0h1v5h-2v-2l-25 2h-51l-6-1v-1h41l13-2z" fill="#8D8C8D"/>
<path transform="translate(87,898)" d="m0 0 18 1 29 8 27 6 3 2-9-1-31-7-14-4h-10l-4 1-10-2 2-2z" fill="#565659"/>
<path transform="translate(1781,839)" d="m0 0 26 2 27 6 8 3 2 2 2 3-9-2-20-6-11-3-24-3z" fill="#4B4C4F"/>
<path transform="translate(79,1010)" d="m0 0h8l16 6 12 5 10 3 1 2-9-1-28-8-6-2z" fill="#151416"/>
<path transform="translate(248,580)" d="m0 0h34l5 1v2l6 1 3 3h-10l-35-5z" fill="#2B292B"/>
<path transform="translate(212,1044)" d="m0 0h8l49 7 13 2 2 1v2l-11-1-47-7-12-2z" fill="#252427"/>
<path transform="translate(310,381)" d="m0 0h1v84l-1 3h-6l-4-2-16-2-1-2h15l12 2z" fill="#48494B"/>
<path transform="translate(17,817)" d="m0 0 3 3-6 12-1 7h-1l-1-6-1 9h-5l-2-8 2-6h3l7-10z" fill="#434447"/>
<path transform="translate(500,760)" d="m0 0 2 2-3 4-3 1v3h-2v2l-2 1-1 4-8 8-5 2-5 1 2-4 20-20z" fill="#292729"/>
<path transform="translate(715,551)" d="m0 0 3 1-15 16-12 12h-3v-5l8-7 5-4 4-6h2l2-5 1 2z" fill="#2F2E30"/>
<path transform="translate(1780,864)" d="m0 0 4 1 12 22 6 13-1 3-1-4h-2l-5-9-3-3-5-9-4-6v-4h-2z" fill="#1A191B"/>
<path transform="translate(1944,1141)" d="m0 0 2 1v20l-4 27-3 13-3-1 2-6 1-7 1-1v-9l2-14 1-18z" fill="#29282A"/>
<path transform="translate(1748,40)" d="m0 0h7l18 8 15 8 19 12 13 11h-3l-10-8-19-12-16-8-5-3-16-6z" fill="#CFCFCF"/>
<path transform="translate(862,25)" d="m0 0 14 1 49 8 31 6v1h-10l-53-10-31-5z" fill="#8D8C8D"/>
<path transform="translate(327,1171)" d="m0 0 140 1v1l-135 1-5-2z" fill="#424346"/>
<path transform="translate(1751,43)" d="m0 0 7 1 11 4 16 8 23 15 2 1v3l-5-2-10-7-21-12-20-8-3-1z" fill="#201F21"/>
<path transform="translate(1881,187)" d="m0 0 2 2 2-2 2 11v34h-2l-1-6-2-26z" fill="#47484B"/>
<path transform="translate(76,304)" d="m0 0h13l28 9 4 2 1 2-7-1-24-5-6-3-11-2zm6 1 4 2 4-1z" fill="#8D8C8D"/>
<path transform="translate(1588,33)" d="m0 0h3v2h2v-2h26l6 1 55 1v1h-92z" fill="#8D8C8D"/>
<path transform="translate(1734,734)" d="m0 0h1l1 104 4 1-3 1-1 5-1 17h-1z" fill="#050406"/>
<path transform="translate(1237,1383)" d="m0 0v3l-12 16-6 9-5 5-1 2h-2l3-9 14-18h2l2-4z" fill="#0D0C0E"/>
<path transform="translate(1810,1385)" d="m0 0 5 1 8 1v1l-13 2-7-1v2l-3 1 2 2-19 2-3-1 12-6z" fill="#555658"/>
<path transform="translate(819,801)" d="m0 0 12 3 11 4h9l17 8h3l-7-8 2-1 7 8v3h-9l-9-5-6-1v-2l-16 1-1-3-12-5z" fill="#706F71"/>
<path transform="translate(1790,889)" d="m0 0 3 3 4 5 3 7 9 18 1 7h-4l-12-29-4-9z" fill="#161618"/>
<path transform="translate(1080,708)" d="m0 0h1v17l-3 12-5 7-3-3-5 1 5-4 3-3 3-13h2l1-11z" fill="#343234"/>
<path transform="translate(681,551)" d="m0 0 3 3 1 6h1v-9l3 4 3 17-2 3h-2l-1 3-6-21z" fill="#3A393B"/>
<path transform="translate(1213,1408)" d="m0 0 2 1-4 9h2l2-4 2-3 2 1-13 23-4 6-1-3 5-16z" fill="#2E2D2F"/>
<path transform="translate(252,1295)" d="m0 0 5 1 9 4 16 8 7 3 1 3h-6l-16-8-14-8z" fill="#1A191C"/>
<path transform="translate(1779,870)" d="m0 0h2l8 13 4 6 5 7v3h2l1 4h2l9 20h-3l-12-22-2-5-4-6-3-3-9-16z" fill="#919091"/>
<path transform="translate(1107,113)" d="m0 0 4 4 4 8v7l-8 10-12 12-2-1 7-7 7-10 3-7-1-8-2-5z" fill="#131214"/>
<path transform="translate(1516,1243)" d="m0 0 3 1 7 14 2 1v4l3 1 8 11v2h2v2h-3l-8-8-14-23-1-3z" fill="#48484A"/>
<path transform="translate(1851,1113)" d="m0 0h9l-2 2-6-1 3 3-1 4 2 1-1 18h-1l-1-8-2 6h-1l-1-7h-1v-17z" fill="#4A4B4E"/>
<path transform="translate(1441,732)" d="m0 0 3 1-1 5-4 5-9 4-11 2h-5l4-2 7-1v-1l-7-1v-1l16-4 5-2z" fill="#383638"/>
<path transform="translate(754,559)" d="m0 0 2 3-1 9 2 1-1 8-2 4-1-3-4 10-2 4h-2l2-10z" fill="#353436"/>
<path transform="translate(73,303)" d="m0 0 3 2 13 3 2 2 10 2v3l-18-4h-12l-9 3-2-2 6-2v-2l5-1v-2h2z" fill="#4E4F52"/>
<path transform="translate(86,1009)" d="m0 0 10 3 29 8 1 3 10 3-4 2-8-1 1-2-21-7-18-8z" fill="#5A5A5C"/>
<path transform="translate(312,242)" d="m0 0h1v10l-1 13h-1l-1-5-26-1-1-2 28-4z" fill="#0F0E10"/>
<path transform="translate(1815,1114)" d="m0 0h32v1l-31 1-11 2h-26l-15-1v-1z" fill="#424346"/>
<path transform="translate(1200,1218)" d="m0 0 6 1 5 6 11 20 2 4-3 1-12-19-6-9v-2l-3-1z" fill="#151517"/>
<path transform="translate(214,863)" d="m0 0h7l-1 2-46 9h-3l2-4 17-3 21-3z" fill="#2E2C2E"/>
<path transform="translate(255,934)" d="m0 0 13 1 18 3v-2l7 1-2 1v3h8v2l-16-2-27-4z" fill="#303032"/>
<path transform="translate(237,930)" d="m0 0h17l30 5 2 1v2l-18-2-28-4z" fill="#100F11"/>
<path transform="translate(426,695)" d="m0 0 6 1 40 8v1l-18-1-4-1v-2l-5 2-7-1-12-3-9-1v-1z" fill="#3D3B3D"/>
<path transform="translate(1744,1387)" d="m0 0 3 1h-2l2 5-6 2-1-3-3 2 3 1v2l-10-2-10-1 1-2-2-2 1-1h14l8 1zm-22 3 4 1z" fill="#515255"/>
<path transform="translate(866,28)" d="m0 0 20 1 23 4-1 2h-16l-26-6z" fill="#141315"/>
<path transform="translate(1793,1029)" d="m0 0h16l-4 2 18 1v1h-47l-2-3z" fill="#4B4C4F"/>
<path transform="translate(691,808)" d="m0 0 2 4-1 4h-3l-1 6-3 7-2 2-2 4v-9l3-15 6 1z" fill="#878687"/>
<path transform="translate(681,527)" d="m0 0 2 4 5 19-1 10h-3l-4-19-1-13z" fill="#3A393B"/>
<path transform="translate(237,1278)" d="m0 0 5 3 10 7 15 9 3 3 17 9 3 2-6-1-16-8-14-9-14-11-3-2z" fill="#8E8E8F"/>
<path transform="translate(792,17)" d="m0 0h9l54 6 7 1v1h-15l-33-4-16-2-6-1z" fill="#565759"/>
<path transform="translate(2040,1104)" d="m0 0 5 4v3l-10 2-9-1h-50v-1l30-1h32zm1 4 1 2z" fill="#8D8C8D"/>
<path transform="translate(629,831)" d="m0 0 3 1 5 21 3 11 1 7-3 2-9-39z" fill="#545557"/>
<path transform="translate(869,569)" d="m0 0h4l-1 4-14 12-6 6h-2l-1-4 9-9 1-2 9-4z" fill="#0C0B0D"/>
<path transform="translate(1201,1220)" d="m0 0h2l12 19 8 12 7 9-1 2-5-6-4-2-15-25z" fill="#8C8B8C"/>
<path transform="translate(71,543)" d="m0 0 11 1v1l-12 3-13 6-2-1-5 3-8 4-3-1 10-6 19-9z" fill="#575759"/>
<path transform="translate(1338,1324)" d="m0 0h6l-4 2-11 2-3 1h-13l-8 3-7-1v-3l6-3 3 1h13l4-1z" fill="#1C1B1D"/>
<path transform="translate(1810,73)" d="m0 0 8 6 5 3 16 16v2h-4l-2-1v-2h-2l-4-6-12-11-6-4z" fill="#414143"/>
<path transform="translate(625,806)" d="m0 0h3v10h-2v-3l-5 5-5 3-5 2 1-4 9-10z" fill="#383739"/>
<path transform="translate(444,567)" d="m0 0 16 4v2l5 1 4 3h-7l-4-2-6 1-3 1-4-3-2-6z" fill="#151416"/>
<path transform="translate(1238,21)" d="m0 0h13l5 3 1 4v7l-2-4-11-5-9-2z" fill="#6E6E6F"/>
<path transform="translate(1313,1328)" d="m0 0h6v1l-7 1v2l4 1v1l-15 4-11 4v-2l-6 1 3-3 13-3 2-1-1-2z" fill="#424144"/>
<path transform="translate(611,246)" d="m0 0 6 2 4 3 6 12v6l-3 5h-1l-2-13-5-8-7-4z" fill="#4B4C4F"/>
<path transform="translate(385,266)" d="m0 0h2l2 8 3 10 10 9 3 2v2l4 2-6-1-8-6-6-8-3-6-1-5z" fill="#3A383A"/>
<path transform="translate(114,643)" d="m0 0 4 1 1 2-18 5-7 3 3 2-7 1-4-3 1-2 12-4z" fill="#444447"/>
<path transform="translate(1889,1300)" d="m0 0 2 2-4 3 1 1 12 2 16 4-3 1 1 3-10-2-19-7v-3z" fill="#494A4D"/>
<path transform="translate(1916,980)" d="m0 0 3 4 10 21h2l1 4-2 4-4-1-4-10v-4l-6-15z" fill="#444547"/>
<path transform="translate(1339,1319)" d="m0 0 18 1 3 2v2l-40-2 1-2z" fill="#29282A"/>
<path transform="translate(558,506)" d="m0 0 7 6 18 18-1 2-4-2-10-9-9-9z" fill="#121113"/>
<path transform="translate(348,134)" d="m0 0 37 2v1l-16 1-45-1v-1z" fill="#505154"/>
<path transform="translate(178,1206)" d="m0 0h3l12 21 7 10-1 2-8-9-10-16-3-6z" fill="#5E5D5F"/>
<path transform="translate(1491,1176)" d="m0 0 4 2 4 9 4 13-2 2-6-12-2-1-2-8z" fill="#151416"/>
<path transform="translate(311,935)" d="m0 0h1v11l-2 1v-2l-10-1-1-3h-8v-3l14 1 5 1z" fill="#141315"/>
<path transform="translate(1846,115)" d="m0 0 5 5 6 10v2h2l2 7h2v4h2l2 5-1 3-3-3-9-17-6-9z" fill="#B1B1B2"/>
<path transform="translate(1677,1378)" d="m0 0 12 1 20 6 5 2 1 2-9-2-12-2-18-5z" fill="#505153"/>
<path transform="translate(1095,153)" d="m0 0 2 1-5 4h-2l-1 3 2 2-4 3-14 2 4-4 12-8 2-2z" fill="#8A898A"/>
<path transform="translate(1011,55)" d="m0 0 9 2 3 1v2l8 2 10 4-1 2-11-2-12-3 4-3h-6v-2l-4-2z" fill="#656465"/>
<path transform="translate(284,815)" d="m0 0 19 1 7 2-2 3h-16l2-2-12-2z" fill="#48484B"/>
<path transform="translate(999,783)" d="m0 0 9 1 29 8v1h-9l-1-1-9-1-15-5z" fill="#525355"/>
<path transform="translate(1519,1243)" d="m0 0 3 1 10 18 8 12h-3l-7-10-2-1v-4l-3-1-6-11z" fill="#161517"/>
<path transform="translate(682,851)" d="m0 0 1 3-10 37-2 1 1-11 2-9 3-8 3-10z" fill="#57585A"/>
<path transform="translate(112,547)" d="m0 0 10 1 5 5 5 3 3 2-8-1-14-4-1-2v-3z" fill="#2D2C2E"/>
<path transform="translate(608,558)" d="m0 0 6 5 6 9 8 3-1 6-4-1-3-4v-2l-3-1-2-5-3-1-5-6z" fill="#212022"/>
<path transform="translate(868,568)" d="m0 0h7l-1 3-1-2-4 2-2 3-5 2h-10l-2-2h2v-2z" fill="#29292B"/>
<path transform="translate(514,7)" d="m0 0m-3 0 3 2-1 1-20 1h-20v-2z" fill="#8D8C8D"/>
<path transform="translate(287,582)" d="m0 0 16 1 7 1-1 5-17-1 3-2-8-3z" fill="#555658"/>
<path transform="translate(496,245)" d="m0 0h3v2l6-2h6v1l-12 3-8 6-4 5-2 2-1-4 7-10z" fill="#4F5053"/>
<path transform="translate(1789,1378)" d="m0 0 2 1-7 7-5 6-5-1-3-3 6-4 8-4z" fill="#464649"/>
<path transform="translate(313,206)" d="m0 0h1l-1 36-1 8h-1l-1-15-9-1v-1l10-1v-4l-3-1 2-1 2-17z" fill="#414144"/>
<path transform="translate(565,777)" d="m0 0h2l-1 4h3l-1 4-1-2-10 2-4 1v-2l-4-1v-2z" fill="#3E3C3E"/>
<path transform="translate(58,644)" d="m0 0 17 8-1 3h-3l-1 2-3-1v-2l-5-2-5-7z" fill="#464649"/>
<path transform="translate(163,327)" d="m0 0 9 1 19 3h8l3 1h3v2l-7 1-20-3-15-3z" fill="#8D8C8D"/>
<path transform="translate(1752,855)" d="m0 0 1 2h2l1 4-11 9-6 11-2-2v-3h2l1-5 4-6 8-5z" fill="#3D3C3E"/>
<path transform="translate(1296,1316)" d="m0 0h9l11 2 5 2-1 2h-13l-11-4z" fill="#2F2E30"/>
<path transform="translate(820,709)" d="m0 0 4 1v2l-2 1h-8v2h5v1l-11 1-8-2 4-2z" fill="#3A383A"/>
<path transform="translate(1500,1200)" d="m0 0 4 1 9 26-1 2-8-16-2-9h-2z" fill="#494A4D"/>
<path transform="translate(87,898)" d="m0 0 18 1 4 1v2l-9 1-4 1-10-2 2-2z" fill="#46474A"/>
<path transform="translate(304,376)" d="m0 0h5l-4 2-12 3-1 2-10-1 3-2-9-1v-1z" fill="#4B4C4E"/>
<path transform="translate(310,698)" d="m0 0 2 4v25h-1l-1-15-1-3-5-2v-2h-3v-2h9z" fill="#0B0A0C"/>
<path transform="translate(171,1034)" d="m0 0h13l21 4 2 2h-8l-28-5z" fill="#232224"/>
<path transform="translate(326,187)" d="m0 0 2 1-1 1 25 1v1l-25 1-5 3-2 6h-4l1-4 7-8z" fill="#5B5A5B"/>
<path transform="translate(311,1127)" d="m0 0h2l1 4 1 19 1 8-3-4-2-11z" fill="#333234"/>
<path transform="translate(710,833)" d="m0 0 20 20 7 8v3l-6-5v-2h-2l-5-6v-2h-2v-2l-3-1-7-8z" fill="#636365"/>
<path transform="translate(164,209)" d="m0 0 14 1 16 3-4 1-8 1-17-3z" fill="#7A7A7B"/>
<path transform="translate(1566,32)" d="m0 0h21l-1 3h-22l-2-2z" fill="#535456"/>
<path transform="translate(1751,43)" d="m0 0 7 1 11 4 11 6v2l-6-2-20-8-3-1z" fill="#1F1E20"/>
<path transform="translate(632,822)" d="m0 0 3 1 5 22v7l-2-2-6-25z" fill="#58595B"/>
<path transform="translate(150,1027)" d="m0 0 19 4 9 2v1h-11l-18-4z" fill="#212123"/>
<path transform="translate(572,272)" d="m0 0 2 1-1 2h2l5 13 7 6 2 2-5-1-7-7-5-9z" fill="#333234"/>
<path transform="translate(1296,1329)" d="m0 0 3 1 2 1v3l-14 5-2-1 5-5z" fill="#2D2B2D"/>
<path transform="translate(656,911)" d="m0 0h1l1 7 2-2 1 7 1 5-2 1 1 3h-3l-2-8z" fill="#8D8C8D"/>
<path transform="translate(819,801)" d="m0 0 12 3 12 5v1l-10 1-1-3-12-5z" fill="#5F5F61"/>
<path transform="translate(232,458)" d="m0 0 20 1 13 3v1l-23-1v-2l-10-1z" fill="#161416"/>
<path transform="translate(1788,58)" d="m0 0 5 1 15 10 11 9 1 2-4-2-12-9-16-10z" fill="#ACABAC"/>
<path transform="translate(1722,1372)" d="m0 0 5 2 3 2h5l5 4 3 3-1 3-3-1v-2l-5-2-11-7z" fill="#4D4D4F"/>
<path transform="translate(1075,86)" d="m0 0 6 2 11 8 7 6 5 3 1 4h-3l-7-8-12-9-8-5z" fill="#414143"/>
<path transform="translate(255,934)" d="m0 0 13 1 4 1v2l10 1v1l-13-1-13-2z" fill="#3A393B"/>
<path transform="translate(681,527)" d="m0 0 2 4 1 7-1 1 1 11h-2l-2-9-1-13z" fill="#4D4D50"/>
<path transform="translate(283,462)" d="m0 0h15l8 2v2l2 1-24-3z" fill="#212123"/>
<path transform="translate(1527,1264)" d="m0 0h4l8 11v2h2v2h-3l-8-8-3-5z" fill="#404043"/>
<path transform="translate(309,376)" d="m0 0 2 3-1 2-7 1h-15v-1l15-3z" fill="#1C1B1D"/>
<path transform="translate(267,1298)" d="m0 0 6 2 17 8 9 3-4 2-12-5-16-9z" fill="#333335"/>
<path transform="translate(1779,870)" d="m0 0h2l8 13 4 6 5 7-1 3-6-9-3-3-9-16z" fill="#CFCFCF"/>
<path transform="translate(299,347)" d="m0 0 11 1-1 5h-2v2l-3-1-5-3-2-2z" fill="#898889"/>
<path transform="translate(100,177)" d="m0 0h4v2l-13 5-10-1v-1z" fill="#4B4C4F"/>
<path transform="translate(300,610)" d="m0 0h5v3l-11 3-3-1 3-2-14-1v-1z" fill="#515254"/>
<path transform="translate(310,468)" d="m0 0h1l1 26h-9l2-1v-3l5-1z" fill="#202022"/>
<path transform="translate(668,479)" d="m0 0 2 3 5 18-1 4-4-10-3-10z" fill="#545557"/>
<path transform="translate(162,206)" d="m0 0h7l18 4-1 2-8-1-10-1-2-2z" fill="#373639"/>
<path transform="translate(1049,182)" d="m0 0h12l10 3v1h-13l-9-1z" fill="#2A282A"/>
<path transform="translate(939,40)" d="m0 0 22 1 4 2h-14l1 2-9-1v-2l-4-1z" fill="#535254"/>
<path transform="translate(1788,1391)" d="m0 0h12l2 3-19 2-3-1z" fill="#515154"/>
<path transform="translate(361,133)" d="m0 0h9v1l26 1v1h-31l-11-1v-1z" fill="#252325"/>
<path transform="translate(171,1198)" d="m0 0h2l4 8 3 8-1 3-8-14-1-4z" fill="#9B9A9B"/>
<path transform="translate(1114,132)" d="m0 0 1 3-3 6-7 6-6 6-2-1 9-10z" fill="#B0B0B1"/>
<path transform="translate(1674,1180)" d="m0 0 2 1 2 5h3v5l-7 1-1-10z" fill="#3F3F41"/>
<path transform="translate(661,914)" d="m0 0h4v10l-3 3-3-7z" fill="#47484B"/>
<path transform="translate(270,462)" d="m0 0 14 1 16 2 3 2h-14v-1l-17-2z" fill="#9D9D9E"/>
<path transform="translate(1747,1385)" d="m0 0 7 3-3 9h-5l2-6z" fill="#3D3C3E"/>
<path transform="translate(1342,1326)" d="m0 0h10l3 2-14 2h-7v-3z" fill="#2B292B"/>
<path transform="translate(848,573)" d="m0 0 4 1v1l7 1v1l-9 1-3-1h-6l-2 2-7 1-1-2z" fill="#3E3D3F"/>
<path transform="translate(423,245)" d="m0 0 5 1 5 3 4 6-1 3-5-6-6-3-5-1 3-1z" fill="#57585A"/>
<path transform="translate(929,35)" d="m0 0 27 5v1h-10l-16-3-2-2z" fill="#A09FA0"/>
<path transform="translate(1238,21)" d="m0 0h13l4 2v3h-6l-11-4z" fill="#171618"/>
<path transform="translate(1338,1324)" d="m0 0h6l-4 2-11 2-3 1h-7l-1-2 6-2z" fill="#211F21"/>
<path transform="translate(117,879)" d="m0 0 2 1 1 2-22 5h-5l4-2z" fill="#787779"/>
<path transform="translate(1735,38)" d="m0 0 10 1 9 3-3 2-10-2-9-2z" fill="#39383B"/>
<path transform="translate(1222,1249)" d="m0 0h3l7 11 6 8h-3l-13-17z" fill="#282729"/>
<path transform="translate(695,569)" d="m0 0 2 1v1 3l-6 6h-3v-5z" fill="#1C1A1C"/>
<path transform="translate(98,293)" d="m0 0 12 2v1l-20 4 1-3 3-1v-2z" fill="#4E4E51"/>
<path transform="translate(1734,34)" d="m0 0 18 5v1h-7l-15-3-2-2z" fill="#A0A0A1"/>
<path transform="translate(581,525)" d="m0 0 7 6 15 15-1 2-5-4-7-8-9-9z" fill="#535356"/>
<path transform="translate(1857,132)" d="m0 0h2l2 7h2v4h2l2 5-1 3-3-3-4-8z" fill="#bbb"/>
<path transform="translate(139,51)" d="m0 0h6v1l-23 6-11 3v-2l19-6z" fill="#545557"/>
<path transform="translate(1695,1382)" d="m0 0 11 2 8 3 1 2-9-2-12-2z" fill="#636365"/>
<path transform="translate(29,335)" d="m0 0h2l-2 4-10 12-1-4 7-8z" fill="#2A292B"/>
<path transform="translate(480,271)" d="m0 0 2 2 4 9 3 7 1 2-4-2-5-9-1-2z" fill="#302F31"/>
<path transform="translate(1725,193)" d="m0 0 5 5 4 8-1 15h-1l-1-16-1-3h-2z" fill="#4E4D4F"/>
<path transform="translate(61,193)" d="m0 0 2 1 1 3-11 6-4-1z" fill="#0E0D0F"/>
<path transform="translate(931,38)" d="m0 0 9 1v2l3 2-10-1-12-2v-1z" fill="#383739"/>
<path transform="translate(1934,1188)" d="m0 0h1l-1 10-3 7-2 1 1-8 3-9z" fill="#2B2A2C"/>
<path transform="translate(69,892)" d="m0 0h22l-3 3h-15l-4-1z" fill="#4D4E50"/>
<path transform="translate(385,266)" d="m0 0h2l2 8 2 6v4h-2l-3-6-1-5z" fill="#3D3C3E"/>
<path transform="translate(1727,1153)" d="m0 0 4 2 1 4-4 6h-1v-5h-2z" fill="#3F3E40"/>
<path transform="translate(2040,1104)" d="m0 0 5 4v3l-10 2-5-1v-2h8zm1 4 1 2z" fill="#848385"/>
<path transform="translate(698,743)" d="m0 0 4 1-10 2-5 2-3-1v-2h-9v-1z" fill="#525355"/>
<path transform="translate(1424,742)" d="m0 0h6l2 3-6 3-12 1 4-2 7-1v-1l-7-1v-1z" fill="#3B3A3B"/>
<path transform="translate(310,712)" d="m0 0h1l1 22-1-2-6 1 1-4 4-1z" fill="#272729"/>
<path transform="translate(608,558)" d="m0 0 6 5 5 8-1 3-3-4v-2l-3-1-5-6z" fill="#1A1A1C"/>
<path transform="translate(312,242)" d="m0 0h1v10l-1 13h-1l-1-6-3-2v-2l-2-1 6-1z" fill="#222022"/>
<path transform="translate(1222,1255)" d="m0 0 3 1 4 5 6 5 1 3h-2l-3-3-1 2-8-11z" fill="#5E5F61"/>
<path transform="translate(830,799)" d="m0 0 9 3 10 2 1-2 1 5-16-3v-2l-4-1z" fill="#878788"/>
<path transform="translate(622,259)" d="m0 0 5 4v6l-3 5h-1z" fill="#424345"/>
<path transform="translate(316,1321)" d="m0 0 12 1 10 1v1h-21l-5-1z" fill="#49494B"/>
<path transform="translate(265,1052)" d="m0 0h11l8 2v2l-11-1-7-1z" fill="#212022"/>
<path transform="translate(689,816)" d="m0 0 4 1 4 5 5 3-2 1h-4l-3-4h-3z" fill="#58595B"/>
<path transform="translate(1877,672)" d="m0 0h1v11l-4-1-1-1 1-7z" fill="#0C0B0D"/>
<path transform="translate(150,284)" d="m0 0h8v1l-21 5-4-1 3-1-1-2 12-1z" fill="#4E4E51"/>
<path transform="translate(1009,56)" d="m0 0 6 1 2 2 5 1-2 2-9-1v-2h-3z" fill="#1A191B"/>
<path transform="translate(1302,1321)" d="m0 0 4 2-1 1-20 2h-5l1-2 15-1z" fill="#535456"/>
<path transform="translate(301,1317)" d="m0 0 7 1 8 2v2h-8l-7-3z" fill="#2A282B"/>
<path transform="translate(1230,1265)" d="m0 0 4 2v2h2l4 7 4 4-1 2-10-10z" fill="#323133"/>
<path transform="translate(1588,1214)" d="m0 0 1 4v2l-13 1v-3l12-2z" fill="#353436"/>
<path transform="translate(1790,889)" d="m0 0 3 3 4 5 3 9-3 1-7-16z" fill="#434244"/>
<path transform="translate(670,737)" d="m0 0 3 4v4l2 1-2 4-1-5h-6l2-5z" fill="#525255"/>
<path transform="translate(572,603)" d="m0 0h3l1 5h-11l-3-3h10z" fill="#1D1C1E"/>
<path transform="translate(244,457)" d="m0 0 13 1 9 1-1 3-9-1-12-3z" fill="#4B4B4E"/>
<path transform="translate(288,256)" d="m0 0h9v1l7 1v1h-20l-1-2z" fill="#1E1D1F"/>
<path transform="translate(431,11)" d="m0 0 18 1v1l-16 1h-12l2-2z" fill="#8D8C8D"/>
<path transform="translate(1237,1268)" d="m0 0 7 6 9 9v2l-4-2-12-13z" fill="#1D1C1E"/>
<path transform="translate(85,778)" d="m0 0 7 1 11 5-4 1-14-4z" fill="#8D8C8D"/>
<path transform="translate(803,589)" d="m0 0m-4 1h4l-1 3-5 2-11 1 2-2h5v-2z" fill="#141315"/>
<path transform="translate(1780,55)" d="m0 0 7 2 9 6-3 2-13-8z" fill="#2C2B2D"/>
<path transform="translate(1873,1314)" d="m0 0 3 1-12 12v-2l-2-1 6-5h2l2-4z" fill="#515154"/>
<path transform="translate(1720,1389)" d="m0 0h6l1 3h6l-1 3-12-1 1-2-2-2zm2 1 4 1z" fill="#68686A"/>
<path transform="translate(1282,1320)" d="m0 0h13l2 1-1 3h-8v-2l-6-1z" fill="#333234"/>
<path transform="translate(1821,842)" d="m0 0 12 3 10 3v1l-9-1-12-3z" fill="#343335"/>
<path transform="translate(1774,838)" d="m0 0 1 2 5 1 3 2v2h-2l-1 2-5-4h-2z" fill="#58595B"/>
<path transform="translate(864,807)" d="m0 0h2l7 8v3h-9l-3-3 10 1-7-8z" fill="#616163"/>
<path transform="translate(429,688)" d="m0 0 4 1-2 2-10 2h-7l4-2z" fill="#3E3D3F"/>
<path transform="translate(189,328)" d="m0 0h7l9 2v2l-14-1-2-1z" fill="#4F5053"/>
<path transform="translate(403,242)" d="m0 0 3 1-3 3-8 5h-2l2-4z" fill="#343335"/>
<path transform="translate(1085,161)" d="m0 0 2 1 1 2-5 1v2l-10 1 4-4z" fill="#4F4F51"/>
<path transform="translate(1255,1357)" d="m0 0 3 1-6 6h-2v2l-8 6 2-4z" fill="#131214"/>
<path transform="translate(447,700)" d="m0 0 10 1 15 3v1l-18-1-4-1v-2z" fill="#4E4D4E"/>
<path transform="translate(818,582)" d="m0 0 3 1-1 2-7 2h-5l-2 1-2-2z" fill="#3C3B3D"/>
<path transform="translate(1500,1200)" d="m0 0 4 1 2 6v6h-2l-2-9h-2z" fill="#535254"/>
<path transform="translate(1734,1114)" d="m0 0h6v3l-3 1-1 15h-1z" fill="#232325"/>
<path transform="translate(1754,835)" d="m0 0h8l9 2 1 3-10-2-8-2z" fill="#030204"/>
<path transform="translate(1046,795)" d="m0 0 13 3 2 4-7-1-4-3-4-2z" fill="#555658"/>
<path transform="translate(797,715)" d="m0 0h9l2 1v2l-8 1-4-2z" fill="#252426"/>
<path transform="translate(1339,1319)" d="m0 0 18 1 3 3-12-1-9-2z" fill="#79797A"/>
<path transform="translate(1302,1312)" d="m0 0 9 4 4 2h-7l-8-2-1-3z" fill="#535356"/>
<path transform="translate(551,883)" d="m0 0 2 1-9 10-1-3 2-7 1 2z" fill="#4C4C4F"/>
<path transform="translate(1722,35)" d="m0 0 13 2v2l-17-1z" fill="#2E2D2F"/>
<path transform="translate(895,32)" d="m0 0h10l4 2-1 1h-11l-2-1z" fill="#121114"/>
<path transform="translate(1802,1387)" d="m0 0 3 2h-2v2l-11 1-2-2z" fill="#8D8C8D"/>
<path transform="translate(123,1021)" d="m0 0 9 1 7 2-3 2-10-2z" fill="#272628"/>
<path transform="translate(682,851)" d="m0 0 1 3-4 14-2-1 2-10z" fill="#5E5E61"/>
<path transform="translate(53,551)" d="m0 0 2 2-5 3-8 4-3-1 10-6z" fill="#4A4B4E"/>
<path transform="translate(766,878)" d="m0 0h2l1 3v8l-3-1-1-7z" fill="#0F0D0F"/>
<path transform="translate(75,777)" d="m0 0h2v4l-8 3v-2l-3-1z" fill="#5D5D5F"/>
<path transform="translate(426,695)" d="m0 0 6 1 5 1v1h-6l-2-1v2l-12-1v-1z" fill="#5C5C5E"/>
<path transform="translate(60,548)" d="m0 0h4v3l-7 3-3-3z" fill="#545457"/>
<path transform="translate(264,460)" d="m0 0h13l9 1-3 2h-7l-12-2z" fill="#2F2E30"/>
<path transform="translate(1110,140)" d="m0 0 1 3-8 10-3-2 9-9z" fill="#363437"/>
<path transform="translate(1080,83)" d="m0 0 5 2 11 7 2 4-11-7-7-5z" fill="#DEDEDE"/>
<path transform="translate(1720,33)" d="m0 0h9l5 1v1l-9 1-12-1v-1z" fill="#8F8E90"/>
<path transform="translate(1744,1387)" d="m0 0 3 1h-2l2 5-6 2-1-4z" fill="#424244"/>
<path transform="translate(113,1021)" d="m0 0 12 3 1 2-9-1-8-2z" fill="#242325"/>
<path transform="translate(409,693)" d="m0 0 4 1v1h13l-2 2h-16l-1-3z" fill="#323032"/>
<path transform="translate(655,447)" d="m0 0 4 1 1 1v7l-4-4-1 2-1-5z" fill="#0D0B0D"/>
<path transform="translate(1840,107)" d="m0 0 3 2v2h2l3 9-5-5-4-6z" fill="#8D8D8E"/>
<path transform="translate(1841,1378)" d="m0 0 3 1-2 2-7 2h-9v-1z" fill="#494A4C"/>
<path transform="translate(1940,1187)" d="m0 0h1v7l-2 8-3-1 2-6 1-7z" fill="#313032"/>
<path transform="translate(1824,935)" d="m0 0h4l2 5h-7l-1-4z" fill="#040305"/>
<path transform="translate(466,583)" d="m0 0 7 6 4 5h-3l-8-8z" fill="#5B5B5E"/>
<path transform="translate(841,576)" d="m0 0h10l-1 2-12 3v-4z" fill="#0E0D0F"/>
<path transform="translate(1023,64)" d="m0 0 10 2 8 3v2l-10-3-8-3z" fill="#C3C2C3"/>
<path transform="translate(890,31)" d="m0 0h9l-4 1v2l2 1-10-1-1-2z" fill="#2F2F31"/>
<path transform="translate(1290,1337)" d="m0 0 7 1-1 2-6 2v-2l-6 1 3-3z" fill="#4A4A4C"/>
<path transform="translate(1530,1263)" d="m0 0h3l7 11h-3l-7-10z" fill="#141315"/>
<path transform="translate(327,1171)" d="m0 0 19 1v1l-14 1-5-2z" fill="#333234"/>
<path transform="translate(682,820)" d="m0 0h2v9l-2 6h-1v-9z" fill="#59595C"/>
<path transform="translate(687,800)" d="m0 0 2 1v2h2l3 3 1 6-3-2v-2h-2l-3-6z" fill="#515254"/>
<path transform="translate(529,718)" d="m0 0 10 3 3 2-7 2-2-5h-4z" fill="#444345"/>
<path transform="translate(69,415)" d="m0 0 8 2-4 1-1 3-5-2-1-3z" fill="#424346"/>
<path transform="translate(1103,142)" d="m0 0h2l-2 4-6 7-4 1 6-7z" fill="#212022"/>
<path transform="translate(914,33)" d="m0 0 11 1 4 2-5 1-10-2z" fill="#828183"/>
<path transform="translate(1810,1389)" d="m0 0m-7 1h7v2l-2 1h-10l2-2z" fill="#262527"/>
<path transform="translate(281,1309)" d="m0 0 5 1 3 1 1 3h-6l-3-3z" fill="#151416"/>
<path transform="translate(1929,1017)" d="m0 0h3l-1 5-3 2-1-3-3-2z" fill="#535456"/>
<path transform="translate(686,551)" d="m0 0 3 4v13h-1v-8h-2z" fill="#171618"/>
<path transform="translate(1936,1169)" d="m0 0 2 4-3 14h-1v-9z" fill="#333133"/>
<path transform="translate(163,1031)" d="m0 0 10 1 5 1v1h-11l-4-1z" fill="#1B1A1C"/>
<path transform="translate(13,586)" d="m0 0 2 3v2h-2l-2 5h-2l2-8z" fill="#424346"/>
<path transform="translate(684,548)" d="m0 0h1l2 13-3-1-2-10h2z" fill="#424346"/>
<path transform="translate(646,485)" d="m0 0 2 2-2 10-3 1 2-9z" fill="#555558"/>
<path transform="translate(297,463)" d="m0 0h7l2 1v2l2 1-8-1-3-1z" fill="#0C0B0D"/>
<path transform="translate(1818,1388)" d="m0 0h4v2l-12 2 1-3z" fill="#333234"/>
<path transform="translate(192,1227)" d="m0 0 4 4 4 6-1 2-8-9z" fill="#777678"/>
<path transform="translate(1734,937)" d="m0 0 4 1-1 5-2 4z" fill="#080709"/>
<path transform="translate(758,564)" d="m0 0 1 4-1 4-4 1 1-7z" fill="#19181A"/>
<path transform="translate(58,313)" d="m0 0h4v2l-7 4h-2v-3z" fill="#38383A"/>
<path transform="translate(320,193)" d="m0 0h1v6l-1 2h-4l1-4z" fill="#2F2E30"/>
<path transform="translate(89,180)" d="m0 0h5v3l-3 1-10-1v-1z" fill="#454548"/>
<path transform="translate(1031,64)" d="m0 0 9 1v3l-9-2z" fill="#2C2A2C"/>
<path transform="translate(1747,849)" d="m0 0 4 1-3 2z" fill="#8D8C8D"/>
<path transform="translate(2044,1113)" d="m0 0h1v5l-2-2z" fill="#8D8C8D"/>
<path transform="translate(1717,1388)" d="m0 0 3 1z" fill="#8D8C8D"/>
<path transform="translate(1200,1441)" d="m0 0" fill="#8D8C8D"/>
<path transform="translate(1890,650)" d="m0 0" fill="#8D8C8D"/>
</svg>
