<?xml version="1.0" encoding="UTF-8"?>
<svg version="1.1" viewBox="0 0 2048 1911" width="210" height="196" xmlns="http://www.w3.org/2000/svg">
<path transform="translate(1366,15)" d="m0 0h16l10 4 10 7 6 7 3 12 6 50 6 66 6 56 5 57v9l-3 12-7 9-8 7-12 3-44 6-19 2h-48l42 4 41 7 56 7 48 7 65 8 260 33 133 17 70 10 16 4 14 7 4 4 3 7v24l-3 32-6 48-11 86-6 51-3 12-6 10-9 11-6 3h-20l-24-2-78-10-67-9-60-7-69-9-44-6-163-20-39-5-43-6-1 63 16-3 14-3 27-2h25l18 1 25 6 16 6 12 7 14 10 9 7 10 9 11 14 12 19 8 15 8 21 5 23 2 16 1 33 187-6 49-1h116l10 2 11 9 9 10 6 9 1 3 1 12 2 122 2 92 4 139v62l-4 10-9 13-6 7-10 5-9 2-28 2-33 1-63 1-90 1-114 2-212 6-130 3-70 1-2 29-7 67-7 65-4 29v3l83-4 108-6 193-10 112-5 70-4 143-6 39-2h28l12 4 8 7 4 5 4 13 3 24 3 51 3 88 2 44v40l-6 10-7 7-11 4-26 3-42 3-152 7-128 7-72 3-150 8-95 4-115 6-112 5-116 6-88 4-33 2h-30l-7-4-9-9-5-9-2-13-5-67-4-67-2-52-1-56-24-1-43-3-18-2-13-3h-5l5 7 2 7 1 22-1 14-4 13-7 13-8 10-7 7-10 7-15 7-9 3-14 2h-14l-16-4-12-5-10-7-10-9-9-11-9-17-3-14v-19l2-16 9-20 2-4-1-1-53-7-80-8-55-6-45-5-90-10-42-5-51-5-35-4-53-5-28-5-17-5-8-7-5-10-1-4v-20l5-58 7-58 4-42 9-65 3-11 6-7 5-5 7-6h16l61 5 69 8 131 14 16 2h10l10-9 11-12 10-9 32-32 10-14 1-4-13-1-101-1-1-1v-5l105-1 7-2v-6l-7-9-30-30-8-7-23-23-6-5-4-5v-2l7 2 16 13 8 8 8 7 8 8 8 7 24 24 9 6 5 2 1-8 2-103 1-2h5l1 1v110l5 1 14-12 28-28 7-8 23-23 7-5 4 1-2 5-22 22-7 8-14 15-11 12-8 7-12 13-3 4 13 1 21 1 83 1 1 4-3 2h-115l9 16 60 60 10 13 5 9-4-2-8-7-14-14-7-8-16-15-26-26-14-10-3-1-1 18v61l34 3 41 4 38 5 220 24 17 2-4-157-5-159-1-5-70-1-152-1-96-2-268-6-93-1-51-1-9-2-8-6-12-12-9-14-1-5v-61l3-122 2-63 2-76 1-18 3-9 6-8 8-8 15-10 2-1h53l222 6 128 2 159 1 83 1 94 2 75 2 68 1 50 2-61-6-32-4-39-4-20-4-17-5-9-6-6-8-1-4v-24l3-32 6-42 5-43 6-31 1-4-15 1-149 14-47 4-54 6-53 5-46 5-65 6-110 11-26 3h-19l-6-4-16-16-3-8-3-28-10-94-4-45-6-56v-24l6-10 7-7 8-5 9-2 71-8 78-7 66-7 49-5 56-6 64-6 40-4 62-6 43-5 53-5 42-5 167-16 66-7 88-9 56-5 52-5 52-4zm68 687-23 2-11 2 5 5 11 12 9 13 4 6 6-2 18-8 20-5-3-9-5-12-3-4zm38 0 6 16 5 8 1 1 54-1 2 4h3l-8-9-11-8-9-4-24-6-6-1zm-83 6-2 1-1 24v28l1 5 6-2 24-14 5-3-1-5-13-18-9-11-5-4zm86 23m1 1-8 3-24 8-11 6 4 7 13 16 7 8 4 1 15-9 22-9-2-6-11-16-8-9zm67-1v3l-13 1h-41l6 9 10 13 3 1 16-6 27-6 5 1 2 1-2-5-7-8zm15 17m1 2v2l-6 1-13 3-20 4-8 3 6 8 10 8 4-2 10-9 11-11 4-3 4-1-1-3zm-135 4-18 10-16 10-5 5 1 5 10 9 7 7 11 9 3 2 5-1 8-7 16-12 5-4-2-5-12-16-7-9-2-3zm145 2 1 4 3 5-2 10-10 14-5 14 1 3 8 7 11 8 3 1v-23l-2-12-2-6v-4l6 8 3 7 1 8 1 26 3 5 19 11h1l-1-14-6-23-5-12-11-18-9-12-7-7zm-7 3-8 7-8 6-9 10-3 3 2 4 10 8 3 1 6-11 7-12 1-3v-13zm-61 9-27 12-10 6 2 5 12 14 7 8 2 2 4-1 10-9 15-14 5-5-2-4-6-7-9-7zm24 24-17 16-10 10-2 3 1 4 16 15 9 6 4-1 8-15 8-14 3-6-2-6-10-9-5-3zm-70 1-13 9-14 11-4 4 1 4 18 18 11 9 5-1 10-10 8-7 5-5-1-5-12-14-7-8-5-5zm-69 1-1 22v27l1 7 5-5 7-8 9-9 6-7-1-4-10-10-11-9zm166 19-15 26-7 12 1 3 8 7 15 12 9 5h3l3-10 6-24 2-14-10-8-13-9zm-134 13-10 9-9 8-7 8-4 5 1 4v-2l21 21 3 4 10 1 6-4 7-8 7-6 7-9-4-6-10-10-8-7-9-8zm69 3-15 14-1 3-4 2-6 7 1 4 15 16 10 10 4 1 7-3 9-11 9-13 1-4-4-6-10-9-14-11zm97 8-7 27-6 18 1 1h37l2-2v-18l-2-15-22-11zm-195 23 1 2zm134 1-16 22 3 2h43l1-2-11-9-18-13zm-134 2-3 11-1 13 4 1h8l5-2h9l-5-4-14-14-2-5zm65 0-9 10-9 11 3 2h36l-2-4-7-8-10-11zm-1008 339-11 6-46 46-8 7-11 10v2l16 2 38 3 19 2h7l1-4-1-73z" fill="#1C1A1C"/>
<path transform="translate(1975,1027)" d="m0 0h32l1 1 4 165 2 78 1 72-7 11-9 11-10 5-9 2-28 2-33 1-63 1-90 1-114 2-177 5h-104l-117-1-14-1-9-3-9-7-8-3-24-5-38-5-66-8-49-5-42-5-49-5-43-5-53-5-35-4-1-1-1-24-3-157-1-85 1-3 112-2 70-2 83-3 96-3 55-1 160-1 59-1 135-4 86-3 39-1 71-1 127-1z" fill="#FDFDFD"/>
<path transform="translate(870,280)" d="m0 0h13l38 3 81 9 63 8 95 13 53 6 60 8 58 7 69 11 114 14 40 5 101 13 74 9 39 5 10 2 2 3-1 18-16 126-17 136-4 1-68-9-82-9-68-8-92-12-113-14-83-11-66-9-54-7-67-9-65-8-43-5-68-9-31-6-17-5v-16l2-31 4-38 8-71 5-30 4-35 5-27 6-18 4-8z" fill="#FEFEFE"/>
<path transform="translate(1721,1565)" d="m0 0h32l1 1 2 24 3 62 4 101 5 76 1 17-7 3-73 4-70 3-190 11-76 5-98 5-219 8-59 2-51 2-40 1h-34l-11-2-3-4-3-26-6-101-2-47-1-41v-41l2-9 7-8 7-2 84-6 31-2 99-4 141-8 152-8 85-4 56-2 97-5 73-3z" fill="#FEFEFE"/>
<path transform="translate(52,1251)" d="m0 0h22l84 6 119 13 79 8 235 25 51 5 36 4 51 5 80 9 58 7 65 7 42 5 1 1-1 7-3 20-10 88-7 64-6 48-1 16-3 5-1 1-41 3-49 4-20 3-2 1-2 8-6 1-12-2-57-3-30-4-12-1-9-9-6-7-15-11-8-4-18-4-19-1-16 2-12 4-10 6-12 10-7 1-61-8-125-13-134-13-98-10-95-11-27-4-18-3-4-5-1-3 4-46 13-113 11-81 4-24z" fill="#FDFDFD"/>
<path transform="translate(1133,44)" d="m0 0h4l1 2 8 72 10 100 6 58 4 26v4l-26-2-81-10-44-6-82-10-41-3h-25l-6 2-6 8-5 13-5 21-4 25-3 20-4 4-67 5-84 8-85 8-60 5-72 7-54 5-49 5-56 5-41 4h-14l-2-2-4 2-6-7 2-1-4-2-2-4-5-46-8-77-6-61-3-26-2-30v-14l3-7 11-7 5-2 58-7 107-10 54-5 201-23 52-5 59-6 41-4 44-5 44-4 63-7 58-5 47-4 50-4 20-2z" fill="#FDFDFD"/>
<path transform="translate(38,743)" d="m0 0h42l50 1 226 1 76 1 104 3 88 3 137 3 68 1 266 1 92 2 111 3 68 3 13 1 1 4v115l-1 1-56 2-54 1-242 6-53 1h-42l-1-3 1-4v-25l-4-13-8-16-8-10-7-7-12-6-14-4-13-2-19-1-36-1-183-2h-80l-13 1-15 6-12 9-5 4-9 13-7 16-3 14v10l3 14 5 12 7 10 7 8 13 9 10 5 12 3 8 1 70 2 94 2 76 2 9 1 1 4v40l-3 2 2 1-1 3h-5l-1 1-59 1h-101l-55 1-96-2-268-6-93-1-51-1-9-2-6-4-2-11-6-7-2-4-9-2-1-11v-38l1-95 2-56 1-13z" fill="#FDFDFD"/>
<path transform="translate(71,572)" d="m0 0h53l222 6 128 2 159 1 83 1 94 2 56 2 169 11 51 4 67 8 211 27 16 3 1 2v32l-1 83h-33l-187-6-56-1-340-2-143-3-79-2-61-2-250-2-94-1-91-2-8-1v-12l6-108 4-16 9-8 8-7v-6l4-4z" fill="#FEFEFE"/>
<path transform="translate(1844,880)" d="m0 0h142l10 9 9 11 1 46v71l-36 2-39 1-110 1-126 2-88 2-120 4-136 3-202 3-157 5-138 4h-45l-1-5-2-55v-48l4-8 12-12 11-9 9-2 44-1 96-1 117-4 295-7 155-2 79-2 177-7z" fill="#FEFEFE"/>
<path transform="translate(1370,20)" d="m0 0h17l4 5 10 4 4 5 3 15 4 42 8 86 5 59 5 44v7l-5 1v3l-2 1v7l4 1-3 2-19 3-77 11-21 2h-28l-52-3-48-6-4-2-2-9-6-46-6-59-13-124-3-23-1-6h14l46-4 56-6 70-6z" fill="#FDFDFD"/>
<path transform="translate(981,1346)" d="m0 0 16 1 131 15 69 9 15 3 8 4 10 7 1 3v20l-4 46-10 94-4 29-2 5-2 1-61 4-66 3-67 2-57 2-5-1 1-17 8-62 15-144 3-21z" fill="#FEFEFE"/>
<path transform="translate(1763,1146)" d="m0 0h32l9 2 5 3 8 11 2 8 1 15v56l-2 11-4 6-7 6-12 5-6 1-17 1-35 1-64 1-165 2-34 1h-29l-10-3-7-6-5-10-2-9-1-16v-48l2-15 4-6 16-10 2-1 9-1 50-1 103-1 67-1z" fill="#1C1A1C"/>
<path transform="translate(1328,1162)" d="m0 0h48l8 3 3 3 3 10 2 25 1 25v19l-1 11-3 5-8 5-17 3-34 2-124 3h-177l-9-1-6-3-4-7-3-15-2-26v-25l2-15 3-6 5-5 7-4 11-2 135-1z" fill="#FEFEFE"/>
<path transform="translate(452,1056)" d="m0 0h5l1 1v110l5 1 14-12 28-28 7-8 23-23 7-5 4 1-2 5-22 22-7 8-14 15-11 12-8 7-12 13-3 4 13 1 21 1 83 1 1 4-3 2h-115l9 16 60 60 10 13 5 9-4-2-8-7-14-14-7-8-16-15-26-26-14-10-3-1-1 18-1 60-7-1v-77l-6 1-10 6-45 45-8 7-10 9-2 2-7-2 12-12 7-8 13-12 31-31 10-14 1-4-13-1-101-1-1-1v-5l105-1 7-2v-6l-7-9-30-30-8-7-23-23-6-5-4-5v-2l7 2 16 13 8 8 8 7 8 8 8 7 24 24 9 6 5 2 1-8 2-103z" fill="#222022"/>
<path transform="translate(1351,1155)" d="m0 0h27l9 3 7 6 3 6 2 17 1 16 1 45-2 13-5 8-8 5-12 3-7 1-20 1-162 4h-150l-14-1-9-3-5-4-5-11-3-15-1-12v-40l3-16 5-10 8-6 11-3 11-1 91-1 145-3zm-23 7-160 4-135 1-11 2-10 6-4 6-2 7-1 11v25l2 26 3 15 4 7 6 3 9 1h177l124-3 34-2 17-3 8-5 3-5 1-11v-19l-2-41-2-12-3-8-3-3-7-2z" fill="#1C1A1C"/>
<path transform="translate(634,1575)" d="m0 0h16l10 2 13 5 1 2-10 4-10 8-9 12-5 12-2 8v11l2 1-1 4-5 2-2-4-4-2-7-8-4-8-4-16-2-22-4 8-1 4v12l4 16 6 10 5 6 10 4 8 1-1 5-7 3-6 1h-19l-12-1-13-4-7-2v-23l4-13 10-14 8-8 14-9 13-5z" fill="#FEFEFE"/>
<path transform="translate(304,632)" d="m0 0h16l9 5 6 7 4 8 1 3v12l-4 8-8 9-8 5-3 1h-11l-10-5-7-7-5-9-2-5v-9l5-10 6-7 8-5z" fill="#1C1A1C"/>
<path transform="translate(216,631)" d="m0 0h15l10 5 7 8 4 9 1 9-4 11-9 10-10 5-9 1-8-2-6-4-7-8-4-10v-16l5-8 9-8z" fill="#1C1A1C"/>
<path transform="translate(129,630)" d="m0 0h13l10 4 6 5 5 10 1 5v8l-3 10-8 9-11 5h-15l-10-5-5-6-4-10-1-13 4-10 8-8z" fill="#1C1A1C"/>
<path transform="translate(675,1584)" d="m0 0 9 3 9 7 7 7 7 11 5 12 1 17-6-2-16-6-10-1 7 2-3 2-11-2h-26l-4-3 1-8 6-12 9-10 4-5 6-5z" fill="#FDFDFD"/>
<path transform="translate(375,163)" d="m0 0h11l9 4 5 4 4 8 1 5v8l-4 13-5 5-11 6h-12l-8-4-7-7-4-10v-15l6-10 10-6z" fill="#1C1A1C"/>
<path transform="translate(275,1312)" d="m0 0h9l9 3 7 6 3 6 1 4v13l-4 9-4 5-9 6-3 1h-12l-10-6-6-8-3-7-1-8 3-10 7-9 8-4z" fill="#1C1A1C"/>
<path transform="translate(574,1652)" d="m0 0 9 5 10 5 5 1h26l18-2 2 1v6l-6 10-12 13-15 13-6 5h-2l-3-3-6-4-9-10-8-14-3-9-1-7v-8z" fill="#FEFEFE"/>
<path transform="translate(979,1644)" d="m0 0h18l8 4 6 8 2 6v15l-4 8-7 7-10 4h-8l-8-3-8-7-5-9-1-4v-11l6-12 8-5z" fill="#1C1A1C"/>
<path transform="translate(117,1296)" d="m0 0h12l10 4 5 5 5 8 1 8-3 10-6 9-7 5-3 1h-15l-8-3-6-5-5-10-1-5v-7l3-7 7-8 7-4z" fill="#1C1A1C"/>
<path transform="translate(299,169)" d="m0 0 10 1 9 6 6 9 2 7v11l-4 10-8 7-5 2h-16l-7-3-5-5-3-4-2-6v-15l6-10 7-6z" fill="#1C1A1C"/>
<path transform="translate(1079,347)" d="m0 0h13l9 3 7 7 4 8 1 5v9l-3 9-9 8-8 3h-13l-8-4-7-8-2-5v-16l4-10 4-5z" fill="#1C1A1C"/>
<path transform="translate(652,1646)" d="m0 0 5 5 6 7 6 10 4 14 2 16v10l-6 5-12 3-8 1h-22l-10-1-4-2 1-5 18-13 6-5 9-14 2-6 1-20z" fill="#FEFEFE"/>
<path transform="translate(433,580)" d="m0 0h41l159 1 83 1 56 1 19 1v1l-53 1h-423l-102-1-48-1v-1l268-2z" fill="#1C1A1C"/>
<path transform="translate(666,1636)" d="m0 0h10l14 3v2l22 4 1 1v12l-3 15-10 19-8 10-4 3h-5l-1-1-3-31-6-12-9-10-10-10v-3z" fill="#FEFEFE"/>
<path transform="translate(450,156)" d="m0 0h15l8 4 6 8 3 7v11l-4 10-4 5-9 6-3 1h-11l-8-4-7-8-4-11v-11l3-7 6-7z" fill="#1C1A1C"/>
<path transform="translate(193,1305)" d="m0 0h13l9 3 7 7 3 7v15l-4 9-7 7-8 4h-11l-8-4-7-8-4-9v-14l4-8 8-7z" fill="#1D1B1D"/>
<path transform="translate(56,982)" d="m0 0 61 1h283v1l-27 1-5 1 8 1 31 1 4 2-1 2h-60l-138-3-93-1-51-1-9-2z" fill="#222022"/>
<path transform="translate(1540,1373)" d="m0 0h412v1l-33 1-63 1-90 1-114 2-80 2h-38v-1l5-1v-1l-6-2 1-2z" fill="#1E1C1E"/>
<path transform="translate(1043,949)" d="m0 0h10l8 5 3 4 2 7v10l-4 8-8 7-2 1h-7l-6-3-5-4-4-6-2-7 1-9 5-8z" fill="#FEFEFE"/>
<path transform="translate(884,954)" d="m0 0h10l9 3 4 4 2 6v11l-3 6-7 6-6 3h-6l-10-6-5-8-2-7 1-8 4-6 5-3z" fill="#FEFEFE"/>
<path transform="translate(1e3 345)" d="m0 0h9l10 4 5 5 3 6v9l-4 7-10 6-7 1-9-3-6-4-4-7v-9l3-8 5-5z" fill="#FEFEFE"/>
<path transform="translate(962,952)" d="m0 0h11l10 5 4 6 1 4v8l-3 7-5 5-8 5-7 1-8-6-4-7-1-6v-8l4-10z" fill="#FEFEFE"/>
<path transform="translate(905,1653)" d="m0 0h7l9 3 5 6 1 3v13l-3 6-7 6-8 2-10-3-7-8-2-4v-10l3-6 5-5z" fill="#FEFEFE"/>
<path transform="translate(927,333)" d="m0 0 10 1 8 6 2 4 1 16-3 6-5 4-6 2h-7l-9-4-6-7-1-9 3-9 5-6z" fill="#FEFEFE"/>
<path transform="translate(882,947)" d="m0 0h17l10 5 6 9 1 5v15l-4 8-9 8-10 4-10-1-10-6-7-9-4-10v-8l3-9 5-6 8-4zm2 7-7 3-5 5-2 5 1 9 4 8 5 5 7 4 9-1 8-6 4-5 1-3v-11l-3-7-3-3-9-3z" fill="#1C1A1C"/>
<path transform="translate(925,325)" d="m0 0h9l11 4 5 4 4 7 1 6v16l-3 8-5 5-7 4h-16l-10-4-7-8-3-6v-14l6-12 8-7zm2 8-8 4-5 6-3 9 1 9 6 7 9 4h7l8-3 5-6 1-3-1-16-4-6-6-4z" fill="#1C1A1C"/>
<path transform="translate(1061,1645)" d="m0 0h9l6 3 6 7 2 8v8l-3 6-8 7-3 1h-8l-8-5-4-6-1-3v-12l5-10z" fill="#FEFEFE"/>
<path transform="translate(1e3 336)" d="m0 0 12 1 10 5 7 9 3 9-1 12-4 8-7 6-7 3-11 1-10-3-8-6-4-5-3-8 1-11 4-10 6-7 6-3zm-2 9-8 4-4 7-1 4v9l5 8 9 5 6 1 8-2 9-6 3-6v-9l-4-8-5-4-9-3z" fill="#1C1A1C"/>
<path transform="translate(964,944)" d="m0 0h9l10 3 7 6 5 8 1 3v12l-3 8-7 8-10 6-6 2h-7l-6-4-5-5-4-5-3-7-1-12 2-9 5-8 5-4zm-2 8-6 4-4 10v8l2 8 4 6 7 5 7-1 8-5 5-5 3-7v-8l-3-7-5-5-7-3z" fill="#1C1A1C"/>
<path transform="translate(1059,1638)" d="m0 0h14l8 4 7 8 3 7 1 11-2 9-6 8-10 7-2 1h-11l-8-4-5-4-6-9-1-3v-15l3-8 8-9zm2 7-7 4-5 10v12l4 8 5 4 4 2h8l6-3 7-8 1-3v-8l-2-8-7-8-5-2z" fill="#1C1A1C"/>
<path transform="translate(904,1646)" d="m0 0h13l8 4 7 8 2 5v16l-3 9-5 5-7 4-6 2h-9l-10-4-8-7-4-7v-15l5-10 7-6 6-3zm1 7-7 3-5 5-3 6v10l5 8 6 5 10 2 8-3 7-8 1-3v-13l-3-6-5-4-7-2z" fill="#1C1A1C"/>
<path transform="translate(980,1652)" d="m0 0h13l8 4 5 6v15l-4 5-9 5-9 1-6-3-5-5-3-5v-13l4-6z" fill="#FEFEFE"/>
<path transform="translate(1041,942)" d="m0 0h15l8 4 6 8 3 9v10l-2 9-6 8-11 7-3 1h-8l-9-5-8-9-5-9v-14l6-10 7-6zm2 7-10 6-4 7-1 9 3 9 5 6 6 4 3 1h7l6-4 6-7 2-5v-10l-3-9-6-5-4-2z" fill="#1C1A1C"/>
<path transform="translate(1080,355)" d="m0 0h11l8 4 4 5 2 7v10l-4 6-5 3-4 1h-11l-6-4-5-8v-13l3-6 5-4z" fill="#FEFEFE"/>
<path transform="translate(59,1241)" d="m0 0h16l61 5 69 8 56 6 27 3v1h-10l-60-5-53-6-71-5-38-4z" fill="#FAFAFA"/>
<path transform="translate(71,572)" d="m0 0h53l187 5v1h-66l-127-1-52-1z" fill="#1C1A1C"/>
<path transform="translate(1703,103)" d="m0 0 3 1-3 6-9 10-45 45-12 9h-3l1-4 18-20 4-4h2l2-4 17-16 18-18z" fill="#1D1B1D"/>
<path transform="translate(1606,197)" d="m0 0 2 1-4 9-12 14-13 13-7 8-16 16-11 9-6 4-5 1 2-4 47-47 14-16 8-7z" fill="#1F1D1F"/>
<path transform="translate(1632,201)" d="m0 0 5 1 10 8 13 13 8 7 11 11 8 7 12 12 8 11v2l-5-2-8-7-10-9-11-11-8-7-25-25-8-10z" fill="#2E2C2E"/>
<path transform="translate(1537,104)" d="m0 0 5 2 10 9 7 7 8 7 13 13 8 7 12 12 5 8v5l-4-1-9-9-7-8-21-21-8-7-19-19-1-4z" fill="#282628"/>
<path transform="translate(611,1585)" d="m0 0h1l2 23 4 16 5 10 12 12-4 1-10-4-7-8-6-12-3-13v-12l4-10z" fill="#1C1A1C"/>
<path transform="translate(1511,180)" d="m0 0h82l-3 2-11 1-47 1-25 2-2-2v-3z" fill="#3E3D3E"/>
<path transform="translate(1537,104)" d="m0 0 5 2 10 9 7 7 8 7 13 13 8 7 7 7h-3l-12-11-7-6-6-3-16-15-13-13-2-1z" fill="#E6E6E6"/>
<path transform="translate(1613,73)" d="m0 0 5 1-3 58v35h-2l-1-2v-27l1-44z" fill="#FEFEFE"/>
<path transform="translate(1421,339)" d="m0 0 11 1 48 7 57 7v1h-10l-45-5-37-5-24-3z" fill="#FEFEFE"/>
<path transform="translate(2009,1343)" d="m0 0 4 2-4 8-10 12-10 5-2-1 3-5 2-5 4-2 11-13z" fill="#363436"/>
<path transform="translate(1615,212)" d="m0 0h1l1 37v24l-1 13v14l-2 1-1-2v-25l1-54z" fill="#494749"/>
<path transform="translate(33,957)" d="m0 0 10 1 9 12 2 9h-3l-12-12-6-9z" fill="#2D2B2D"/>
<path transform="translate(1988,885)" d="m0 0 5 1 9 10 1 2v7l-3-2v-2h-6l-5-5-3-6 1-4z" fill="#242224"/>
<path transform="translate(1406,311)" d="m0 0 3 2-49 7-13 1-13-1v-1l56-6z" fill="#FEFEFE"/>
<path transform="translate(1662,179)" d="m0 0h32l31 1 9 1v7l-1 3h-2l-1-5 1-3-35-1-34-2z" fill="#3A383A"/>
<path transform="translate(850,1895)" d="m0 0 49 3v1l-17 1h-30l-1-3-2-1z" fill="#FEFEFE"/>
<path transform="translate(1682,244)" d="m0 0 7 6 10 10 8 11v2l-5-2-5-4-6-12-9-9z" fill="#CECDCE"/>
<path transform="translate(1761,1559)" d="m0 0h5l3 3-1 5-4 2-6-1-2-4z" fill="#FEFEFE"/>
<path transform="translate(1613,109)" d="m0 0 2 1v57h-2l-1-2v-27z" fill="#2E2C2E"/>
<path transform="translate(719,1606)" d="m0 0 19 3 7 2-1 2-14-1-10-1-2-2h2z" fill="#FEFEFE"/>
<path transform="translate(834,565)" d="m0 0h15l18 4v1h-10l-13-1-10-3z" fill="#FEFEFE"/>
<path transform="translate(1614,275)" d="m0 0h2v25l-2 1-1-2v-22z" fill="#A1A1A1"/>
<path transform="translate(1613,73)" d="m0 0h3v13l-1 18h-1z" fill="#2F2D2F"/>
<path transform="translate(2e3 1350)" d="m0 0 1 3-6 7-4 3h-2l1-3 5-4z" fill="#FEFEFE"/>
<path transform="translate(1730,181)" d="m0 0h4v7l-1 3h-2l-1-5z" fill="#2A282A"/>
<path transform="translate(1613,152)" d="m0 0h1l1 15h-2l-1-2v-10z" fill="#ddd"/>
<path transform="translate(1614,286)" d="m0 0h1l1 14-2 1-1-2v-9z" fill="#848384"/>
<path transform="translate(1654,178)" d="m0 0h7v1h-7z" fill="#FEFEFE"/>
<path transform="translate(1652,178)" d="m0 0" fill="#FEFEFE"/>
</svg>
