<?xml version="1.0" encoding="UTF-8"?>
<svg version="1.1" viewBox="0 0 2048 1657" width="210" height="170" xmlns="http://www.w3.org/2000/svg">
<path transform="translate(959,10)" d="m0 0 4 1 4 16 5 21 1 7 3 2 5-1 5-3 9-11 14-15 4-3h4v10l-12 36-1 6 13-3 31-9 9-2 2 1-2 5-28 28-8 10 14-1 15-3 19-1 32-6 18-2 24-6 16-2h28l7 4 8 8 8 14 4 14 6 38 4 25 4 31 4 26 1 3-2-27 9-10 9-9 10-6 9-1 84 4 87 6 66 4 77 5 217 14 46 3 72 5 91 7 16 2 8 4 12 14 4 5v50l-5 52-3 42-3 50-6 84-5 83-6 96-8 103-3 9-4 6-9 8-5 3-4 1h-62l-44-2-7-1 2 21 6 92 4 65 5 78 4 65 4 58 4 71 4 53 4 75 6 79v40l-5 9-10 11-9 4-29 3-69 5-355 22-26 2h-21l-6-3-10-8-8-8-3-7-1-6-4-75-1-5-6 2-5 5-4 1h-13l-111-6-69-5-69-4-68-5-67-4-87-6-7-1 4 9 2 12 2 20v18l-4 15-7 16-7 13-12 15-7 8-15 12-17 11-12 5-13 3-24 2-18-2-20-1-7-3-5-5-6-4-21 7-13 2-43 3-253 16-156 11h-31l-11-8-11-12-4-7-2-14-4-68-4-52-4-74-5-71-4-72-5-71-3-57-6-86-3-54-5-69-1-19v-27l3-9 6-9 8-7 13-6 13-2 23-2-5-23-2-24-4-21-6-39-5-27-4-26-5-29-6-39-18-112-20-125-10-65-5-28v-14l8-16 5-6 12-6 22-5 69-11 81-14 163-26 82-13 40-6 83-13 33-6 80-13 52-8 29-5 28-4 12-3h5v-2l-15-1-13-3-4-4v-3l20-5 27-4 2-2-6-10-12-13-11-9-6-7v-3l7-1 27 8 7 3 13 2-3-14-10-30v-6l6-1 8 6 6 8 17 17 7 1 4-21 4-19 4-6zm-261 1451-8 1-1 3v18l5 27 7 8 13 13 4 1 7-8 11-11-1-4-7-7-11-9-9-8-7-8-8-8v-6l5 2 4 5 8 7 12 11 16 15 5 3 19-19-2-4-13-10-10-5-5 1-5 4 6-7-7-3-14-2zm58 3-20 1v1l12 2 10 6 8 7 4-1 9-9 2-5-17-2zm28 3 1 3 2-2zm8 1-6 4-13 13 2 4 8 8 2 3h2v2l3 1 9-11 11-20-3-3-7-1zm26 2-1 4 15 9 5 6 4 6 2 1-6 9-11 22 6 7 10 8 7 4 3-9 2-12v-13l-3-14v-12l-1-11 2-4h-7l-2 2h2l-1 4-5-6-6-1zm-4 7-12 21-5 8 1 4 10 9 9 5h3l10-19 1-5-5-9-9-13zm-47 15-8 7-12 12 2 4 7 7 7 8 4 2 4-1 11-14 4-5-1-5-5-5-9-8zm28 18 2 2v-2zm2 2m-4 3-6 5-8 11-6 5 1 4 19 19 4 1 8-9 7-10 4-8-2-4-18-13zm7 0m1 1m-107 1v32h4l12-10-1-5-11-11h-2l-1-6zm46 1-12 11-8 6 2 4 10 11 5 6 4 1 12-9 9-8-1-4-11-12-7-6zm84 18-14 19-9 10 6 8 13 13 3 1 9-10 9-14 4-9-1-4-9-7-10-7zm-110 7-13 11-5 8 2 9 3 5 2 2 7-1 16-9 7-5-2-4-10-11-4-5zm51 2-11 10-10 8 6 8 9 10 5 6 4-2 10-8 11-9 1-4-15-15-7-4zm-30 22-11 8-11 7-2 2 1 5 10 9 3 2 9-2 23-8-6-10-10-12zm60 6-10 7-13 10-4 3 2 5 6 10 4 6 5 1 15-8 12-9 4-4-1-5-12-12-5-4zm-98 14-2 2-2 7 1 7 6 14 4 3 9 1 11-2-1-5-5-8h-2l-2-4-5-8-3-6zm59 8-15 5-13 3 1 8 4 8 4 3h17l21-3 1-2-10-16-6-6z" fill="#221E21"/>
<path transform="translate(610,749)" d="m0 0 27 2 40 4 87 5 62 5 68 4 71 6 71 4 62 5 98 6 56 4 96 6 54 4 7 2v11l-2 29-2 41-3 31-3 45-4 52-6 91-2 22h2l2-6 2 2-1 26-2 34-1 11-2 3h-3l-1 3-1 27-4 53-4 73-6 78-2 36-1 10-10 9-6 9-3 2-40-2-93-6-79-6-62-4-85-6-65-6-83-6-51-4-36-2-57-2-7-2-4-63-3-56-5-78-5-81-9-140-4-68-6-69-3-32-4-16-6-9-8-5-8-2-21-2v-18l4-53 1-10z" fill="#FCFCFC"/>
<path transform="translate(650,974)" d="m0 0 3 1 1 2 2 56 6 91 4 74 4 62 7 124 5 75 2 27 4 97v18l-6 1v7l-9 3-3 2-48 4-162 12-221 15-39 3h-33l-4-4-2-7-8-3-3-3-3-1-3-8-2-29-3-49-4-52-4-74-5-71-3-57v-11l2 4 4 56 4 69 3 31 1 4-1-25-3-48-4-76-5-72-4-67-5-56-2-41-1-31v-20l4-2 19-2 83-4 88-6 124-8 110-6 64-3z" fill="#FCFCFC"/>
<path transform="translate(1863,924)" d="m0 0h10l2 2 4 85 5 74 4 58 4 52 7 116 6 93 7 100 1 24v19l-2 6-5 5-7 9-7 3-89 7-77 5-81 6-31 2h-10l-1-1h-27l-72 4-47 3-23 1-46 1-3-2v-3l-10-3-2-3h-3l1-2h2l-2-11-3-38-1-19v-30l3-12 4-40 7-84 4-60 6-87 8-123 4-62 4-64 2-1 23-2 108-5 182-12 63-4 69-6z" fill="#FDFDFD"/>
<path transform="translate(1233,337)" d="m0 0 24 1 118 7 93 5 61 4 118 8 55 4 66 4 74 6 59 4 60 5 65 4 9 1-1 25-5 80-3 36-5 85-4 50-4 77-5 63-1 24v6l-3 2-2 4v-2l-5 2-4 6-3 2-5 1h-34l-44-1-21-1-9-1-3-14-3-19-5-15-6-8-8-4-12-2h-13l-52 3-64 3-78 5-148 8-51 2h-18l-1-1v-12l3-43 1-10h9l39 4 42 3 57 3 56 4 62 3 101 8 59 4 84 7h8l1-2-20-3-48-5-38-3-55-3-75-6-70-4-85-6-40-2-69-6-16-2-1-1v-46l-5-14-5-8-10-5-19-3-53-4-37-3-76-4-1-1 2-51 4-70 5-71 7-116z" fill="#FDFDFD"/>
<path transform="translate(1220,221)" d="m0 0h7l1 3-1 27 1 18-2 65-2 37-4 75-7 96-4 80-1 24-27-1-72-4-25-2-1-1v-20h-41l-34 4-26 2 1 7-1 1-34-1-70-4-90-4-29-2v-1l35-4 53-9 13-1-1-19 6-2 33-5 59-8 53-8 5-1-1-12v-14l-39 7-73 11-74 11-55 8-52 8-67 11-41 7-56 10-79 13-85 13-72 10-53 8-43 7-5-1-3-17-2-13v-7l7-2 45-7 80-13 82-13 93-14 381-62 44-7 59-9 10-1v-17l9-3 41-7 22-5 2-1-1-25-45 8-49 8-46 8-69 11-87 13-54 8-71 11-49 8-53 9-68 12-54 9-70 11-115 17-44 7h-7l-2-5-4-29v-5l7-2 49-7 118-19 163-25 181-30 73-12 143-22 173-28 7-1 1-8v-12l9-2 37-6 7-2 1-7-1-6v-11l-55 8-57 9-133 23-96 16-60 9-83 12-59 9-138 23-79 14-41 7-80 12-83 13-11 1-2-3-4-29-1-6h-4l3 23 3 27 6 33 6 43 7 44 10 67 6 34 7 45 3 11 6 45 2 4 4 1-3-19-2-17v-6l92-15 68-11 79-12 82-13 30-6h7l2 2-1 22-2 26-2 47-8 1-186 12-84 6-58 4-45 3-41 2-6-2-2-8-3-14-4-39-4-36-9-63-17-99-11-61-12-68-8-49-2-11v-6l39-7 71-11 85-15 72-12 76-12 90-13 140-22 57-10 63-11 61-10 77-12 97-14 100-16 74-13z" fill="#FDFDFD"/>
<path transform="translate(959,10)" d="m0 0 4 1 4 16 5 21 1 7 3 2 5-1 5-3 9-11 14-15 4-3h4v10l-12 36-1 6 13-3 31-9 9-2 2 1-2 5-28 28-8 10 14-1 15-3 19-1 32-6h6l-4 3-10 2-4 2v1l13-3 12-2 13-1 32-5 8-1h17l7 2 7 8 5 5 5 10 5 31 4 18 4 36 4 9-5 3-28 7-40 7-96 16-86 13-93 14-51 8-211 36-92 14-81 12-113 18-118 20-51 8-45 8-17 4-3-1-11-66-4-34-3-17 6-11 5-6 12-6 22-5 69-11 81-14 163-26 82-13 40-6 83-13 33-6 80-13 52-8 29-5 28-4 12-3h5v-2l-15-1-13-3-4-4v-3l20-5 27-4 2-2-6-10-12-13-11-9-6-7v-3l7-1 27 8 7 3 13 2-3-14-10-30v-6l6-1 8 6 6 8 17 17 7 1 4-21 4-19 4-6z" fill="#FCFCFC"/>
<path transform="translate(955,908)" d="m0 0h12l22 1 15 2 21 6 22 8 19 9 20 12 12 9 10 8 10 9 16 16 10 13 7 12-3 5-11 7-15 10-21 13-19 12-26 16-17 11-20 14-19 12-13 8-11 7-9 5 1 2 3 2-1 4 7 14 9 15 16 28 8 13 12 21 13 23 16 27 12 19 9 15 2 1v2l6-2 16-11 11-10 8-7 13-14 10-13 12-20 8-16 7-16 6-21 6-31 4-22-121-1v-1l30-1 10-1v-2h-35v-2l69-1h51l2 1v11l-6 36-6 25-8 23-10 21-10 16-12 16-12 14-9 9-11 9-16 13-20 12-19 9-27 9-21 5-15 2-20 1h-16l-27-2-24-5-18-6-20-9-16-9-16-11-11-9-13-11-12-12-9-11-8-10-9-14-12-23-8-20-6-19-6-27-2-14v-29l3-20 6-26 9-26 11-24 8-13 11-14 12-13 13-13 11-9 16-12 19-12 16-8 21-9 21-6 14-3 9-1z" fill="#221E21"/>
<path transform="translate(1259,202)" d="m0 0h72l45 3 68 5 51 3 69 5 86 5 82 7 67 4 47 4 55 3 36 2 44 4 37 2 10 1 5 6-4-1 2 4 10 4 1 7v17l-3 52-3 37-1 5h-21l-77-5-42-3-51-3-76-6-67-4-65-5-73-4-64-5-77-4-60-4-95-5-30-2-4-2 1-24 2-38 4-47 1-5 6-4 6-7z" fill="#FDFDFD"/>
<path transform="translate(643,618)" d="m0 0h23l40 2 34 1 25 2 26 3 111 7 57 4 74 3 50 4 55 4 98 5 112 7 42 4 11 3 6 4 6 10 2 8v42l-5 59-2 6-1 1h-10l-110-7-54-4-131-8-53-4-58-3-85-7-68-4-67-5-75-4-74-6-12-1-3-1 2-37 5-54 5-24 7-6 10-3z" fill="#FDFDFD"/>
<path transform="translate(1547,1051)" d="m0 0h10l2 25 4 75 4 68 4 79 4 64 4 77 3 39 3 33 5 1h9l2-3-2-28-3-37-3-47-7-96-4-62-6-91v-22l31-3 1 3 3 45 4 68 5 99 3 45 3 64 5 59v4l16-2-4-54-6-93-4-65-5-83v-4l12-2 16-2 2 4 3 35 5 77 4 72 7 107 1 8 16-2-1-6-4-63-5-69-4-66-6-82-5-85 3-1 28-1 1 3 8 128 4 66 4 75 5 72 1 24 3 1h14l-6-80-7-102-4-58-10-152-2-44 25-2h7l6 96 5 74 4 70 5 81 3 52 4 52v11l17-1-2-17-4-50-10-148-4-69-4-64v-6l6-1 26-1 1 7 5 97 10 172 4 55v22h13l7 2-1 3-6 2-31 2-21 2-49 3-61 5-56 3-61 4-25 2-26 1-53 1-1-4 1-2 12-2h3l-3-46-4-64-4-70-1-25-1-11 1-1 19-2h11l1 6 5 92 5 76 3 45h17l-7-82-9-126-4-63-2-46-1-13 3-1 22-2h7l1 6 5 93 4 61 4 77 6 91 1 5 16-2-8-99-4-66-5-66-3-58-7-98-3-65v-11l1-1z" fill="#221E21"/>
<path transform="translate(604,836)" d="m0 0 18 1 11 4 6 7 4 11 2 14 3 46 3 34 1 12-16 2-90 5-232 15-126 8-62 3-16 1-1-1-3-37-1-22v-55l2-6 15-8 6-2 16-2 84-5 131-9 63-5 109-7 43-3z" fill="#FDFDFD"/>
<path transform="translate(1827,791)" d="m0 0h13l11 2 7 6 6 12 3 16 2 24 3 52 1 13-20 3-57 5-131 9-116 7-45 3-85 4h-12v-11l2-30 2-4 10-3 3-1 2-7v-17l-2-8-11-3v-21l2-29 3-1 48-1 62-2 45-3 154-10 75-4z" fill="#FDFDFD"/>
<path transform="translate(954,1139)" d="m0 0h5l4 5 12 21 13 23 15 25 15 26 33 55 13 21 6 6-2 4-14 8-18 8-21 7-17 4-23 2h-30l-22-2-25-5-21-8-16-8-14-8-17-12-11-9-12-11-10-10-9-11-12-17-13-23-10-21-2-7v-6l8-3 40-11 21-7 35-10 55-15 38-10z" fill="#FDFDFD"/>
<path transform="translate(1518,419)" d="m0 0h29l16 3 15 6 13 9 9 9 12 17 13 21 12 21 14 23 10 13 12 12 10 7 12 7 13 5 20 4 9 1h31l24-3 20-5h3l-2 5-12 19-11 19-19 28-9 11-9 10-7 8-8 8-12 9-14 7-16 4-7 1h-9l-21-3-15-5-14-8-11-9-10-10-9-11-12-17-10-17-14-27-15-29-13-23-7-11-10-14-14-14-14-9-8-4-13-5-16-3-3-3 2-6 12-18 10-12 10-8 14-8z" fill="#FDFDFD"/>
<path transform="translate(940,914)" d="m0 0h46l1 1v7l-2 10-1 14-6 44-4 30-11 72-5 28-2 5-7-6-19-19-8-7-13-12-10-9-21-21-8-7-22-22-8-7-13-12-8-7-8-8-7-6 4-7 12-12 18-13 13-8 16-9 25-10 19-5 17-3z" fill="#FDFDFD"/>
<path transform="translate(992,916)" d="m0 0 13 1 21 6 16 6 25 12 16 10 13 10 15 13 17 17 9 11 6 8-1 4-24 16-24 15-19 12-25 16-18 12-19 12-25 16-16 10-7 3-3-1 2-7 7-43 14-100 5-38z" fill="#FDFDFD"/>
<path transform="translate(1256,980)" d="m0 0 4 1 10 19 8 20 8 26 6 28 2 18v9l-2 3-3 1-20 1-43 1h-151l-11-1-1-4 10-8 22-14 21-13 38-24 24-15 39-26 28-17z" fill="#221E21"/>
<path transform="translate(603,646)" d="m0 0h5l-2 38-2 5-50 9-121 18-78 11-58 9-59 10-3-1-2-8-4-24v-6l35-6 48-8 142-22 91-15 43-7z" fill="#FDFDFD"/>
<path transform="translate(1163,343)" d="m0 0h6v12l-5 3-24 5-93 16-43 7-74 12-60 9-128 19-92 15-103 18-54 9-63 10-52 8-132 20-37 6h-12l-1-4v-9l11-2 59-9 49-7 60-9 89-15 90-16 72-12 45-7 101-14 76-12 102-17 90-16 57-10z" fill="#FDFDFD"/>
<path transform="translate(1083,443)" d="m0 0h5v12l-7 4-36 8-51 8-147 21-66 10-84 14-84 15-38 6-36 6-103 16-140 21-80 13h-5l-1-5v-10l25-4 75-11 49-7 66-10 120-20 62-11 53-9 63-10 117-17 66-10 150-25z" fill="#FDFDFD"/>
<path transform="translate(1159,85)" d="m0 0h28l7 4 8 8 8 14 4 14 6 38 4 25 4 31-1 3-13 1-43 8-64 11-102 16-97 14-88 14-150 26-81 13-74 11-95 14-87 14-138 24-77 12-15 3h-6l9 53 12 71 9 48 17 99 7 43 8 58 1 9v11l-1 8-3-2-8-51-5-27-4-26-5-29-6-39-18-112-20-125-10-65-5-28v-14l2-4h1l4 23 5 41 7 38 2 14 15-3 26-5 48-8 50-8 64-11 67-11 109-17 121-18 90-15 87-15 90-15 180-27 139-23 23-5 18-5 1-2-4-8-4-36-5-24-4-25-5-10-5-5-7-8-6-1h-17l-28 4-19 3h-7l-17 3-7 2-4-1 7-4 9-1 8-4 14-2 26-6z" fill="#221E21"/>
<path transform="translate(1007,543)" d="m0 0h5l1 1v13l-4 2-65 10-69 9-99 16-65 11-50 7-31 4-9 2-1 2-22 4-48 8-82 12-56 8-26 4-40 6-43 7-53 10-21 3-5-1-1-5v-9l45-9 101-14 55-8 46-7 69-11 68-12 40-7 48-8 56-9 45-7 69-10 90-13 42-7z" fill="#FDFDFD"/>
<path transform="translate(1520,413)" d="m0 0h23l19 3 16 6 13 8 12 11 9 10 10 16 15 26 16 27 9 13 9 10 7 7 14 9 17 8 22 4 11 1h19l19-2 26-5 12-3 5-5 11-18 8-11 12-17 13-15 18-18 11-9 12-9 15-9 21-9 10-3h6l-1 5-20 7-19 9-18 11-13 11-16 16-9 11-12 15-16 24-6 11 29-14 23-12 18-11 30-20 17-11 8-5h3l-2 5-17 12-36 24-18 11-23 12-19 9-16 7-8 9-13 22-10 17-16 24-11 14-9 11-11 12-8 7-13 9-14 7-18 4-7 1h-12l-20-3-17-6-11-6-12-9-12-11-10-12-14-21-14-25-9-17-8-16-11-21-14-23-10-13-6-8-8-7-11-8-12-6-14-5-14-3-5 1-6 9-11 22-13 23-10 18-8 12-9 12-13 15-12 11-13 8-12 6-20 6-18 3-8-1-1-4 12-2 17-3 18-6 16-9 13-11 8-8 10-13 13-19 10-17 10-18 12-22 8-14h-14l-19 1-24 4-18 6-12 7-13 11-10 11-14 19-9 14-6 8-5 2 2-6 9-17 10-14 8-10 6-7 8-7 13-10 17-9 16-5 27-4 31-1 5-4 11-18 9-11 9-9 16-11 11-5 11-3zm-2 6-19 5-11 6-9 7-6 5-11 14-10 16-1 4 3 3 19 4 15 6 14 9 10 9 8 8 11 16 10 17 13 24 14 27 12 23 10 16 10 14 13 15 9 9 13 9 14 7 15 4 16 2h9l20-4 14-6 11-8 12-11 14-15 11-14 22-33 11-19 11-17v-2l-10 2-19 4-18 2h-31l-20-3-15-4-16-8-14-10-13-13-11-16-19-32-13-22-11-16-8-10-7-7-14-9-13-5-16-3z" fill="#221E21"/>
<path transform="translate(569,1092)" d="m0 0h18l2 2 1 5 4 90 2 16 3 44 1 23v34h-16l-2-25-1-20-1-61-3 52-1 24v51l3 50 1 15v12h-19l-1-1-2-35-3-56-2-15-6-30v-24l3-56h11l1 1v15l-3 45-3 28v13l12 1 1-29 4-71v-22l-4-50-1-25z" fill="#221E21"/>
<path transform="translate(195,1147)" d="m0 0h13l5 2 4 48h23l2 1 1 30 1 51v18l-3 1 4 1 2 5 1 1 4 61 1 29v19l-1 1h-13l-2-3-3-48-2-3-1-19v-42l3-1-1-1-1-20-1-47v-31l-11-1 1 23v79l2 44v18h-16l-2-1-1-4-3-76-1-19-2-6-2-48z" fill="#221E21"/>
<path transform="translate(515,1182)" d="m0 0 2 2-3 54-1 9h-1l-4 37 1 7 7-5 2 2 1-12 3-1 1 2v62l1 61-17 2-1-1-2-76-1-25-1-1-2 1-1 13-2 14v50l2 49v13l-18 1-1-1-2-100v-10l-2-1 6-3 11-3 1-14 1-7v-14l2-56 1-17v-25l-3 2h-3l1-4 5-2 15-2z" fill="#221E21"/>
<path transform="translate(311,1236)" d="m0 0h16l1 1 2 42 3 1v96l5 53 1 23h-18l-1-1-2-21-1-24-1-65 1-4 3-1-1-7 1-80 1-7h-9l-4 77-2 73-15-1-2-41-1-28v-43l1-2 10 1 4 3v-43l1-1z" fill="#221E21"/>
<path transform="translate(603,695)" d="m0 0 5 1-1 10-7 3-47 9-84 12-50 7-47 8-71 12-48 8-7 1h-9l-1-3v-11l7-2 39-7 63-10 63-9 57-8 74-11z" fill="#FDFDFD"/>
<path transform="translate(855,115)" d="m0 0 4 1 10 6 17 5 17 3 5 3-3 4 2 3-3 3-6 4-9 11-8 8-9 13-6 1-2-2v-5l9-10 12-11 11-9 6-5 1-2h-22l-15 3-54 8-57 10-55 9-78 12-55 8-38 5-104 17-70 12-81 15-51 9-41 6-52 8-35 7-6 4-4 8-4 2-3-1 6-10 4-5 12-6 22-5 69-11 81-14 163-26 82-13 40-6 83-13 33-6 80-13 52-8 29-5 28-4 12-3h5v-2l-15-1-13-3-4-4v-3z" fill="#262225"/>
<path transform="translate(276,1176)" d="m0 0h21l-1 13v13l-1 4h-2v27l1 2-1 5h-2l-1 2-2 25-1 9-2 28-3 67v27l2 54v8l-3 1h-10l-6-1-2-59-2-35-1-9-1-2-3-25-1-18v-65l3-2h9l3 4-2 13-3 62v20l-1 4 3 2h7l1-37 3-58v-73l-3-3z" fill="#221E21"/>
<path transform="translate(421,1274)" d="m0 0h9l5 2-2 3-2 34-3 27-5 24-2 22-1 16v40l2 43 3 37v26l-1 1h-13l-3-1-2-11-2-13-1-15v-72l7-3-1-1v-24l2-37 2-17 4-13 2-19z" fill="#221E21"/>
<path transform="translate(348,1273)" d="m0 0 8 1 1 2v85l-1 10-5-1 1 4 7 2 2 5 4 49 1 41 1 18 1 2h-11l-6-1-1-2-4-54-3-37v-59l2-61-4-2z" fill="#221E21"/>
<path transform="translate(529,1158)" d="m0 0h6l5 3-1 21-2 65-1 19h7l3 1v9l1 11 2 65v22l-13 1-5 1-3-87-1-14-5-2 2-4 2-82 1-20-1-2-11 2 1-5z" fill="#221E21"/>
<path transform="translate(232,1197)" d="m0 0h8l2 1 1 30 1 51v18l-3 1 4 1 2 5 1 1 4 61 1 29v19l-1 1h-13l-2-3-3-48-2-3-1-19v-42l3-1-1-1-1-20-1-47v-33z" fill="#221E21"/>
<path transform="translate(441,1303)" d="m0 0h10l-1 8-4 61v39l1 47v24l-1 10-17 1v-115l4-2h6v-21l1-38z" fill="#221E21"/>
<path transform="translate(457,1401)" d="m0 0h11l4 1 3 36 2 9 2 50v16l-3 3-16-1-1-1-2-17v-5h-2l-1-20v-70z" fill="#221E21"/>
<path transform="translate(371,1411)" d="m0 0h8l9 2 3 28 2 29 2 53v5l-16-2-2-4-3-77-2-30z" fill="#221E21"/>
<path transform="translate(917,158)" d="m0 0 5 1-2 8-1 2 1 7-6 16-2 9-2 3 14-10 6-8 9-8 2-5 3-1 4 4 8 31 4 6 4-4 2-5 2-15 3-13 1-4 5 2 9 7 9 9 7 8 10 9h4l3 4-2 6-3 1-8-5-5-5-9-10-7-13-6-4-3 3-5 22-6 11v9l-2 7-5-1-4-12-4-10-5-22-3-6v-2l-6 5-7 12-6 4-8 10-5 4-2 1h-7l1-5 4-11 3-12 4-7 1-11-1-2h-8l-7 3-18 6-1-3 19-9 9-3h3l1 3 1-5z" fill="#221E21"/>
<path transform="translate(690,662)" d="m0 0 9 1 6 4 4 5 4 13-2 10-7 7-7 4h-13l-8-5-4-5-3-7v-9l4-8 9-8z" fill="#221E21"/>
<path transform="translate(762,666)" d="m0 0 10 1 8 5 6 9 1 3v11l-6 10-7 5-3 1h-10l-8-4-7-8-2-4v-9l4-10 8-7z" fill="#221E21"/>
<path transform="translate(1477,857)" d="m0 0h11l8 3 4 4 2 7v14l-3 7-6 5-8 3-12-1-6-4-4-5-3-11 1-9 4-6 8-6z" fill="#242023"/>
<path transform="translate(234,285)" d="m0 0h13l5 3 6 7 2 4 1 8-2 8-4 6-6 5-5 2h-9l-8-4-6-7-3-8v-11l4-6 9-6z" fill="#231F22"/>
<path transform="translate(310,273)" d="m0 0h9l8 3 4 5 2 5 1 11-2 9-5 5-10 5h-9l-7-3-5-5-3-7-2-12 4-8 8-6z" fill="#242023"/>
<path transform="translate(1555,851)" d="m0 0 8 1 8 4 6 8 1 3v12l-5 8-5 5-4 2-11 1-8-4-7-8-3-10 2-10 6-7 7-4z" fill="#221E21"/>
<path transform="translate(838,673)" d="m0 0 12 2 5 3 4 5 3 8v7l-3 9-7 6-11 4-9-2-8-7-3-4-2-7 1-10 4-6 7-6z" fill="#221E21"/>
<path transform="translate(165,296)" d="m0 0 11 2 5 4 4 10v15l-4 6-9 5-4 1h-7l-7-3-6-5-4-10v-7l3-8 8-7z" fill="#242023"/>
<path transform="translate(257,903)" d="m0 0h10l8 5 4 5 3 8v8l-4 8-7 6-4 2h-12l-8-5-6-8-1-3v-11l4-7 8-6z" fill="#221E21"/>
<path transform="translate(184,908)" d="m0 0h7l8 3 6 7 2 6v13l-4 6-6 5-7 3-10-1-6-4-6-7-2-6v-10l3-6 7-6z" fill="#231F22"/>
<path transform="translate(334,898)" d="m0 0 9 1 6 4 5 6 3 8v8l-3 6-8 7-8 3h-7l-10-6-5-8-1-4v-8l5-10 9-6z" fill="#242023"/>
<path transform="translate(1384,254)" d="m0 0h14l7 4 4 5 4 10-1 8-4 6-7 6-6 2h-9l-8-4-6-7-2-4v-11l6-10z" fill="#221E21"/>
<path transform="translate(1460,258)" d="m0 0h10l8 3 7 8 2 8v7l-4 8-6 5-8 3h-7l-8-4-7-8-2-5v-8l5-10 7-6z" fill="#221E21"/>
<path transform="translate(1314,249)" d="m0 0 9 1 8 4 5 8 1 4v11l-4 6-6 5-5 2h-10l-10-5-5-6-2-7 1-8 5-8 6-5z" fill="#221E21"/>
<path transform="translate(1031,90)" d="m0 0 3 1-10 11-3 4 14-1 15-3 19-1 16-3v2l-4 3-3 2-1-3-17 4h-7v6l5 3 12 1 3 2-2 4-7 3-11 1-10 4-21 8-1 4 4 4 12 8 5 4 11 14 3 3v4l-5 1-9-2-2-2 3-2-2-2-2-7-4-2-4-4v-2l-4-2-9-10-1-4-5-2-2-1 1-4 9-4 24-7 7-4-4-5h-15v-3h-16l-6-4 3-5 12-9z" fill="#231F22"/>
<path transform="translate(1373,1586)" d="m0 0 4 4 8 3 1 3 4 1 44-1 42-2h21l44-1 9-1 32-1 14-1-1 2-13 2-111 7-57 4h-21l-6-3-10-8-5-5z" fill="#2E2A2D"/>
<path transform="translate(1026,622)" d="m0 0h46l6 1v7h2v7l-64-5-30-2-1-6z" fill="#FDFDFD"/>
<path transform="translate(370,1310)" d="m0 0h11l2 2-4 2-2 23v35l-3 31-3 3h-2l-1-2-2-19v-39l1-25 1-10z" fill="#221E21"/>
<path transform="translate(2031,520)" d="m0 0h1l-1 26-5 83-6 96-6 78-2 4h-1v-14l1-21 3-30 2-65 5-50 4-56 3-39z" fill="#DADADA"/>
<path transform="translate(481,1220)" d="m0 0h6l-1 56-1 6h-2l-1-8-5-2-2 16-1 6-3 3h-2l2-45v-28l-1-2z" fill="#221E21"/>
<path transform="translate(207,1151)" d="m0 0 4 1 2 26 1 17v58l-5-1-4-2-1-50-2-45 4-1z" fill="#FDFDFD"/>
<path transform="translate(276,1176)" d="m0 0h21l-1 13v13l-1 4h-2v22l-3 4-1-4-2-9-1-2 1-5-3-1v36l-2 3-1-2h-2l-1-66-3-3z" fill="#221E21"/>
<path transform="translate(959,10)" d="m0 0 4 1 4 16 5 21 1 7 3 2 5-1 5-3 9-11 14-15 4-3h4v10l-2 6-7 1-2 4-16 11-8 7-5 5-4 1-5-6-2-13-1-16-1-6-6 2-1-1v-12z" fill="#221E21"/>
<path transform="translate(126,610)" d="m0 0 2 4 12 57 7 40 11 69 1 8v15l-3-2-8-51-5-27-4-26-5-29-6-39-2-12z" fill="#E4E4E4"/>
<path transform="translate(1009,50)" d="m0 0h2l-1 5-5 15-1 6 13-3 31-9 9-2 2 1-2 5-17 17-2-3-13-2-8 2-3-1-5 2-13 1v-8l6-16 6-8z" fill="#2B272A"/>
<path transform="translate(578,1096)" d="m0 0h5l2 55 2 42 6 1v1l-13-1-2-29-2-25-1-22v-21z" fill="#FDFDFD"/>
<path transform="translate(1532,82)" d="m0 0 5 1 8 6 5 5v7l-4 6-6 5-9 1-6-4-4-4-1-8 4-8z" fill="#2A2629"/>
<path transform="translate(318,122)" d="m0 0 6 2 5 5 7 8-1 7-5 4-7 4-5 1-11-7-6-4 1-4 9-9 5-6z" fill="#343033"/>
<path transform="translate(1110,1605)" d="m0 0 7 1 7 7 3 6-1 7-8 10-1 1-7-1-13-10-2-2 1-4 7-6 4-6z" fill="#231F22"/>
<path transform="translate(2e3 1e3)" d="m0 0h6l9 6 5 4-1 5-7 7-7 9-4-2-12-11-5-5 2-4 10-6z" fill="#2D292C"/>
<path transform="translate(470,1330)" d="m0 0h3l-1 23-1 46-10-2-1-1 1-33 2-28 2-2 3 2z" fill="#221E21"/>
<path transform="translate(23,777)" d="m0 0 6 1 6 7 8 4 1 5-5 5-7 6-3 4h-2l-1 3-3-2v-2h-2l-7-10-2-6 5-4 4-9z" fill="#2D292C"/>
<path transform="translate(748,839)" d="m0 0 5 1 3 5 5 5 6 4-1 4-7 5h-3l-2 5-4 6-4-1-2-5v-5l-8-1-4-5v-5l2-2 10-4h2z" fill="#221E21"/>
<path transform="translate(1159,85)" d="m0 0h28l7 4 1 3h-28l-28 4-19 3h-7l-17 3-7 2-4-1 7-4 9-1 8-4 14-2 26-6z" fill="#2A2629"/>
<path transform="translate(396,1334)" d="m0 0h11l5 2-1 2-3 1v4l-11-1-2-1v28l-1 28-2 24h-2l-1-9v-53l1-20 1-4z" fill="#221E21"/>
<path transform="translate(1195,91)" d="m0 0 7 6 8 14 4 14 6 38 4 25 2 21h-2l-4-8-4-36-5-24-4-25-5-10-5-5-7-8v-1z" fill="#242023"/>
<path transform="translate(133,1444)" d="m0 0h1l3 30 8 102 2 30v22l-2-2-2-14-4-68-4-52-2-39z" fill="#221E21"/>
<path transform="translate(290,1180)" d="m0 0 2 1v47l-2 4-1-4-2-9-1-2 1-5-3-1v36l-2 3-2-2v-10l2 1v-42l1-13 1-2z" fill="#FDFDFD"/>
<path transform="translate(997,158)" d="m0 0h6l3 2h2l1 2 4-1 16 6 5 5v2l-6-1-7-3-1 2-3-3-3-1h-7l-2 1 7 21 4 9v6h-3l-4-12-7-13-4-15-3-4z" fill="#231F22"/>
<path transform="translate(903,137)" d="m0 0 4 2-1 3-8 5-9 11-8 8-9 13-6 1-2-2v-5l9-10 12-11 11-9z" fill="#221E21"/>
<path transform="translate(884,88)" d="m0 0h6l9 7 11 11-1 3-9 2-13 2-3 2-14 1-10-1 3-2 31-5 2-2-6-10-6-7z" fill="#221E21"/>
<path transform="translate(1591,1590)" d="m0 0h5l-1 2-13 2-77 5-24-1v-2l16-2 44-1 9-1 32-1z" fill="#FDFDFD"/>
<path transform="translate(904,25)" d="m0 0 6 1 6 5 2 5h-3l4 17 1 12h-2l-5-7-1-6-3-4-2-6-3-3-2-7v-6z" fill="#221E21"/>
<path transform="translate(954,18)" d="m0 0h1l-1 21-4 24-3 9-8-6-4-6-4-7-5-6-2-5 7 6 8 8 7 1 4-21z" fill="#221E21"/>
<path transform="translate(863,63)" d="m0 0 9 1 14 4v2l4 2 2 3h-3v2l-5 2-3 3-5-4-5-1-8-7-2-3v-3z" fill="#221E21"/>
<path transform="translate(123,1279)" d="m0 0 2 4 4 56 3 54v15h-1l-2-20-3-41-3-57z" fill="#FDFDFD"/>
<path transform="translate(161,246)" d="m0 0h6v1l-37 7-34 9-10 4 2-4 12-6 22-5z" fill="#FDFDFD"/>
<path transform="translate(914,65)" d="m0 0 4 4 3 11v5l-4 1-10-4-8-7-2-2 11 2 7 1z" fill="#231F22"/>
<path transform="translate(1364,1500)" d="m0 0h1l1 51 2 24v6l-2-2-1-6-3-53v-16z" fill="#FDFDFD"/>
<path transform="translate(1159,85)" d="m0 0h16v1l-30 4-16 3h-6v-1l26-6z" fill="#FDFDFD"/>
<path transform="translate(96,262)" d="m0 0m-2 1 2 1-7 5-4 8-4 2-3-1 6-10z" fill="#221E21"/>
<path transform="translate(1035,68)" d="m0 0 3 1-8 4-6 4-7 2 2-4 1-3z" fill="#FDFDFD"/>
<path transform="translate(863,63)" d="m0 0 5 2 3 7v4l-4-2-6-7v-3z" fill="#F3F3F3"/>
<path transform="translate(904,25)" d="m0 0 6 1 5 7-2 2-3-4-3 4-5-8z" fill="#F9F9F9"/>
<path transform="translate(705,1493)" d="m0 0 1 3-7 17h-2v-6l5-10z" fill="#2A2629"/>
<path transform="translate(1054,62)" d="m0 0 5 1-2 5-5 4-1-5z" fill="#E1E0E0"/>
<path transform="translate(1391,267)" d="m0 0 2 1 1 3 2 1-1 3-7-1v-4z" fill="#EBEBEB"/>
<path transform="translate(280,1238)" d="m0 0 4 1v8l-2 3-2-2z" fill="#F6F6F6"/>
<path transform="translate(1466,272)" d="m0 0 4 2 1 5-4 1-2-1z" fill="#FDFDFD"/>
<path transform="translate(1316,264)" d="m0 0 3 1 1 3-1 3-3 1-2-1 1-6z" fill="#FDFDFD"/>
<path transform="translate(1084,98)" d="m0 0 1 2-4 3-3 2-1-3h-3v-2z" fill="#312D30"/>
<path transform="translate(1014,25)" d="m0 0 3 1v5l-4 1-1-5z" fill="#FDFDFD"/>
<path transform="translate(700,1492)" d="m0 0h1l-1 8-3 5-1-3z" fill="#221E21"/>
<path transform="translate(815,1479)" d="m0 0 2 2-2 1z" fill="#221E21"/>
<path transform="translate(839,1477)" d="m0 0v3z" fill="#221E21"/>
<path transform="translate(721,1477)" d="m0 0 2 1h-3z" fill="#221E21"/>
<path transform="translate(706,1492)" d="m0 0" fill="#221E21"/>
<path transform="translate(723,1476)" d="m0 0" fill="#221E21"/>
<path transform="translate(724,1475)" d="m0 0" fill="#221E21"/>
</svg>
