<?xml version="1.0" encoding="UTF-8"?>
<svg version="1.1" viewBox="0 0 2000 2000" width="500" height="500" xmlns="http://www.w3.org/2000/svg">
<path transform="translate(782,425)" d="m0 0h259l47 2 32 4 32 5 37 8 31 9 29 10 24 10 28 14 22 13 12 8 19 13 13 10 14 12 7 7 8 7 8 8 7 8 12 13 10 13 9 13 9 14 13 22 12 23 9 20 9 24 8 26 8 35 6 40 2 20v67l-5 37-5 27-7 28-10 30-11 26-8 16-11 20-15 22-10 13-13 15-9 10-17 17-8 7-14 12-13 10-18 12-19 11-16 8-17 8-28 11-26 8-38 8-18 2-15 1h-79l-13 2-11 6-6 7-6 12-3 16-2 23-4 17-4 6-4 4-3 1h-13l-6-3-7-10-3-16-2-22-6-36-5-16-8-15-8-9-9-5-10-1-8 3-7 6-8 13-11 23-7 15-13 30-12 27-7 15-2 7 5 11 1 13-4 8-8 10-11 9-11 11-5 10-1 4-1 20-2 13-7 13-7 8-10 7-11 5-14 4-12 2h-17l-4-1-1 8-7 28-5 27-2 18-1 15-1 56-5 2-20 2-26 4-24 6-19 7-23 10-23 13-33 22-12 9-14 11-15 13-16 15-19 19-7 8-10 11-9 12-8 11-9 10-3 1 1-12 11-53 4-26 5-42 1-20v-47l-2-28-5-36-6-27-9-34-7-19 1-4 17-9 12-8 19-13 16-12 17-14 13-11 13-12 18-18 2-5-10-13-7-14-2-6-1-7v-12l4-13 9-15 7-7 11-9 12-11 6-10 2-6 1-25 4-12 4-5 11-5 11-3 3-4 7-25 11-45 6-29 4-31 1-17 1-391 1-162 3-22 5-14 9-15 9-11 7-7 15-11 14-7 15-5 17-2zm-68 51-3 7 2 5 7 1 3-4v-6l-2-3zm305 0-8 4-3 5v8l4 6 4 3h8l6-4 3-4 1-5-3-7-5-5zm-249 1-8 3-8 7-7 11-4 14-4 25-1 26v59l1 20 4 14 6 9 7 4h13l8-4 5-4 6-10 4-11 2-16 2-47 4-59v-20l-4-9-6-8-6-3-4-1zm347 2-10 2-8 5-3 4v7l6 7 16 7 26 7 23 7 21 8 27 14 10 7 16 12 15 13 9 9 9 11 8 9 10 13 11 14 12 14 9 8 8 4 6 1h9l8-3 7-6 3-8 1-11-2-12-10-19-13-16-12-13-21-21 8 6 14 11 30 30 9 11 13 18 13 20 8 13 1-3-5-16-10-19-10-16-11-14-11-13-14-14-22-18-19-13-16-10-18-10-23-11-34-12-21-6-28-6-15-2zm73 111-5 4-2 4 1 6 5 5 7 1 5-4 2-4-1-6-4-5zm173 84-5 3-3 3-1 3v12l4 8 6 5 10 2 9-3 4-6 1-3v-11l-6-9-7-4zm-328 16-16 3-18 6-13 7-9 7-12 12-10 16-6 16-3 16-1 40v28l1 32 3 17 6 18 8 15 8 11 9 10 12 12 12 9 14 8 20 8 23 5 14 2h31l25-5 21-7 16-8 14-10 10-9 8-8v-2h2l11-16 8-15 6-20 2-13v-35l-3-18-6-21-7-15-10-18-13-16-7-8-10-10-13-10-13-8-19-10-21-8-24-6-14-2zm345 29-2 1-1 6v12l3 20 7 27 3 5 5-1 1-5v-15l-2-17-6-20-5-12zm-614 4-9 6-4 6-2 7v15l4 9 6 5 7 3h12l7-4 5-5 3-7v-19l-4-8-8-6-5-2zm-21 47-2 7-2 34-2 58v143l1 12 6-1 3-2 1-5 1-25v-91l-1-64-2-57-1-8zm-138 748-9 3-10 8-5 8-2 8v9l4 13 9 13v2l2 1h20l11-2 10-6 6-7 5-12 1-12-3-12-6-12-3-2-8 1-6-1z" fill="#26323A"/>
<path transform="translate(604,1375)" d="m0 0 11 1 8 3 14 4 14 3 21 7v2l5 2 1 6-7 16-10 18-8 14-11 17-11 20-6 12-2 2h-19l-14 4-11 8-7 10-5 13v18l6 13 2 4v9l-8 16-9 17-11 19-8 18-20 40-14 24-10 19-9 19-18 34-4 7-3 3-2 9h-2l1-9 5-26 6-47 2-30v-47l-2-28-5-36-6-27-9-34-6-17h3v-2l15-10 11-7 21-14 17-12 18-12 17-16 12-12 8-7 10-8 11-11 9-11 5-6z" fill="#14A4CB"/>
<path transform="translate(695,1407)" d="m0 0 4 1 5 10 3 1 5 6 2 5h2l5 11 3 9v28l-1 53-2 28v73l-7 10-6 2v2l-10 4-14 6-11 4-14 5-8 6-8 4-9 5-7 5-10 6h-3v2h-2l-1 4-5 1-7 2-1 3-3 3-6 3h3 4v-2l4 1-19 12-14 10-16 12-14 12-10 9-12 11-20 20-7 8-10 11-9 12-8 11-5 5v-8l15-30 9-17 12-21 7-14 11-19 13-23 10-16 8-16 12-25 13-23 7-11 10-18 8-14 3-4h22l11-2 10-6 6-8 4-10 1-12-3-12-5-10v-2l-7-2 8-16 14-26 10-18 8-13 10-18 10-17z" fill="#14A4CB"/>
<path transform="translate(607,1354)" d="m0 0h16l21 3 18 5 21 7 18 7 15 9 15 10v2l5 2 13 10 5 5 13 12 10 11 9 14 5 10 1 3v17l-3 6-10 7-10 5-2 2-2 7-4 1-1 8-7 28-5 27-2 18-1 15-1 56-5 2-20 2-26 4-24 6-19 7-23 10-23 13-3 2h-5v2l-8 2 1-3 6-3 4-5 5-3h6l2-4h2v-2l8-4 5-3 8-6 10-5 12-7 5-3 26-10 10-4 7-3h3v-2l7-4 5-8v-76l2-29 1-64v-13l-3-9-4-9v-2h-2l-4-7-3-2v-2l-4-1-5-10-4 2-8 14-9 16-10 17-9 15-11 21-10 18-5 8-3 1-6-1h-16l-9 3-9 7-5 8-2 8v9l4 13 9 13-4 8-9 16-12 21-8 13-13 24-7 15-8 16-11 18-9 15-6 12-6 10-8 14-6 12-8 14-9 16-8 16-6 13-1 9-5 5h-2l1-12 6-28 3-1 1-9 2-3h2l2-4 9-19 3-5 16-32 12-23 9-15 14-27 8-17 7-15 8-15 9-15 13-26v-9l-6-12-2-5v-18l5-13 8-11 11-8 14-4h19l3-4 8-16 10-18 11-17 14-26 7-15 1-6v-2l-5-2v-2l-6-1-15-5-17-4-18-5-6-2h-6l-6 4-9 11-9 10-8 8-9 7-15 14-12 12-8 7-18 12-14 10-24 16-16 10-8 6h-2v2h-3l-1-5 18-10 12-8 19-13 16-12 17-14 13-11 13-12 18-18 2-5-1-3 4-3 6-18 6-9 7-6 10-3z" fill="#27323A"/>
<path transform="translate(633,1223)" d="m0 0 49 6 24 6 21 7 22 9 28 14 11 7 24 16 11 7 13 12 9 9 1 7-11 18-5 2-9-7h-7l-1-2-7-1-3 6-5 3-1 7v2l4 1 1 4h2v2h-2v3h-2l-1 4h-2l-2 4-4 3-2 21-3 3v-2l-5-2-3-2v-2l-5-2-7-5-2-1v-2l-4-1-2-1v-2l-7-2-16-8-13-7-4-1v-2l-4-1-7-4-20-10-20-7-7-2-31-7-21-2h-17l-2 1-11 1-7 2-6 3h-3v2l-5 5-4 2 3-9 8-12 14-13 8-7 7-6 6-10 2-6 1-25 4-12 4-5 11-5 11-3z" fill="#FBB978"/>
<path transform="translate(1321,1447)" d="m0 0 15 1 12 3 16 8 9 7 8 8 9 14 5 12 3 14v19l-4 17-7 14-7 9-5 5-7 6-9 5-13 6-10 2h-23l-14-3-6-1-1 9-3 7-7 8-7 3-13 1-9-3-8-8-5-11v-12l4-8 5-5 8-5 4-2-2-6-4-8-5-18-1-7v-12l1-5h-16l-8-3-5-4-5-7-2-8 1-10 4-8 8-6 6-2h11l9 4 7 8 2 3h2l7-9 7-7 13-8 10-4 10-2z" fill="#263139"/>
<path transform="translate(828,1299)" d="m0 0 4 2 21 21 9 11 6 8 10 18 7 14 1 13-4 8-8 10-11 9-11 11-5 10-1 4-1 20-2 13-7 13-7 8-10 7-11 5-14 4-12 2h-17l-1-2 3-8 5-4 12-6 5-4 2-5v-17l-4-10-7-11-7-9-9-10-12-11-3-2v-2l-4-2-10-8-4-2v-2l-4-2-16-10-10-6-24-9-21-7-18-4-15-2h-16l-13 3-8 6-6 9-6 18-5 4-4-5-6-8-6-12-2-6-1-7v-12l3-8 5-4 2-3h2v-2l10-5 10-1 7-1 2-1h17l21 2 22 5 13 3 18 6 14 7 10 4 5 4 7 3v2l5 1 28 14 7 3v2l6 2v2h4l5 5 5 3v2l4 2 5 2 1-1 2-21 6-5 3-3 1-3h2v-3h2v-2h-2l-2-4-4-1v-7l4-5h3l2-4 3-3 6 2 1 1h6l5 4 5 3 4-2 10-17-1-7-16-16z" fill="#903F1E"/>
<path transform="translate(481,431)" d="m0 0 15 1 16 3 16 8 11 8 9 9 7 10 8 15 4 13 1 8v21l-3 18-8 16-10 13-7 7-10 7-16 8-16 4-6 1h-17l-16-3-12-5-10-6-13-11-9-10-7-11-5-11-4-20v-15l4-19 5-13 9-15 10-11 10-7 14-7 9-3zm-27 21-12 5-10 8-7 11-1 4v15l3 5 4 3h9l16-8 12-11 4-5 2-6v-12l-4-6-7-3z" fill="#263239"/>
<path transform="translate(487,956)" d="m0 0h13l9 3 6 7 4 9 4 19 6 16 12 14 10 9 12 11 9 11 7 14 3 17v16l-2 9-9 17-6 8h-2l-1 3-15 10-11 4-8 2h-17l-16-4-15-9-15-11-9-4-17-4-19 1-6-2-6-5-1-2v-7l5-8 18-13 12-9 18-14 16-13 8-8 4-8 1-4v-13l-4-11-11-17-2-5v-15l3-6 7-6zm-2 7-5 6v6l5 6 7 1 5-4 1-2v-9l-3-4z" fill="#263239"/>
<path transform="translate(608,1378)" d="m0 0 5 1 25 8 12 4 1 2 8 3 5 3 1 1v8l-4 10-5 9-6 5-4 4-5 3-8 10-3 6h-2l-2 6-1 2h-2l-2 4-3 3-10 5-8 6-14 6-7 10-5 5-5 7-5 4-4 6-3 3-1 6-2 4 1 21 2 7v8l-3 5h-2l-1 2-6 1h-11l-5-5-3-7-7-4-6-11-8-7-2-3-7-4-12-8h-7l-2-1v-2l-5-1-3-9 1-2-6-3-12-1-4-5 15-10 11-7 21-14 17-12 18-12 17-16 12-12 8-7 10-8 11-11 3-4 9-5 8-6z" fill="#44CBF2"/>
<path transform="translate(1415,287)" d="m0 0h11l16 4 12 6 11 9 9 12 5 11 2 11v15l-3 13-8 15-8 9-13 9-15 6-4 1h-18l-15-5-11-6-11-10-7-10-5-12-2-14 1-17 4-12 9-14 7-7 11-7 13-5z" fill="#26323A"/>
<path transform="translate(828,1299)" d="m0 0 4 2 21 21 9 11 6 8 10 18 7 14 1 13-4 8-8 10-11 9-11 11-5 10-1 4-1 20-2 13-7 13-7 8h-2v-2h2v-4h2l1-10 2-5-1-4v-5h-2l-5-15-5-8-6-9-2-4v-4h4v2l5 1 5-10 2-6h2l1-5 7-11 8-9 2-3 5-2-3-3-1-5-10-15-4-4v-2h-2v-2l-10-4-3 3-5 12-7 15h-2l-2 7-3 4-4 15-1 6-4 1-2 6-4 4-6-2-11-8-5-5-5-2v-2l-5-2-9-6-7-5-5-3-16-8-11-6-12-6-12-5-17-6-9-3-13-3-6-2-26-3h-26l-14 3-9 5-3 1-2 4-2 3-2 14-2-3-2-10v-12l3-8 5-4 2-3h2v-2l10-5 10-1 7-1 2-1h17l21 2 22 5 13 3 18 6 14 7 10 4 5 4 7 3v2l5 1 28 14 7 3v2l6 2v2h4l5 5 5 3v2l4 2 5 2 1-1 2-21 6-5 3-3 1-3h2v-3h2v-2h-2l-2-4-4-1v-7l4-5h3l2-4 3-3 6 2 1 1h6l5 4 5 3 4-2 10-17-1-7-16-16z" fill="#B8622D"/>
<path transform="translate(905,1432)" d="m0 0h15l2 4 2 63 2 91v139l-6 9-6 5-6 1-7-3-5-5-3-7-1-4v-184l2-77 1-20 2-9 2-2z" fill="#273239"/>
<path transform="translate(650,1392)" d="m0 0 6 1 10 4 5 3-1 7-4 10-5 10h-2l-2 5-5 9h-2l-1 5h-2l-2 5-1 3h-2l-2 7-13 26-3 3h-10l-4 2-3 3-4 2-10 2-7 3-13 10-1 2h-2l-1 4-2 1-3 13-1 8v10l2 8 1 16-2 6-2 12-7 9-3 9-4 6-3 5-3 2-17 2-7 1-12 2-4 1-10-1-1-4h-4l-1-4h-2l-1 2-1-9 1-1-1-7h-2l-4-5v-3h-2v-5l1-5-3-9-3-4h2l-1-3v-5l-2-5v-5h-2l-5-15-3-19-3-9-5-5h12l6 4 2 10 5 2v2h9l21 14 5 5 6 7 3 6v2l6 2 3 3 4 9 2 1h11l7-2 3-2 1-3v-8l-2-7-1-22 3-5 1-6 3-1 2-4 5-6h2l2-4 6-8h2l2-4 5-7 16-7 8-6 9-5 4-5h2l2-6 1-2h2l2-6 11-13 6-2 2-4 5-4 5-10 2-7 2-1-1-3v-5l-5-3-9-4z" fill="#30BCE1"/>
<path transform="translate(437,1218)" d="m0 0h8l12 3 10 5 10 8 9 14 2 6 1 8v12l-3 13-7 11-9 9-16 8-5 1h-20l-10-3-10-7-7-7-6-10-4-11-1-5v-11l4-15 4-8 9-10 9-6 12-4z" fill="#263239"/>
<path transform="translate(1147,1329)" d="m0 0h14l9 2 12 6 8 8 7 12 2 6 1 7v10l-3 12-8 11-7 7-12 7-8 2h-15l-12-3-11-7-8-8-5-10-3-10v-13l4-13 7-11 7-7 12-6z" fill="#263239"/>
<path transform="translate(1608,627)" d="m0 0h14l10 3 10 7 7 8 5 10 3 9 1 8-2 10-4 9-4 6-9 8-10 5-11 3h-8l-10-3-9-6-7-6-7-10-3-6-1-4v-19l3-9 6-9 9-8 8-4z" fill="#26323A"/>
<path transform="translate(955,258)" d="m0 0 10 1 10 3 9 7 7 8 4 9 2 11v10l-3 9-5 8-4 5-11 8-9 3h-18l-9-3-9-7-8-9-4-9-1-4v-17l4-12 6-8 11-8 12-4z" fill="#263239"/>
<path transform="translate(1575,368)" d="m0 0h14l11 3 6 4 7 6 6 10 3 14-1 11-4 9-6 8-7 6-8 4-9 2h-12l-12-4-8-6-6-8-4-8-2-10 1-11 4-11 7-9 8-6z" fill="#263139"/>
<path transform="translate(694,1409)" d="m0 0h2v2h2v7l-7 14-5 8-1 7-3 4v4 2h-2l-2 8h-2l1 3-1 2 4-2v-2l5-2 9 3 2 9-1 5 1 13-2 3h-2l1 3-3 4-8 1-2 5-5 9-2 3h-2v2h-2l-2 13-4 14-4 3h-3l-1 3-2 1 1 4-2 5-3 2-2-2 1-4-3 1 3-14-1-12-5-13-2-5-7-2 8-16 14-26 10-18 8-13 10-18 10-17z" fill="#23B0D3"/>
<path transform="translate(332,1096)" d="m0 0h13l10 3 10 9 5 8 2 8v9l-2 9-6 9-7 6-9 4-4 1h-14l-9-3-9-8-5-10-2-7v-9l4-12 6-9 9-6z" fill="#263239"/>
<path transform="translate(446,1504)" d="m0 0 4 2 3 5 3 3 3 8 3 19 5 14 2 1 1 9 1 1v9l4 8 1 8-2 6h2l1 5 5 2 1 1 1 8h-2l2 7h2l1 4h4l1 4h13l7-2 11-1 2-1 17-2 3-1 1-4 4-5 3-7 2-5 6-8 3-15 1-8v-9l4 6v13l-2 8-10 21-4 7h-2l-1 4-5 7h-2l-2 4-4 6-4 3-5 1-11 4-9 6-5 5h-2v3h-2l-4 8h-2v3l-5 2v2l-4 3h-2l-2 5-3 3h-2l-1-2-2 3-1-38-2-28-5-36-6-27-9-34-6-17z" fill="#23B0D3"/>
<path transform="translate(1270,920)" d="m0 0 1 3-11 23-10 13-22 24-17 16-13 9-19 11-15 6-14 4-17 4-21 3h-37l-28-4-22-6-22-8-17-8-20-11-7-5v-1l8 1 15 7 35 13 25 7 21 4 19 2h18l26-4 26-7 21-8 17-8 15-10 14-12 10-9h2l2-4 8-7 10-10 8-11z" fill="#FDFDFD"/>
<path transform="translate(1026,1386)" d="m0 0 10 1 6 4 4 7 2 8 2 28v18l-2 9-9 10-6 2h-10l-8-3-7-8-3-7v-19l6-36 3-7 5-5zm-2 9-4 4-1 2v13l4 4 7 1 6-5 1-3v-9l-2-5-3-2z" fill="#28323A"/>
<path transform="translate(406,840)" d="m0 0h15l8 3 5 4 6 9 2 7v10l-4 10-6 7-9 5-4 1h-14l-9-4-8-9-3-9v-11l3-10 8-9z" fill="#263239"/>
<path transform="translate(613,216)" d="m0 0h11l8 3 8 6 5 9 1 4v13l-3 8-5 6-7 5-11 3-11-1-10-5-6-8-3-7v-13l4-10 6-7 9-5z" fill="#263239"/>
<path transform="translate(633,1223)" d="m0 0 49 6v2l24 7 16 6 14 5 14 6-1 8-4 6-7 1-12-4-12-6-12-4-16-4-18-3-41-3-3-2 1-8 1-10z" fill="#FDFDFD"/>
<path transform="translate(1667,205)" d="m0 0h13l11 4 6 5 6 10 2 7-1 10-5 10-5 6-8 5-4 1h-14l-8-3-8-9-4-8-1-4v-10l4-11 7-8 7-4zm-1 6-6 5-1 2v7l5 5 6-2 6-5 1-5-2-6-2-1z" fill="#263139"/>
<path transform="translate(553,661)" d="m0 0h7l9 3 9 8 4 8 1 5v7l-3 9-7 8-8 5-3 1h-12l-7-3-7-6-5-10-1-3v-10l4-10 4-5 8-5z" fill="#273239"/>
<path transform="translate(711,313)" d="m0 0 12 2 6 4 7 8 2 6v12l-3 8-8 9-9 4h-13l-9-4-7-8-3-7v-15l4-8 4-5 10-5z" fill="#29343B"/>
<path transform="translate(607,1354)" d="m0 0h16l21 3 18 5 21 7 18 7 15 9 15 10v2l5 2 13 10 5 5 13 12 10 11 9 14 5 10 1 3v17l-3 6-10 7-10 3-3 3-3-1 2-5 5-4 4-6 5-14v-15h-2l-4-10-2-4-4-2-7-8-6-8-4-3v-2l-6-2-5-4-11-9-10-8-12-6-11-6-6-3v-2l-11-3-7-3-10-3-10-2-7-2-16-4h-22l-11 2-6 4-6 7-1 3h-2v9l-2-3v-8l6-10 8-7 10-3z" fill="#1B2025"/>
<path transform="translate(608,1378)" d="m0 0h3v5l-9 10-7 8-13 13-8 7-13 13-8 7-13 12-19 14-17 12-15 10-18 11-14 6-5-1-4-3 11-8 13-8 21-14 17-12 18-12 17-16 12-12 8-7 10-8 11-11 3-4 9-5 8-6z" fill="#FCFDFD"/>
<path transform="translate(1295,1341)" d="m0 0h8l9 3 7 5 5 10 1 10-2 9-7 9-9 5-4 1h-9l-8-3-7-6-4-8-1-4v-11l4-9 5-6 8-4z" fill="#29333A"/>
<path transform="translate(393,987)" d="m0 0 10 1 8 4 6 8 2 5v15l-3 6-5 6-7 4-4 1h-12l-9-4-6-7-3-8v-12l4-9 8-7z" fill="#273239"/>
<path transform="translate(1490,1018)" d="m0 0h2l-1 7-11 26-8 16-11 20-15 22-10 13-13 15-9 10-17 17-8 7-14 12-13 10-18 12-19 11-16 8-17 8-28 11-26 8h-4l1-3 13-4 16-6 6-2h4l1-2 8-2 1-3 6-3 7-1 5-5h2v-2l13-5 12-7 9-6 9-7 7-3 5-3 11-6 7-8 12-11 15-15 5-4 7-8 9-10 4-5h2l2-5 8-10h2l2-6 5-5 2-6 2-2 5-13 8-16 2-3h2l2-8 10-10 2-6h1l3-10z" fill="#1D2126"/>
<path transform="translate(1225,333)" d="m0 0h11l8 3 5 4 5 9 1 5v8l-3 8-6 7-9 4h-12l-9-4-6-8-2-4-1-9 2-9 4-6 7-6z" fill="#263239"/>
<path transform="translate(1594,1098)" d="m0 0h12l8 4 5 6 3 8v9l-4 10-8 7-5 2h-12l-8-4-6-8-3-8v-7l4-10 8-7z" fill="#263139"/>
<path transform="translate(1262,902)" d="m0 0 1 3-8 18-12 20-10 13-12 11-16 15-9 6-4 1v2l-16 8-5 2h-3v2l-30 10-14 3-9 1-29-1-5-2 3-2 20-2 24-4 27-8 18-8 19-10 14-10 10-9 9-7 10-10 13-18 12-21z" fill="#FEFEFE"/>
<path transform="translate(1185,1546)" d="m0 0 9 1 9 5 4 6 1 3v12l-4 7-5 5-5 3-10 1-9-3-6-7-2-5v-14l3-6 8-6z" fill="#273239"/>
<path transform="translate(604,1375)" d="m0 0 11 1 8 3 14 4 14 3 21 7v2l5 2 1 6-7 16-10 18-8 14-11 17-11 20-6 12-2 2-24-1-11 3-6 4h-2l-2 4h-2l-5 10h-2l-1 5-3 11v20l-2-2-1-8v-13l1-5 3-11 3-1 1-4h2l2-4 15-11 20-5 1-3 6-2h8l5-8 8-16 5-11h2l1-5 2-3h2l1-5h2l1-4 6-10h2l1-4 6-12 2-7v-4l-8-4-27-9-22-7-5-1-6 4-10 7-2-1 10-12z" fill="#15A4CB"/>
<path transform="translate(1634 1e3)" d="m0 0 10 1 8 4 6 10v11l-5 9-7 5-3 1h-13l-6-3-6-8-2-6v-8l5-10 8-5z" fill="#273239"/>
<path transform="translate(878,1364)" d="m0 0 4 2 3 7 1 13-4 8-8 10-11 9-11 11-5 10-2 5-4 1v-2l-3-1-2-4v-8l5-15 1-2h2l1-4 10-11 2-4 6-1 2-5 8-11 2-5 3-1z" fill="#924220"/>
<path transform="translate(1114,1592)" d="m0 0h7l8 3 5 4 4 9v10l-4 8-7 6-5 2h-9l-9-4-5-6-2-8 1-10 5-8 5-4z" fill="#BC6B39"/>
<path transform="translate(1522,1363)" d="m0 0 11 2 6 5 4 8v12l-6 9-6 4-3 1h-13l-8-5-4-8v-13l4-8 5-4 4-2z" fill="#273239"/>
<path transform="translate(874,231)" d="m0 0h7l8 3 6 7 3 7v9l-4 8-8 6-3 1h-11l-6-3-5-6-3-7v-8l4-9 7-6z" fill="#273239"/>
<path transform="translate(766,1255)" d="m0 0 15 5 2 4 5 1 3 1 1 3 5 3v2h5l5 4 19 13 10 8 3 2v2l4 2 8 6v2l5 2 3 5 3 3 7 8 4 6 5 1 5-2 1-8 4-6h3l5-13 2-5 3-3 4-11 5-7 2-1 3-7 1 4-24 54-10 22-2 5-4-2-10-19-11-13-11-12-14-14-5-2-9-7-4-2-2-4-16-10-12-9-16-9z" fill="#1D2126"/>
<path transform="translate(1490,505)" d="m0 0h13l6 4 5 6 2 4v10l-6 10-7 4h-14l-6-4-4-7-1-4v-9l4-8 6-5z" fill="#273239"/>
<path transform="translate(1219,1251)" d="m0 0h4l-1 3-12 3-19 3-24 2h-79l-13 2-11 6-6 7-6 12-3 16-2 2-1-2v-8l1-4-1-3 3-10 3-7 9-7 4-3 6-1v-2l13-4 17-1h15l24 2 19-1 11 1 3-2 12-2h26z" fill="#1D2126"/>
<path transform="translate(552,666)" d="m0 0h3l4 4v2l4 2 2 6 4 3-1 8-4 1-1 4-5 5h-4l-1 5-5 1-10-2-1-4 5-1 1 1 1-2h-3l-1-7v-5l-5 2-3-5 1-9 1-2 3-1 4-4 7 1 1-2z" fill="#1B1F24"/>
<path transform="translate(994,1583)" d="m0 0h9l7 4 4 5 2 5-1 9-9 10-2 1h-10l-6-3-5-6-2-5 1-9 6-8z" fill="#273239"/>
<path transform="translate(594,1582)" d="m0 0h26l-2 2-15 1-18 30-12 16-10 15-12 21-10 19-6 11-11 18-8 13-4 2 3-7 8-14 10-16 8-16 12-25 13-23 7-11 10-18 8-14z" fill="#FCFDFD"/>
<path transform="translate(694,1409)" d="m0 0h2l1 6-3 8-13 23-9 16-10 18-20 40-2 2v-2l-7-2 8-16 14-26 10-18 8-13 10-18 10-17z" fill="#FEFEFE"/>
<path transform="translate(579,859)" d="m0 0 10 1 6 4 3 5 1 9-2 6-5 6-6 3h-8l-8-5-4-8v-8l4-8 6-4z" fill="#283238"/>
<path transform="translate(446,1504)" d="m0 0 4 2 3 5 3 3 3 8 3 19 5 14 2 1 1 9 1 1v9l4 8 1 8-2 6h2l-1 5-1 3-3 1v-2h-2v6h-1l-5-33-11-44-5-16-4-12z" fill="#29B3D5"/>
<path transform="translate(577,1378)" d="m0 0h1l1 5v8l-3 8-3 1-2 4-7 9-15 16-13 13-8 7-18 12-14 10-24 16-16 10-8 6h-2v2h-3l-1-5 18-10 12-8 19-13 16-12 17-14 13-11 13-12 18-18 2-5-1-3 4-3z" fill="#222428"/>
<path transform="translate(1541,267)" d="m0 0h7l6 3 4 5 1 2v11l-3 5-6 5-2 1h-9l-6-4-5-6-1-9 4-8 6-4z" fill="#32393E"/>
<path transform="translate(1348,388)" d="m0 0h4l8 16 7 11 12 12 12 7 18 6 7 1 2 4-4 4-12-1-10-3-13-7-10-8-9-10-9-15-4-11v-5z" fill="#222529"/>
<path transform="translate(1584,1248)" d="m0 0h7l6 3 6 6 1 9-4 7-6 5-3 1h-8l-6-3-3-4-1-4v-8l3-6 6-5z" fill="#263138"/>
<path transform="translate(761,804)" d="m0 0h2l1 35v111l-1 17-1 6-2-1-1-31v-52l1-71z" fill="#FEFEFE"/>
<path transform="translate(729,188)" d="m0 0h8l6 3 4 5 1 9-3 6-5 4-9 1-7-2-4-5-1-3v-7l3-6 5-4z" fill="#263138"/>
<path transform="translate(667,1397)" d="m0 0 5 2 2 3-1 6-10 19-9 14-5 9-3 4-6 11-13 26h-2l-2 4h-2v2l-17 3-16 4-6 4h-2l-2 4h-2l-5 10h-2l-1 5-3 11v20l-2-2-1-8v-13l1-5 3-11 3-1 1-4h2l2-4 15-11 20-5 1-3 6-2h8l5-8 8-16 5-11h2l1-5 2-3h2l1-5h2l1-4 6-10h2l1-4 6-12 2-7v-4z" fill="#23B0D3"/>
<path transform="translate(1116,1600)" d="m0 0 10 4 6 7-1 8-4 6-4 3-8 1-6-4-3-5-1-6 3-11z" fill="#26323A"/>
<path transform="translate(748,1021)" d="m0 0h1v27l-1 40-1 20-2 7h-1l-1-7-2-48-1-36z" fill="#FEFEFE"/>
<path transform="translate(387,743)" d="m0 0h7l8 5 1 2v9l-4 6-4 3h-8l-5-3-3-4v-10l3-5z" fill="#1E2125"/>
<path transform="translate(610 1e3)" d="m0 0 9 2 5 6v9l-5 6-3 1h-8l-6-3-3-5 1-8 4-5z" fill="#283137"/>
<path transform="translate(1331,411)" d="m0 0 4 2 8 16 8 10 8 8 14 10 2 4h-7l-11-6-10-9-7-8-6-11-3-7z" fill="#32383D"/>
<path transform="translate(481,1348)" d="m0 0 9 2 5 4 1 5-2 7-6 5h-8l-5-3-2-4v-8l3-5z" fill="#202328"/>
<path transform="translate(1631,1013)" d="m0 0 4 1h3l2 2 1 6h2l1 5-5 2-2 6-5 4-1 2-4-1-1-3-4-3v-15l4-1v-2z" fill="#1B1F24"/>
<path transform="translate(1020,690)" d="m0 0h2v3l-21 7-13 7-9 7-11 11-10 16-3 7h-2l-1-7 4 1-1-3-2-2 4-7 5-6 7-8 3-4 3-1 5-5 10-5 8-3 5-4 10-3z" fill="#1E2126"/>
<path transform="translate(950,1219)" d="m0 0 14 1 1 3h-10l-8 3-7 6-8 13-11 23-3 6-2-2v-7l4-12 3-4h2v-5l3-5 1-4 5-4 3-5z" fill="#1D2126"/>
<path transform="translate(1387,1455)" d="m0 0 4 2 8 7 8 10 8 14 4 13 2 10v22l-4 17-5 9-2 1 3-10 3-12 1-9v-12l-3-17-4-12-6-12-8-11-9-9z" fill="#282B2F"/>
<path transform="translate(1082,689)" d="m0 0 15 1 12 3 3 1v2l6-1 12 7 4 4 10 4 6 4 4 1 1 3h2v2l2 1-5-1-16-9-20-9-20-6-19-4-1-2z" fill="#212326"/>
<path transform="translate(431,448)" d="m0 0h3l-1 4-3 6-2 2-1 3 9-4-1 4-8 11-3 8-7 2-2-3h-2v-2l4-4 1-4h3v-3h2l1-5-5 3h-2l1-5 9-10z" fill="#1E2226"/>
<path transform="translate(607,1354)" d="m0 0h16l21 3 18 5 21 7 18 7 15 9 15 10v2l5 2 13 10 1 3-4-2-11-9-15-10-14-9-12-6-28-10-23-6-17-3h-22l-8 2-5 1 3-3z" fill="#26323A"/>
<path transform="translate(857,1393)" d="m0 0h3l1 14h-2v5l-4 4-5 1v2l-8 6-4 1 1-5 9-16z" fill="#26323A"/>
<path transform="translate(602,1097)" d="m0 0 4 1-1 13-3 10-7 14-8 11-10 10-7 4 2-4 7-8h2l2-4 7-10 6-13z" fill="#373C3F"/>
<path transform="translate(505,1267)" d="m0 0 2 3v14l-3 17-5 10-7 9-10 10-12 7-9 3-6 1v-2l16-7 10-7 7-6 8-11 5-11 2-7z" fill="#1F272D"/>
<path transform="translate(794,251)" d="m0 0h7l5 4 1 7-3 5-3 2h-6l-5-4-1-2v-7z" fill="#464545"/>
<path transform="translate(1565,669)" d="m0 0h2l4 13 6 12 9 10 10 8 1 3-7-1-10-7-8-9-5-11-2-12z" fill="#38383B"/>
<path transform="translate(630,368)" d="m0 0h8l5 5v6l-4 5-2 1h-6l-5-5-1-5 3-5z" fill="#28292C"/>
<path transform="translate(1098,1410)" d="m0 0 3 1 7 11 7 8 10 7 8 4 15 5v1h-10l-14-5-10-6-8-8-7-12z" fill="#35383B"/>
<path transform="translate(674,1102)" d="m0 0h1l-1 17-4 25-6 29-2 5h-1l1-13 4-25 7-35z" fill="#FEFEFE"/>
<path transform="translate(1649,724)" d="m0 0v3l-15 9-12 3h-15l-13-3-9-6 3-1 19 5h18l13-4z" fill="#56514E"/>
<path transform="translate(499,1466)" d="m0 0 2 1-8 6-21 14-16 10-8 6h-2v2h-3l-1-5 18-10 12-8 16-11h4l3-3z" fill="#282C2F"/>
<path transform="translate(1651,627)" d="m0 0 5 2 10 11 6 11 4 11 1 4v12l-3 12-6 10-1-2 5-13 1-6v-12l-4-13-6-12-8-10z" fill="#2B2F32"/>
<path transform="translate(1582,1249)" d="m0 0h4v3h-4l1 5 2 3v3l-10 3 4 1v2l5 2 1 7-7-1-4-5-1-4v-8l3-6z" fill="#202429"/>
<path transform="translate(383,1279)" d="m0 0 2 2 4 11 7 11 9 9 12 8 1 3-6-2-11-6-9-9-6-10-4-12z" fill="#4B4745"/>
<path transform="translate(403,587)" d="m0 0 5 4 7 8 7 7 11 7 12 7 2 3-5-1-12-5-11-7-8-8-7-11z" fill="#404347"/>
<path transform="translate(1161,723)" d="m0 0 4 1 12 8 3 3v2l4 1 13 13v2l3 1 4 7 4 5v2l-4-2-8-11-5-3-7-8-9-9-13-10z" fill="#202327"/>
<path transform="translate(697,1411)" d="m0 0h1v7l-7 14-9 16-12 20-11 21-8 16-2 2 1-5 15-30 11-19 13-23 6-11z" fill="#45CCF3"/>
<path transform="translate(1571,369)" d="m0 0 10 1v2l-10 3h-2l-9 3-2 4h-2v2h-3v2l-3 3-2 10h-2l-1 3v-8l5-10 8-9 10-5z" fill="#2D2B2C"/>
<path transform="translate(969,248)" d="m0 0 9 2 9 4 6 4 7 6 7 11 4 9 1 4v8l-2-4-4-10-7-13-5-6-11-8-9-4-5-2z" fill="#3B393A"/>
<path transform="translate(532,677)" d="m0 0 2 1-1 7 3 3 4-1 1 7 1 3-1 2h3l-1 3-1-2-4 1-3 3-4-8-1-3v-10z" fill="#2B353B"/>
<path transform="translate(1484,693)" d="m0 0 3 3 9 25 7 24-1 4-4-8-1-6-4-10-1-7-3-5-4-10v-5z" fill="#212428"/>
<path transform="translate(446,1504)" d="m0 0 4 2v7h2v3h2l2 10v4 6h-3l-6-19-4-12z" fill="#24A6CA"/>
<path transform="translate(572,1043)" d="m0 0 5 2 9 10 5 10 4 11 1 4v10l-2 1-5-20-5-12-8-11z" fill="#3E3D3E"/>
<path transform="translate(1419,1506)" d="m0 0h1l1 5v22l-4 17-5 9-2 1 3-10 3-12 1-9v-17h1z" fill="#8F8B88"/>
<path transform="translate(1221,351)" d="m0 0h2l1 3 5 1 6 1-3 3-1 3-5-1-1 6-5 5 2 1-2 2-6-5 1-2h4l1-4 1-1-3-1v-3h2v-5z" fill="#1B1F24"/>
<path transform="translate(905,1432)" d="m0 0h15l2 4-1 3-3-1-12 1h-10l2-5z" fill="#A35F34"/>
<path transform="translate(1279,1233)" d="m0 0m-5 1 4 1-1 3-20 7-19 6h-4l1-3 13-4 16-6 6-2h4z" fill="#1C2127"/>
<path transform="translate(1068,1011)" d="m0 0h30v1l-14 1 2 2 20 1 7 1v1h-26l-15-2-6-3z" fill="#B8632E"/>
<path transform="translate(1331,411)" d="m0 0 4 2 7 14v7l2 5-4-1-6-11-3-7z" fill="#313234"/>
<path transform="translate(1587,1102)" d="m0 0 4 2-1 6 1 2 3 1-2 1-5-1-1 3-3 2-4 4-2-2v-7l2-4z" fill="#1C2024"/>
<path transform="translate(525,1517)" d="m0 0h11l1 2v7l-3 3-9-1-2-4z" fill="#19A8CE"/>
<path transform="translate(490,1316)" d="m0 0 3 1-2 4-9 9-12 7-9 3-6 1v-2l16-7 10-7 7-6z" fill="#313133"/>
<path transform="translate(423,461)" d="m0 0 2 3-2 4h-2v3l-3 1-1 5-7 5h-3l1-5 8-13 1 2 5-3z" fill="#243037"/>
<path transform="translate(857,1395)" d="m0 0h2l-1 8-2 4h-2l-1 3h-2v2h-2v2l-4 3h-2l1-5 6-10 5-6z" fill="#1C2126"/>
<path transform="translate(1491,506)" d="m0 0 3 1v2h-2l-1 3 2 7h-2v4l-3 1v-2h-2v-2l-5-1v-5l7-7z" fill="#1B2025"/>
<path transform="translate(1043,1396)" d="m0 0h2l3 10v8h-4l-3-4-2-1v3l-3 1v-12l5-1 3 1z" fill="#3D4346"/>
<path transform="translate(973,935)" d="m0 0h2l7 8 12 12 11 8v2h-5l-8-6-2-4-8-7v-2h-2v-2l-4-2-3-5z" fill="#28282B"/>
<path transform="translate(1245,1607)" d="m0 0 6 1 1 4 13 5 6-1 1 4-3 1h-7l-9-3-8-8z" fill="#202327"/>
<path transform="translate(579,566)" d="m0 0 1 3-5 13-7 10-6 7-7 5-2-1 9-9 11-16z" fill="#686461"/>
<path transform="translate(431,448)" d="m0 0h3l-1 4-3 6-2 2-2 7-3-4-4 3h-2l1-5 9-10z" fill="#262628"/>
<path transform="translate(1581,1133)" d="m0 0 6 1v2l4 1 4 2 2-1 1 2 10 1v2l-3 1h-12l-8-4-4-5z" fill="#1E2126"/>
<path transform="translate(1307,552)" d="m0 0 4 2 10 8 11 9 6 7-7-1-24-24z" fill="#58504C"/>
<path transform="translate(1223,1498)" d="m0 0h6v2l3-1 3 5 2 1v3l-2 2-7-1-6-4v-4z" fill="#202226"/>
<path transform="translate(1227,807)" d="m0 0 2 1 3 4-1 5h2l1 4h-2l1 9-3 1-4-13-1-10z" fill="#21272C"/>
<path transform="translate(650,1514)" d="m0 0 2 1 2 8-3 7-6 2v-12l3-5z" fill="#16A5CB"/>
<path transform="translate(574,1066)" d="m0 0 4 1 3 11v11l-4-5-1-5-3-1-1-8 3-2z" fill="#1F2227"/>
<path transform="translate(804,183)" d="m0 0h7l4 4-3 5-6 1-5-3 1-6z" fill="#333436"/>
<path transform="translate(1034,1388)" d="m0 0 6 1 4 5v7h-8l-2-4-3-3 3-2z" fill="#1D2227"/>
<path transform="translate(1387,298)" d="m0 0h3l-1 3-3 1-6 7-6 11-4 2 1-5 2-6 7-8z" fill="#1E2227"/>
<path transform="translate(1250,1665)" d="m0 0h6l3 3-2 6-6 1-4-3 1-5z" fill="#222326"/>
<path transform="translate(1311,1448)" d="m0 0h10v3l2 1-5 2-10-1-5 3-5 1v-2l4-1 1-4z" fill="#1E2328"/>
<path transform="translate(1461,306)" d="m0 0 5 1 9 13 3 7-1 5-3-4-4-9-2-1v-2h-2l-3-7-2-1z" fill="#23292F"/>
<path transform="translate(1403,290)" d="m0 0h20l3 2-12 2h-11l-10 2v-2z" fill="#1B2025"/>
<path transform="translate(469,1614)" d="m0 0 1 4h5v6l2 1h-2v3h-2v15l-2 4z" fill="#4BC7E8"/>
<path transform="translate(747,1088)" d="m0 0h1v26l-2 10-2-1-2-14v-20h1l1 19 1 5 1-5z" fill="#B8622D"/>
<path transform="translate(1387,1455)" d="m0 0 4 2 8 7 8 10 5 10h-2l-1 2-6-11-4-6-9-10z" fill="#423B38"/>
<path transform="translate(1011,1342)" d="m0 0 1 2 4 1 9 6 1 2-10 2-4-3-1-5-1-4z" fill="#1B2025"/>
<path transform="translate(855,1394)" d="m0 0v3l-8 11-9 17-1-3 4-12 1-2h2l1-4z" fill="#903F1E"/>
<path transform="translate(1383,433)" d="m0 0h6l13 5v5h-5l-3-1-1-2-7-2-3-3z" fill="#31383D"/>
<path transform="translate(1658,210)" d="m0 0 8 1-6 7-4 5-5-2 1-5z" fill="#2F3337"/>
<path transform="translate(1575,1264)" d="m0 0 2 2-1 1h3v2l5 2 1 7-7-1-4-5v-7z" fill="#1B2025"/>
<path transform="translate(553,661)" d="m0 0h7v1l-5 1v3l-6 1-1 3-7-1-4 4-2-1 5-5 6-4z" fill="#2D3337"/>
<path transform="translate(1020,690)" d="m0 0h2v3l-24 8 2-4 5-4 9-2z" fill="#212326"/>
<path transform="translate(1555,431)" d="m0 0 4 1 1 2 7 2 6 2 1 3h-6l-3 1-9-6z" fill="#1E2227"/>
<path transform="translate(1392,1595)" d="m0 0h2l-2 4-7 7-11 7-10 4-3-1 9-4 15-10z" fill="#7C6F65"/>
<path transform="translate(633,1223)" d="m0 0 35 4 3 2h-12l-29-3z" fill="#FCD3AA"/>
<path transform="translate(563,1721)" d="m0 0 6 2-5 7-7 4-2-3 2-4h2v-2h2v-3z" fill="#26323A"/>
<path transform="translate(1654,1028)" d="m0 0 2 1-3 5-1 5-4 2-8-2 3-2h3l2-6z" fill="#212225"/>
<path transform="translate(403,587)" d="m0 0 5 4 7 8 3 3 1 5h-3l-7-8-6-10z" fill="#43403E"/>
<path transform="translate(455,1493)" d="m0 0h4l-1 3-10 7h-2v2h-3l-1-5z" fill="#3D3A39"/>
<path transform="translate(1222,1468)" d="m0 0h6l-1 5-4 1v3l-5 4-2-1 1-6z" fill="#1C2126"/>
<path transform="translate(1559,376)" d="m0 0 3 1-2 1-2 4h-2v2h-3v2l-3 3-2 10h-2l-1 3v-8l5-10 4-5 4-2z" fill="#1E242A"/>
<path transform="translate(548,1427)" d="m0 0 2 1-14 14-8 7-11 7 1-4 6-2v-2l10-8 7-6 5-5z" fill="#373738"/>
<path transform="translate(784,1267)" d="m0 0 21 14 7 5v2l-5-2-22-15-3-3z" fill="#524036"/>
<path transform="translate(1207,769)" d="m0 0 3 1 3 6 4 6 1 4 2 1v5h2l-1 3-2-2v-3h-3l-8-16z" fill="#222427"/>
<path transform="translate(1013,1416)" d="m0 0 3 1 1 6h-2l-2 6 1 3h-5v-6l2-2-1-4v-3z" fill="#1B1F24"/>
<path transform="translate(1207,1402)" d="m0 0 1 3-6 10-9 10-10 7-5 1 5-4 9-7 9-10z" fill="#908279"/>
<path transform="translate(1585,729)" d="m0 0 9 2 10 3 4 3-7 1-8-3-8-5z" fill="#786A61"/>
<path transform="translate(577,1378)" d="m0 0h1l1 8-4 10-3 4-2-1-1-5 4-3z" fill="#293238"/>
<path transform="translate(505,1267)" d="m0 0 2 3v14l-3 17-2-4 2-16z" fill="#947562"/>
<path transform="translate(591,1068)" d="m0 0 3 4 2 8v10l-2 1-5-21h2z" fill="#7E736C"/>
<path transform="translate(981,1235)" d="m0 0h2l5 6v2h3l1 8 3 5-3 2-8-17-3-4z" fill="#1C2227"/>
<path transform="translate(1132,707)" d="m0 0 7 1 8 4 5 2 3 2v2h2v2l2 1-5-1-16-9-6-3z" fill="#212529"/>
<path transform="translate(1334,421)" d="m0 0 1 4h3l2 2h2v7l2 5-4-1-6-11-1-5z" fill="#212427"/>
<path transform="translate(480,1479)" d="m0 0 2 1-13 9-8 5-4-2 12-8 6-2z" fill="#2E3337"/>
<path transform="translate(1676,666)" d="m0 0h1v12l-3 12-6 10-1-2 5-13 1-6h2z" fill="#AB9A8F"/>
<path transform="translate(1509,953)" d="m0 0h1l-1 10-4 15h-1v-5l-2-1 1-6h2l1-3 2-9z" fill="#1F2429"/>
<path transform="translate(395,845)" d="m0 0h4l-2 5-4 7-5-1 1-4z" fill="#1F2327"/>
<path transform="translate(987,1606)" d="m0 0 4 1v3h4l1 4-1 1h-6l-5-5 1-3z" fill="#1E2125"/>
<path transform="translate(1373,1467)" d="m0 0 7 6 4 6-2 4v-2l-4-2-3-5-2-3z" fill="#1C2126"/>
<path transform="translate(1042,1408)" d="m0 0 2 4v2l3-1v5l-3 1-8-3 3-7z" fill="#1B1F24"/>
<path transform="translate(1651,627)" d="m0 0 5 2 10 11 3 6h-2l-1 2-6-10-9-10z" fill="#695B54"/>
<path transform="translate(465,433)" d="m0 0h10l-3 5-11 1v-4z" fill="#1E2125"/>
<path transform="translate(1589,1115)" d="m0 0 4 1 4 4-5 2-3 3-4-2v-3h2v-4z" fill="#1B1F24"/>
<path transform="translate(523,1518)" d="m0 0 2 1-1 7 6 2h6v-10l4 2v5l-5 5h-9l-4-3z" fill="#30BCE1"/>
<path transform="translate(696,1421)" d="m0 0 1 4-1 5-3 1-2 7h-2l-1 3-3 1 2-5z" fill="#26B3D7"/>
<path transform="translate(1332,576)" d="m0 0 7 2 4 4 1 5h-4l-8-9z" fill="#313539"/>
<path transform="translate(1554,292)" d="m0 0 2 1-6 5-2 1h-9l-5-3 3-1h11z" fill="#C37A4E"/>
<path transform="translate(1008,322)" d="m0 0 1 2-6 12-8 8-4 1 6-7 7-9z" fill="#C7B7AD"/>
<path transform="translate(1227,807)" d="m0 0 2 1 3 4-1 5h2l1 4-4-2-2-4-3-1v-6z" fill="#1B1F24"/>
<path transform="translate(607,1377)" d="m0 0 4 1-8 4-11 8-2-1 6-7z" fill="#44CBF2"/>
<path transform="translate(1e3 275)" d="m0 0h3l4 9 1 4v8l-2-4-4-10-2-4z" fill="#545250"/>
<path transform="translate(1499,984)" d="m0 0h4l-1 7-2 5h-3v-8z" fill="#1F2226"/>
<path transform="translate(1390,1494)" d="m0 0 3 1 3 9v6l-6-9-1-4z" fill="#232427"/>
<path transform="translate(1131,1441)" d="m0 0 11 3 6 2v1h-10l-7-2z" fill="#6B6460"/>
<path transform="translate(1307,552)" d="m0 0 4 2 10 8 3 4h-4l-13-13z" fill="#685C55"/>
<path transform="translate(558,484)" d="m0 0h3l2 1 2 6v4h-3l-4-7z" fill="#1C2126"/>
<path transform="translate(931,328)" d="m0 0 9 4v2l1 2 3 1-4 1-10-7z" fill="#232528"/>
<path transform="translate(1665,206)" d="m0 0 2 1-1 2 4-2 5 1v2l-14 1h-2v-2z" fill="#1F2227"/>
<path transform="translate(406,1313)" d="m0 0 11 7 1 3-6-2-8-4v-2h2z" fill="#625752"/>
<path transform="translate(602,1097)" d="m0 0 4 1-1 10-4-3 1 3-2 2 1-10z" fill="#504C49"/>
<path transform="translate(515,1728)" d="m0 0v3l-6 10-3 2 1-5 4-8z" fill="#45CCF3"/>
<path transform="translate(1e3 1300)" d="m0 0 2 1-1 5h3l-1 5-4 2-1-10z" fill="#1B1F24"/>
<path transform="translate(579,566)" d="m0 0 1 3-5 13-3 3-1-4z" fill="#BBA595"/>
<path transform="translate(1172,1554)" d="m0 0 6 1-1 5h-5l-3 2v-7z" fill="#1B1F25"/>
<path transform="translate(1415,1543)" d="m0 0h3l-2 9-5 8-1-2z" fill="#B6ADA8"/>
<path transform="translate(634,1576)" d="m0 0 2 1-6 7h-12l2-2 11-4z" fill="#28B4D9"/>
<path transform="translate(1194,754)" d="m0 0 4 2 8 11 3 4-1 3-12-16z" fill="#3A3B3D"/>
<path transform="translate(1366,332)" d="m0 0h1v11l-2 4-3-1 1-9z" fill="#1B1F24"/>
<path transform="translate(1301,1591)" d="m0 0 14 2 1 2h-14l-3-1v-2z" fill="#1B2025"/>
<path transform="translate(587,886)" d="m0 0h5v4l-3 2h-3l-1-2-4-1v-2z" fill="#25272A"/>
<path transform="translate(572,1043)" d="m0 0 5 2 7 8v5l-4-5-8-9z" fill="#A5958B"/>
<path transform="translate(566,524)" d="m0 0h1v11l-1 6-3-1 1-8 1-6z" fill="#1C2227"/>
<path transform="translate(819,1290)" d="m0 0 6 3 5 6-5-1-8-6z" fill="#564235"/>
<path transform="translate(798,1277)" d="m0 0 7 4 7 5v2l-5-2-9-6z" fill="#5A4335"/>
<path transform="translate(548,1142)" d="m0 0 4 2-2 1-1 3-6 1-3-2 5-3h3z" fill="#23272B"/>
<path transform="translate(1515,904)" d="m0 0h1v16h-3v-8z" fill="#202226"/>
<path transform="translate(1587,706)" d="m0 0 7 4 3 3v2l-7-1-1-4v-2h-2z" fill="#7D6B5E"/>
<path transform="translate(472,478)" d="m0 0 2 4-4 5h-3l-1 2 1-5z" fill="#1C2227"/>
<path transform="translate(1573,369)" d="m0 0 8 1v2l-10 3-1-4z" fill="#1B2025"/>
<path transform="translate(724,211)" d="m0 0h6l3 2 4 1-1 2-10-1-2-1z" fill="#252527"/>
<path transform="translate(633,1223)" d="m0 0 17 2-3 2-17-1z" fill="#FCD9B7"/>
<path transform="translate(1649,724)" d="m0 0v3l-11 7h-2v-3z" fill="#97877B"/>
<path transform="translate(1559,376)" d="m0 0 3 1-2 1-2 4h-2v2h-4l1-4 5-3z" fill="#1B2025"/>
<path transform="translate(1461,306)" d="m0 0 5 1 3 4v7l-1-2h-2l-3-7-2-1z" fill="#202225"/>
<path transform="translate(978,266)" d="m0 0 4 1 7 8-3 1-5-6-3-2z" fill="#423C3A"/>
<path transform="translate(969,248)" d="m0 0 9 2 9 4 2 2-3 1-12-6-5-2z" fill="#A78D7C"/>
<path transform="translate(1619,1033)" d="m0 0 5 2 3 2-1 2 2 1h-2l-1 2-6-7z" fill="#303133"/>
<path transform="translate(1129,1335)" d="m0 0m-1 1 1 2-9 9h-2l2-4z" fill="#333638"/>
<path transform="translate(504,1281)" d="m0 0h1l1 10-2 10-2-4z" fill="#FDF3E9"/>
<path transform="translate(579,1148)" d="m0 0 2 1-2 1zm-1 2 2 3-9 7v-3z" fill="#47494B"/>
<path transform="translate(790,983)" d="m0 0 3 1v6l-4 1-1-5z" fill="#CD926E"/>
<path transform="translate(413,486)" d="m0 0 3 1-1 5-7 1v-3l4-1z" fill="#1B1F24"/>
<path transform="translate(1410,1484)" d="m0 0h3l2 4-1 5-2 1-2-6z" fill="#352B27"/>
<path transform="translate(1128,1408)" d="m0 0 4 1 4 4v2l-5-1-4-4z" fill="#1D2228"/>
<path transform="translate(584,1143)" d="m0 0 3 1-2 4-4 4h-2l2-6z" fill="#262B30"/>
<path transform="translate(1565,669)" d="m0 0h2l3 12-3-1-1 2z" fill="#454343"/>
<path transform="translate(1347,390)" d="m0 0 2 2v3l3 1 2 6-4 1-3-9z" fill="#444A4E"/>
<path transform="translate(1490,1018)" d="m0 0h2l-1 7-2 5-2-1 1-7z" fill="#2C2828"/>
<path transform="translate(762,967)" d="m0 0h1v11l-1 5-2-2v-9h1z" fill="#B8622D"/>
<path transform="translate(956,738)" d="m0 0 3 1-4 9h-2l-1-7 4 1z" fill="#23262A"/>
<path transform="translate(1329,571)" d="m0 0 4 1 5 6-7-1-3-4z" fill="#515252"/>
<path transform="translate(565,502)" d="m0 0h2l1 4v10h-2l-1-3z" fill="#222427"/>
<path transform="translate(800,254)" d="m0 0 4 3v2h3v3l-6-1-1-1z" fill="#C3845E"/>
<path transform="translate(870,1344)" d="m0 0 3 3 6 10 1 3-4-2-6-12z" fill="#2B3339"/>
<path transform="translate(501,1297)" d="m0 0h2l-1 9h-4z" fill="#4D4846"/>
<path transform="translate(1242,1246)" d="m0 0 5 1-3 2-6 2h-4l1-3z" fill="#24272B"/>
<path transform="translate(437,616)" d="m0 0 5 2 5 5-5-1-5-2z" fill="#5A5755"/>
<path transform="translate(502,1461)" d="m0 0m-2 1 2 1-5 5h-2l-1 2-2 2-3-1z" fill="#1C2227"/>
<path transform="translate(1301,1450)" d="m0 0 2 1-1 4h-4l-1 2-1-4z" fill="#293035"/>
<path transform="translate(1586,1138)" d="m0 0 11 4 3 2h-7l-8-4z" fill="#26323A"/>
<path transform="translate(1632,732)" d="m0 0h4v3l-2 1h-8l3-3z" fill="#2B2D2F"/>
<path transform="translate(794,255)" d="m0 0h1v6h2v3l3 1h-6l-1-1v-8z" fill="#C47D52"/>
<path transform="translate(1149,714)" d="m0 0 5 1 1 3h2v2l2 1-5-1-5-3z" fill="#1D2228"/>
<path transform="translate(987,256)" d="m0 0 5 1 5 5h-5l-5-4z" fill="#555657"/>
<path transform="translate(696,1421)" d="m0 0 1 4-1 5-4 1 1-5z" fill="#25B1D5"/>
<path transform="translate(1048,1294)" d="m0 0h1v11l-2 2-1-2v-8z" fill="#292728"/>
<path transform="translate(555,662)" d="m0 0h9l-1 2-6 1-1 2-2-4z" fill="#1D2228"/>
<path transform="translate(994,262)" d="m0 0 5 1 3 5-3 1-5-6z" fill="#373737"/>
<path transform="translate(1210,1394)" d="m0 0" fill="#FEFEFE"/>
<path transform="translate(1211,1390)" d="m0 0" fill="#FEFEFE"/>
<path transform="translate(1209,1397)" d="m0 0" fill="#FEFEFE"/>
<path transform="translate(1583,728)" d="m0 0 2 1z" fill="#FEFEFE"/>
<path transform="translate(1386,1454)" d="m0 0" fill="#B8622D"/>
<path transform="translate(1385,1453)" d="m0 0" fill="#FEFEFE"/>
<path transform="translate(1177,1433)" d="m0 0" fill="#FEFEFE"/>
<path transform="translate(1208,1400)" d="m0 0" fill="#FEFEFE"/>
<path transform="translate(452,1340)" d="m0 0" fill="#FEFEFE"/>
<path transform="translate(1306,551)" d="m0 0" fill="#FEFEFE"/>
<path transform="translate(990,345)" d="m0 0" fill="#FEFEFE"/>
</svg>
