<?xml version="1.0" encoding="UTF-8"?>
<svg version="1.1" viewBox="0 0 2048 1628" width="210" height="167" xmlns="http://www.w3.org/2000/svg">
<path transform="translate(1073,191)" d="m0 0h47l25 2 24 4 27 8 34 13 28 14 19 12 19 14 13 11 10 9 8 7 12 13 13 17 13 18 12 19 10 18 10 24 10 30 5 24 2 14 1 13v58l-3 34-4 22-10 30-12 27-10 18-12 19-12 16-13 17-11 12-18 18-14 11-16 12-20 13-21 11-31 13-27 9-26 5-25 3-17 1h-34l-23-2-30-5-21-6-26-9-20-9-18-10-24-16-14-10-10-7-31-31-7 6-71 71-4 5 1 3 8 7 17 17 2 1 2-4 77-77 4 1v6l-35 35-1 2h-2l-2 4-37 37-2 1 2 5 7 7 2 6-15 14-14 14-7 8-12 12-7 8-30 30-8 7-33 33-8 7-31 31-7 8-27 27h-2v2l-8 7-12 12-7 8-5 7 1 9 6 11 9 10 11 7 6 2 9 1 22 1h99l209-1 9-2 11-6 10-9 4-6 3-12 1-11 1-97h-162l-34-1-12-3-12-6-10-9-7-11-6-15-2-10h2l1-3 4 2 7 19 7 13 8 7 9 5 10 3 11 1h185l1-68 2-12 6-11 8-9 12-9 13-6 14-2 26-1h98l140 1h183l59 1v-325l-7-5-4-6 1-7 6-8 5-3h8l5 3 5 10-1 9-8 5-2 1-1 326 64-1 100-1 7-4 8-1h9l4 2 1 2v16l-3 6-9 1-10-1-4-4-2-8-165-1v151l-2 23-4 9-7 9-8 7-4 2-16 2-342 1v69l1 16 4 16 6 8 12 7 13 4 13 1h386l5-1 3-10h16l7 3 2 4-1 10-3 9-2 1h-7l-3-1-8-1-4-5-87-1-306-1-18-2-12-4-11-6-7-8-5-11-2-10-1-11v-69l1-9h3l-1-1-19 5-19 10-9 8-4 6-1 3-1 15v127l-2 23-4 15-6 11-9 10-10 7-16 4-10 1h-49v-1l9-1 32-1-297-2h-255-4l42 2 99 2h2v2l3-1 12 1v1h-31l-92-1-58-2-17-2-10-3-6-4-5-4-8-10-4-9-2-13-1-294-1-11-5-10-7-7-14-7-5-2v-1h7 3l-11-2-30-2-8-1v-1l24-1-8-1-29-1-112-2-61-2v-2h60l122 2 27 1 16 2 12 4 11 7 8 8 6 10 2 6 1 16 1 283 2 18 4 9 7 8 7 4 14 3 27 2 355 1h207l19-1 11-3 10-6 4-5 5-11 4-16 3-27 1-29 1-59v-18l-4-9v-15l5-12 7-9 10-9 16-8 12-4 11-2v-17l-4-22-7-19-6-11-6-4-7-1-137-2v90l-1 16-3 13-7 12-9 9-10 6-11 4-13 2-30 1-162 1h-75l-46-1-19-2-16-6-10-8-8-9-10-17-4 1-13 13-12 6-11 2-18-2-14-7-9-8-6-10-3-7-1-5v-12l2-9 6-11 8-10 12-13 36-36h2v-2l6-5 7-8 10-10 5-7v-198l1-35-11 1h-78l-56-1-28-1-16-3-12-6-10-8-5-5-6-8-3-10-1-15v-334l-6-1-6-5-1-5 3-5 5-4 6-2h9l6 3 4 5-1 7-5 5-3 2-1 8v338l2 9 4 6 6 7 14 8 9 3 21 2 100 1h57l2-1v-185l1-18-7-2-4-3-2-8v-10l3-3 7-2h11l5 5v7l-4 16-1 12-1 192h27l95 1 23 1 7 3 9 10 7 16 4 17 1 16v12l1 3 10 4 2-4 9-10 5-4 7-8 55-55 3-2-2-5-12-17-13-20-10-17-8-15-10-24-10-30-5-24-3-34v-42l3-34 6-27 5-16 11-28 8-16 9-17 14-22 11-14 9-11 11-12 15-15 8-7 10-9 17-13 19-12 19-10 23-10 24-9 28-8 16-3zm1 8-24 2-18 3-27 8-22 8-24 11-17 9-18 12-12 9-13 11-16 14-7 8-10 10-9 11-13 18-12 19-15 29-9 21-5 15-6 22-3 22-2 24-1 36 2 33 3 20 7 25 7 19 9 21 10 19 13 21 8 12 10 13 10 11 14 16 11 9 14 12 17 12 20 12 25 13 27 11 25 8 27 5 27 3h47l29-3 29-6 30-10 24-11 21-12 20-13 18-13 15-13 24-24 11-14 12-17 12-19 14-27 8-19 7-21 5-20 4-28 1-14v-58l-3-24-4-19-10-30-10-24-13-25-12-19-13-18-12-14-11-12-15-14-14-11-23-16-15-9-16-9-22-10-22-8-26-7-16-3-35-3zm-462 523-21 1-1 206-1 22 8-6 15-14 11-12 7-8 58-58 5-6 8-7 44-44 8-11 5-8 2-2-2-2-4-19-6-16-5-9-5-4-11-2-60-1zm452 144-17 2-10 4-9 6-9 9-7 10-2 6-1 10v64l132 1 14 1 10 5 6 8 7 16 4 14 2 14 2 25h350l9-3 8-7 6-12 2-9 1-15 1-149zm-673 61v1h6v-1zm6 1m15 8m761 72 1 2zm1 3 1 2zm1 4 1 2zm1 3 1 2zm1 5 1 2zm1 3v5h1v-5zm1 5 1 4zm1 7 1 4zm1 10v5h1v-5zm-488 84v1h5v-1zm6 0v1l20 1h88l49-1v-1zm-240 170m2 1 4 1zm4 1v1h6v-1z" fill="#2B2A2B"/>
<path transform="translate(197,1123)" d="m0 0 2 4 11 1 34 4 14 4 18 8 19 10 13 9 13 11 12 12 9 11 8 10 15 24 7 15 7 21 4 24 3 21v15l-4 30-5 23-8 20-8 15-8 12-10 13-11 12-4 5-8 7-15 13-13 9-15 9-24 9-16 4-30 2h-36l-28-2-16-4-16-6-18-10-16-12-10-9-8-7-13-13-15-20-8-13-12-21-11-25v-96l8-16 8-18 12-22 10-14 13-16 11-12 14-12 15-10 23-12 18-6 21-3 21-2 5-1v-2l9 2v-4h5 3zm-6 3m-36 13-26 6-12 5-16 9-14 9-10 8 1 2 23 5 8 1 8-7 8-9 11-9 15-13 3-3v-2l5-1zm8 1m63 0 5 5 8 7 13 11 13 12 11 9h4l24-7-6-7-11-8-12-7-16-8-10-4-9-2zm-57 1 4 2h3v-2zm17 1-9 21-13 26v2h24l4-43-5-1 3-5zm17 0 7 11 14 24 6 12 2 2h21l11-2-2-5-7-8-11-9-7-7-13-9-11-5-8-4zm-30 3-4 3-11 4-12 9-14 12-7 7-5 7 11 3 7 1h13l7-10 10-19 6-14zm26 10v36h10l9-1-3-10-7-13-6-8zm-134 33-8 7-11 14-11 16-5 12 27 4 17 2 5-12 10-18 10-15 2-7-16-2zm236 0-19 3 1 4 10 17 9 16 7 13 1 1 15-1 29-3-1-5-7-12-12-17-9-10-5-4-5-2zm-189 9-4 5-14 22-11 20v4l29 3 18 1 3-8 13-38 1-6-1-1zm49 2-4 5-9 30-5 15v5l4 1 14 1h26v-56zm43 0-4 1-1 8v47h32l9-1-1-8-10-33-4-11-3-3zm60-1-29 1 3 12 9 28 4 13h12l23-1 14-2-2-9-13-24-11-15-7-3zm-238 49-4 6-10 29-3 17-1 13 11 1h34l6-2 4-28 7-29-1-3-12-2-25-2zm325 1-36 4 3 21 3 39h51v-12l-3-27-5-20-3-5zm-269 10-4 8-3 9-5 28v9l1 1h48l2-2 8-44v-7l-31-2zm216 1-36 2-8 1 1 11 4 21 3 18 7 1h38l3-1v-19l-3-24-3-8-2-2zm-156 5-3 12-5 30v6l1 1h51l1-1v-29l-1-16-19-2zm85 2-28 1v46h51v-15l-4-20-3-11-1-1zm131 55v1h14v-1zm-30 1v1h15v-1zm-1 1m-65 1-3 31-4 21 17 3 16 2h15l2-2 4-19 1-7v-28zm59 0-2 33-3 24v5l23 7 11 2h6l5-6 6-16 4-18 2-29-46-1zm-265 0-48 1 1 19 5 21 8 21 5 9h7l31-6 4-2-5-25-4-24-2-13zm33 1-19 1v11l3 19 5 20 3 6h10l37-4 1-3-8-50zm109 0v23l1 22 2 1 21 1h22l5-19 2-17v-11zm-13 0-51 1 2 23 3 21 1 2h23l24-2v-44zm-1 56-28 1-14 1 1 9 12 36 5 10 27-1 1-1v-25l-1-30zm15 1v38l1 17 16 2h5l4-5 10-27 6-20v-3l-28-2zm54 2-4 11-7 21-8 20v3l17 3h20l7-8 12-19 7-12 3-7v-4l-25-3-21-2zm-125 3-17 2-23 3-5 1 1 5 12 21 10 18 4 5h12l21-2 4-1-1-7-8-24-8-21zm184 5-11 23-14 24-4 5v2l23 11 5-1 11-9 12-12 10-13 7-11v-4l-22-8-10-3-6-2zm-242 4-38 8-2 2 7 12 9 12 10 13 3 4h2v2l8 5h7l21-5 1-4-8-16-11-23-4-9zm116 51-19 1-2 1 1 5 8 16 9 21 5 1 5-4-3-12-1-22-1-7zm13 1-1 1v28l-2 7 6-5 11-15 4-10 1-6zm-50 0-25 3-4 2 2 4 5 6 13 10 14 11 10 7 4 2 5 5 2 1-2-5-8-22-10-19-5-5zm82 1-4 4-6 14-5 8-7 17-2 5 5-1 2-1v-2h-2v-2h10l10-10 14-9 11-10 6-9-10-3-11-1zm-131 5-20 8 2 4 6 5 26 16 21 9 11 4 10-2-3-5-5-4-14-8-16-16-6-8-6-3zm177 0-9 7-17 17-14 10-10 6-1 2 5 2h8l21-7 12-6 15-9 10-7 3-3-2-4-8-5-9-3zm-82 30m-1 1m8 9v3z" fill="#201F20"/>
<path transform="translate(1563,506)" d="m0 0h8l5 3 5 10-1 9-8 5-2 1-1 326 64-1 100-1 7-4 8-1h9l4 2 1 2v16l-3 6-9 1-10-1-4-4-2-8-165-1v151l-2 23-4 9-7 9-8 7-4 2-16 2-342 1v69l1 16 4 16 6 8 12 7 13 4 13 1h386l5-1 3-10h16l7 3 2 4-1 10-3 9-2 1h-7l-3-1-8-1-4-5-87-1-306-1-18-2-12-4-11-6-7-8-5-11-2-10-1-11v-69l1-9h3l-1-1-19 5-19 10-9 8-4 6-1 3-1 15v127l-2 23-4 15-6 11-9 10-10 7-16 4-10 1h-49v-1l9-1 32-1-297-2h-255-4l42 2 99 2h2v2l3-1 12 1v1h-31l-92-1-58-2-17-2-10-3-6-4-5-4-8-10-4-9-2-13-1-294-1-11-5-10-7-7-14-7-5-2v-1h7 3l-11-2-30-2-8-1v-1l24-1-8-1-29-1-112-2-61-2v-2h60l122 2 27 1 16 2 12 4 11 7 8 8 6 10 2 6 1 16 1 283 2 18 4 9 7 8 7 4 14 3 27 2 355 1h207l19-1 11-3 10-6 4-5 5-11 4-16 3-27 1-29 1-59v-18l-4-9v-15l5-12 7-9 10-9 16-8 12-4 11-2v-17l-4-22-7-19-6-11-6-4-7-1-137-2v90l-1 16-3 13-7 12-9 9-10 6-11 4-13 2-30 1-162 1h-75l-46-1-19-2-16-6-10-8-8-9-6-11 2-4 4-2 8 13 8 9 11 7 6 2 9 1 22 1h99l209-1 9-2 11-6 10-9 4-6 3-12 1-11 1-97h-162l-34-1-12-3-12-6-10-9-7-11-6-15-2-10h2l1-3 4 2 7 19 7 13 8 7 9 5 10 3 11 1h185l1-68 2-12 6-11 8-9 12-9 13-6 14-2 26-1h98l140 1h183l59 1v-325l-7-5-4-6 1-7 6-8zm-499 360-17 2-10 4-9 6-9 9-7 10-2 6-1 10v64l132 1 14 1 10 5 6 8 7 16 4 14 2 14 2 25h350l9-3 8-7 6-12 2-9 1-15 1-149zm-673 61v1h6v-1zm6 1m15 8m761 72 1 2zm1 3 1 2zm1 4 1 2zm1 3 1 2zm1 5 1 2zm1 3v5h1v-5zm1 5 1 4zm1 7 1 4zm1 10v5h1v-5zm-488 84v1h5v-1zm6 0v1l20 1h88l49-1v-1zm-240 170m2 1 4 1zm4 1v1h6v-1z" fill="#262526"/>
<path transform="translate(756,792)" d="m0 0 5 5 8 10 30 30 11 9 3 3-9 10-23 23-7 8-15 14-19 19-7 8-108 108-7 8-25 25-8 7-11 11-14 11-9 5h-16l-16-3-5-2-8-7-4-2-1 2-6-16-1-13 3-10 8-11 78-78 8-7 39-39 5-6 6-5 5-5 15-16 6-5 7-8 37-37 8-7 27-27 7-8z" fill="#FEFEFE"/>
<path transform="translate(1073,191)" d="m0 0h47l25 2 24 4 27 8 34 13 28 14 19 12 19 14 13 11 10 9 8 7 12 13 13 17 13 18 12 19 10 18 10 24 10 30 5 24 2 14 1 13v58l-3 34-4 22-10 30-12 27-10 18-12 19-12 16-13 17-11 12-18 18-14 11-16 12-20 13-21 11-31 13-27 9-26 5-25 3-17 1h-34l-23-2-30-5-21-6-26-9-20-9-18-10-24-16-14-10-10-7-31-31-7 6-71 71-4 5h-3l-2-3 1-4 10-11 5-4 7-8 55-55 3-2-2-5-12-17-13-20-10-17-8-15-10-24-10-30-5-24-3-34v-42l3-34 6-27 5-16 11-28 8-16 9-17 14-22 11-14 9-11 11-12 15-15 8-7 10-9 17-13 19-12 19-10 23-10 24-9 28-8 16-3zm1 8-24 2-18 3-27 8-22 8-24 11-17 9-18 12-12 9-13 11-16 14-7 8-10 10-9 11-13 18-12 19-15 29-9 21-5 15-6 22-3 22-2 24-1 36 2 33 3 20 7 25 7 19 9 21 10 19 13 21 8 12 10 13 10 11 14 16 11 9 14 12 17 12 20 12 25 13 27 11 25 8 27 5 27 3h47l29-3 29-6 30-10 24-11 21-12 20-13 18-13 15-13 24-24 11-14 12-17 12-19 14-27 8-19 7-21 5-20 4-28 1-14v-58l-3-24-4-19-10-30-10-24-13-25-12-19-13-18-12-14-11-12-15-14-14-11-23-16-15-9-16-9-22-10-22-8-26-7-16-3-35-3z" fill="#232223"/>
<path transform="translate(1859,373)" d="m0 0h9l1 154 1 3 9-1 11-7 15-14 31-31 7-8 33-33 13-10 4-2 4 1-2 5-7 8-17 17-7 8-46 46-7 8-12 13-8 11-1 4 3 2 8 1 147 1v9h-132l-24 1-1 16 7 9 12 11 42 42 8 7 17 17 7 8 8 9 6 9v4l-5-1-11-8-15-15-7-8-61-61-13-10-12-6-4-1-1 14-1 48-1 97h-7l-1-1-1-19v-130l-2-7-9 1-9 6-10 9-8 7-17 17-7 8-12 12h-2v2l-8 7-15 16-16 16-8 5-6 1 1-5 9-11 9-10 11-11 8-7 52-52 7-8 8-9 1-5v-14l-114-1h-41l-1-1v-8h157l-1-9-8-11-12-13-14-15-54-54-8-7-8-8-2-3v-3l6 1 10 6 16 15 14 14 8 7 53 53 6 5 14 7 1-8 1-6z" fill="#232223"/>
<path transform="translate(1064,263)" d="m0 0h60l27 3 23 5 18 6 29 14 14 9 14 10 14 11 8 7 7 8 7 7 11 14 12 17 15 26 8 17 9 28 3 17 2 25v39l-2 29-4 22-9 24-10 21-12 20-10 14-11 14-12 13-12 11-17 13-14 10-13 8-16 8-19 8-24 7-32 7-17 2h-26l-26-4-30-7-26-9-17-8-16-10-14-10-13-10-13-11-14-14-9-11-12-17-12-20-10-19-11-28-7-25-4-25-1-13v-16l2-23 3-17 7-26 10-25 11-21 12-19 12-17 9-11 12-13 14-13 13-10 15-10 18-10 20-9 18-6 23-5zm3 7-18 2-24 6-19 7-16 8-14 8-12 8-16 12-13 11-10 10-11 14-8 11-13 20-12 23-8 19-8 27-5 36-1 21 2 24 4 24 10 30 10 23 10 18 14 21 9 11 9 10 11 11 11 9 13 10 18 11 23 12 11 5 29 9 33 7 7 1h32l26-4 28-7 20-7 23-11 19-12 14-10 11-9 10-9 18-18 13-17 13-21 11-23 7-18 6-25 2-17 1-17v-37l-3-31-3-14-10-27-10-21-9-15-12-17-11-14-11-12-8-7-12-10-13-9-19-12-18-10-17-7-20-6-15-3-21-2z" fill="#222122"/>
<path transform="translate(1785,1227)" d="m0 0 23 1 18 3 27 8 21 9 20 11 16 12 10 9 8 7 9 10 11 15 13 21 9 20 6 18 6 29 1 9v23l-3 19-6 24-9 24-12 23-10 15-12 13-5 6-8 7-14 12-17 12-17 9-21 8-22 6-21 3h-34l-24-4-22-6-16-6-19-10-16-12-13-11-10-9-9-9-10-13-8-13-11-21-8-20-6-19-3-17-1-13v-21l2-21 5-20 8-20 11-22 15-22 9-11 14-15 10-9 17-12 14-8 20-9 27-8 20-4zm-1 7-17 1-20 4-26 9-23 11-16 11-14 11-13 13-13 17-10 14-11 20-10 25-5 19-1 8-1 29 1 18 4 20 7 21 13 27 9 14 9 12 15 16 10 9 13 10 23 13 15 7 21 7 23 5 7 1h35l17-3 22-6 18-8 18-10 16-11 14-11 10-9 7-8 10-13 13-23 9-20 8-27 3-16 1-13v-15l-2-15-6-28-6-18-10-21-12-19-11-13-17-17-13-10-18-12-21-11-30-10-14-3-20-2z" fill="#242324"/>
<path transform="translate(173,919)" d="m0 0h60l122 2 27 1 16 2 12 4 11 7 8 8 6 10 2 6 1 16 1 283 2 18 4 9 7 8 7 4 14 3 27 2 355 1h207l19-1 11-3 10-6 4-5 5-11 4-16 3-27 1-29 1-59v-18l-4-9v-15h2l3-3 3 1 2 56h1v83l-2 23-4 15-6 11-9 10-10 7-16 4-10 1h-49v-1l9-1 32-1-297-2h-255-4l42 2 99 2h2v2l3-1 12 1v1h-31l-92-1-58-2-17-2-10-3-6-4-5-4-8-10-4-9-2-13-1-294-1-11-5-10-7-7-14-7-5-2v-1h7 3l-11-2-30-2-8-1v-1l24-1-8-1-29-1-112-2-61-2zm218 8v1h6v-1zm6 1m15 8m47 366m2 1 4 1zm4 1v1h6v-1z" fill="#2C2B2C"/>
<path transform="translate(1737,1304)" d="m0 0h7l8 3 5 5 6 9 5 12 3 13 1 8v30l-3 16-5 12-6 10-6 7-9 4-9-3-8-9-9-17-4-15-1-6v-33l4-15 5-12 7-11 5-6z" fill="#1C1B1C"/>
<path transform="translate(1832,1304)" d="m0 0h8l8 4 6 7 6 13 4 16 2 18v16l-2 16-5 15-7 13-7 8-9 2-8-3-8-8-6-10-5-15-3-18v-22l3-18 5-13 7-12 7-7z" fill="#1C1B1C"/>
<path transform="translate(887,748)" d="m0 0 4 1v6l-35 35-1 2h-2l-2 4-37 37-2 1 2 5 7 7 2 6-15 14-14 14-7 8-12 12-7 8-30 30-8 7-33 33-8 7-31 31-7 8-27 27h-2v2l-8 7-12 12-7 8-5 7v8l-7 5-3-5-4 1-13 13-12 6-11 2-18-2-14-7-9-8-6-10-1-3 1-18 2 1 2 11 5 11 5 2 8 7 12 3 8 1h16l9-5 11-9 10-9 10-10 8-7 24-24 7-8 108-108 7-8 23-23 8-7 12-13 22-22 2-3-11-10-8-7-28-28-7-9 1-2 5 1 1 1 2-1 9 4 1 3h2l27 27 2 1 2-4z" fill="#2A292A"/>
<path transform="translate(1206,1260)" d="m0 0 4 2 3 9 4 16 7 11 7 6 17 7 6 2 8 1 1 2-6 8-6 4-17 5-6 3-4 6-7 9-3 12-2 12-2 4-4-2-5-10-8-19-8-11-5-3-22-8-9-7v-4l24-7 8-4 7-6 8-13 7-20z" fill="#1D1C1D"/>
<path transform="translate(179,601)" d="m0 0 5 2 3 10 1 14 2 7 8 5 24 11 14 8 2 4-26 7-9 5-10 7-5 16-5 11 1 3-3 7-4-5-8-16-6-16-5-4-8-5-18-6-8-2-3-2v-4l15-8 21-10 6-4 4-8 6-21 4-5z" fill="#1D1C1D"/>
<path transform="translate(1476,176)" d="m0 0 5 2 3 4 2 20 4 8 13 9 12 5 17 5 3 2-1 3-25 11-16 8-4 9-4 12-5 13-2 3-4-2-5-8-7-20-4-8-15-7-15-6-10-5 1-4 8-3 16-5 15-9 5-6 6-24 3-5z" fill="#1D1C1D"/>
<path transform="translate(1185,1139)" d="m0 0h1l1 16 4 16 6 8 12 7 13 4 13 1h386l5-1 3-10h16l7 3 2 4-1 10-3 9-2 1h-7l-3-1-8-1-4-5-87-1-306-1-18-2-12-4-11-6-7-8-5-11-1-4v-11l3-1 1-10z" fill="#262526"/>
<path transform="translate(1669,1460)" d="m0 0h3l2 16 5 12 9 13 11 12 12 10 14 9 12 7 16 6 14 3 15 1h17l18-2 17-5 16-8 14-9 12-9 9-8 7-8 10-13 3-6v-19l1-2 9 1 9 4-2 6-10 15-7 10-11 13-17 17-16 12-21 11-16 5-17 3h-38l-17-3-17-6-15-8-12-9-14-12-9-9-10-13-12-21-9-11v-2z" fill="#232223"/>
<path transform="translate(359,310)" d="m0 0h9l6 3 4 5-1 7-5 5-3 2-1 8-1 249-1 27h-1l-1-82h-3l-1 15h-1l-1-145v-72l-6-1-6-5-1-5 3-5 5-4z" fill="#262526"/>
<path transform="translate(1205,397)" d="m0 0 4 1-1 5-11 12-8 9h-2l-2 4-162 162h-2v2h-2v2l-3 3h-2l-2 4-16 15-6 3-3-1 5-8 14-15 45-45 8-7 8-8 7-8 30-30h2v-2h2v-2l8-7 20-20 7-8 26-26 8-7 12-13 11-11z" fill="#252425"/>
<path transform="translate(1189,462)" d="m0 0h2l-1 6-6 9-9 9-7 8-19 19-7 8-86 86-7 4h-2l1-7 9-10 97-97 7-8 24-24z" fill="#252425"/>
<path transform="translate(1121,1101)" d="m0 0 3 1 2 56h1v83l-1 15h-1l-1-5-3 19-4 10-4 6-2 1 2-9-1-4 4-20 2-20 1-29 1-59v-18l-4-9v-15h2z" fill="#8B8989"/>
<path transform="translate(851,46)" d="m0 0 3 1-1 4-7 8-16 17-14 14-7 8-32 32-11 8h-4l1-7 12-13 7-8 55-55 11-8z" fill="#232122"/>
<path transform="translate(761,167)" d="m0 0 5 2 11 9 13 12 15 16 20 20v2h2l3 3v2h2l5 5 15 16 2 4v4l-6-1-13-12-63-63-8-11-3-6z" fill="#252425"/>
<path transform="translate(727,167)" d="m0 0h2l-2 9-13 15-24 24-7 8-4 4h-2v2h-2l-2 4-24 24-6 4h-5l1-5 9-11 39-39 7-8 11-11 7-8 10-9z" fill="#222122"/>
<path transform="translate(637,47)" d="m0 0h6l8 6 21 21 8 7 15 15 8 7 16 16 7 9 1 7-3 3-2-2v-3h-5l-9-9-7-8-14-15-26-26-7-8-13-13-4-5z" fill="#201F20"/>
<path transform="translate(742,174)" d="m0 0 4 2 2 10v79l-1 40-5-1-1-2-1-10v-115z" fill="#242324"/>
<path transform="translate(493,1069)" d="m0 0 2 1 2 11 5 11 5 2 8 7 12 3 8 1h16l9-5 6-5 5-1 11-9 15-14h3l-21 21 1 2-5 3-12 12-12 6-11 2-18-2-14-7-9-8-6-10-1-3z" fill="#8E8D8D"/>
<path transform="translate(743,4)" d="m0 0h4l1 7-1 117-4 1-3-3v-116l2-5z" fill="#212021"/>
<path transform="translate(358,512)" d="m0 0h1l1 21 2-3v3l3 1v82l-2 13-1 42h-1l-1-14-1 9h-1z" fill="#898787"/>
<path transform="translate(627,1130)" d="m0 0 250 1 69 1v1l-59 1h-80v-1h-73l24 1v1h-95l-31-3-5-1zm66 2v1h5v-1z" fill="#8B8989"/>
<path transform="translate(148,916)" d="m0 0h16l7 3 1 5-3 14-6 3h-11l-6-3-3-7v-8l3-6z" fill="#201F20"/>
<path transform="translate(758,793)" d="m0 0 6 1v2l10 5 13 11 12 12 8 10 4 8-1 4-6-4-13-12-26-26-7-9z" fill="#828080"/>
<path transform="translate(1181,1066)" d="m0 0h3l-1 4h-2l1 2 1 43 1 25-1 13h-3l-2 4-1-11v-69l1-9h3z" fill="#878585"/>
<path transform="translate(511,1308)" d="m0 0 37 1 99 2h2v2l3-1 12 1v1h-31l-92-1-33-1v-1l6-1z" fill="#8B8989"/>
<path transform="translate(1082,1306)" d="m0 0 3 1 1 3-16 2h-49v-1l9-1 32-1-118-1v-1z" fill="#8B8989"/>
<path transform="translate(811,856)" d="m0 0v3l-14 15-6 10-9 9-4 1-11 9-16 16h-2l2-4 13-13 5-4 7-8 26-26 8-7z" fill="#8A8888"/>
<path transform="translate(797,97)" d="m0 0h2l-1 6-16 17-15 15h-3l2-5 3-4h2l2-6 11-12 6-5z" fill="#878585"/>
<path transform="translate(701,111)" d="m0 0 4 2 8 7 6 6 7 2 1 7-3 3-2-2v-3h-5l-9-9-7-11z" fill="#858383"/>
<path transform="translate(173,919)" d="m0 0h60l-4 1v2h-33l-23-1z" fill="#4B494A"/>
<path transform="translate(56,1319)" d="m0 0h1v5l-1 1h-47l6-3 37-1z" fill="#8B8989"/>
<path transform="translate(383,927)" d="m0 0h8l11 1 8 5-2 1-11-2-30-2-8-1v-1z" fill="#8B8989"/>
<path transform="translate(1177,1079)" d="m0 0h2l1 8v27l-2 16h-1z" fill="#312F30"/>
<path transform="translate(322,1322)" d="m0 0 51 3v1h-46l-6-2z" fill="#8B8989"/>
<path transform="translate(725,170)" d="m0 0 3 1-1 5-10 12-2-1-1-5 7-8z" fill="#807E7E"/>
<path transform="translate(184,1319)" d="m0 0 3 1-1 3h-28l-3-3z" fill="#8B8989"/>
<path transform="translate(611,1053)" d="m0 0m-1 1m-1 1m-1 1m-1 1m-1 1m-1 1m-1 1m-1 1m-1 1m-1 1m-1 1m-1 1m-1 1m-1 1m-1 1m-1 1m-1 1m-1 1m-2 1 2 1-15 15-5 6-5 2 2-4 12-11z" fill="#393839"/>
<path transform="translate(306,1320)" d="m0 0h4l-1 3h-42v-2z" fill="#8B8989"/>
<path transform="translate(1177,1034)" d="m0 0h4v6h1v8l-2 2-1 10h-1z" fill="#5B5A5A"/>
<path transform="translate(625,1043)" d="m0 0 2 1-7 8-9 9-8 6 2-4z" fill="#8B8989"/>
<path transform="translate(219,1322)" d="m0 0h20l-2 3h-13l-16-1v-1z" fill="#8B8989"/>
<path transform="translate(493,1069)" d="m0 0 2 1 2 14v7l-2-4h-2z" fill="#B4B3B3"/>
<path transform="translate(398,934)" d="m0 0h7l11 3 2 3-5-1-3 1-12-5z" fill="#8B8989"/>
<path transform="translate(322,1322)" d="m0 0 16 1-1 3h-10l-6-2z" fill="#767475"/>
<path transform="translate(181,708)" d="m0 0 3 1-2 8-2 1-3-5v-4z" fill="#424041"/>
<path transform="translate(872,146)" d="m0 0h21l-1 12h-1l-1-9-3-1-15-1z" fill="#8B8989"/>
<path transform="translate(613,929)" d="m0 0v3l-12 12-2 1 1-4 10-9z" fill="#8B8989"/>
<path transform="translate(772,121)" d="m0 0v3l-1 2h-2l-2 4-2 3-1 5h-2l1-7z" fill="#403F3F"/>
<path transform="translate(589,943)" d="m0 0h1v6l-4 2-2 4v-7z" fill="#8B8989"/>
<path transform="translate(759,919)" d="m0 0 1 3-4 1z" fill="#8B8989"/>
<path transform="translate(796,143)" d="m0 0h7v1h-7z" fill="#8B8989"/>
<path transform="translate(597,145)" d="m0 0 3 1-3 2z" fill="#8B8989"/>
<path transform="translate(667,1313)" d="m0 0 2 1z" fill="#8B8989"/>
<path transform="translate(188,1486)" d="m0 0" fill="#8B8989"/>
<path transform="translate(760,918)" d="m0 0" fill="#8B8989"/>
<path transform="translate(857,145)" d="m0 0" fill="#8B8989"/>
<path transform="translate(722,134)" d="m0 0" fill="#8B8989"/>
</svg>
